<svg xmlns="http://www.w3.org/2000/svg" xmlns:xlink="http://www.w3.org/1999/xlink" viewBox="0 0 512 512" width="512" height="512" style="width: 100%; height: 100%; transform: translate3d(0,0,0); content-visibility: visible;" preserveAspectRatio="xMidYMid meet"><defs><clipPath id="__lottie_element_2"><rect width="512" height="512" x="0" y="0"></rect></clipPath><radialGradient id="__lottie_element_7" spreadMethod="pad" gradientUnits="userSpaceOnUse" cx="190.6840057373047" cy="157.4290008544922" r="9.544998168945312" fx="190.6840057373047" fy="157.4290008544922"><stop offset="0%" stop-color="rgb(55,50,40)" stop-opacity="1"></stop><stop offset="64%" stop-color="rgb(55,50,40)" stop-opacity="0.5"></stop><stop offset="100%" stop-color="rgb(55,50,40)" stop-opacity="0"></stop></radialGradient><radialGradient id="__lottie_element_8" spreadMethod="pad" gradientUnits="userSpaceOnUse" cx="176.6840057373047" cy="134.4290008544922" r="10.75" fx="176.6840057373047" fy="134.4290008544922"><stop offset="0%" stop-color="rgb(55,50,40)" stop-opacity="1"></stop><stop offset="64%" stop-color="rgb(55,50,40)" stop-opacity="0.5"></stop><stop offset="100%" stop-color="rgb(55,50,40)" stop-opacity="0"></stop></radialGradient><radialGradient id="__lottie_element_9" spreadMethod="pad" gradientUnits="userSpaceOnUse" cx="149.6840057373047" cy="129.4290008544922" r="9.638992309570312" fx="149.6840057373047" fy="129.4290008544922"><stop offset="0%" stop-color="rgb(55,50,40)" stop-opacity="1"></stop><stop offset="64%" stop-color="rgb(55,50,40)" stop-opacity="0.5"></stop><stop offset="100%" stop-color="rgb(55,50,40)" stop-opacity="0"></stop></radialGradient><radialGradient id="__lottie_element_10" spreadMethod="pad" gradientUnits="userSpaceOnUse" cx="147.6840057373047" cy="164.4290008544922" r="10.625364522431038" fx="147.6840057373047" fy="164.4290008544922"><stop offset="0%" stop-color="rgb(55,50,40)" stop-opacity="1"></stop><stop offset="64%" stop-color="rgb(55,50,40)" stop-opacity="0.5"></stop><stop offset="100%" stop-color="rgb(55,50,40)" stop-opacity="0"></stop></radialGradient><linearGradient id="__lottie_element_14" spreadMethod="pad" gradientUnits="userSpaceOnUse" x1="133.6840057373047" y1="99.42900085449219" x2="133.6840057373047" y2="197.4250030517578"><stop offset="0%" stop-color="rgb(198,143,63)"></stop><stop offset="22%" stop-color="rgb(182,126,54)"></stop><stop offset="53%" stop-color="rgb(166,110,44)"></stop><stop offset="67%" stop-color="rgb(151,97,39)"></stop><stop offset="80%" stop-color="rgb(136,85,34)"></stop><stop offset="90%" stop-color="rgb(119,72,28)"></stop><stop offset="100%" stop-color="rgb(101,59,21)"></stop></linearGradient><linearGradient id="__lottie_element_15" spreadMethod="pad" gradientUnits="userSpaceOnUse" x1="132.6840057373047" y1="131.4290008544922" x2="127.63899993896484" y2="202.0590057373047"><stop offset="28%" stop-color="rgb(101,59,21)" stop-opacity="0"></stop><stop offset="64%" stop-color="rgb(101,59,21)" stop-opacity="0.5"></stop><stop offset="100%" stop-color="rgb(101,59,21)" stop-opacity="1"></stop></linearGradient><radialGradient id="__lottie_element_19" spreadMethod="pad" gradientUnits="userSpaceOnUse" cx="190.6840057373047" cy="157.4290008544922" r="9.544998168945312" fx="190.6840057373047" fy="157.4290008544922"><stop offset="0%" stop-color="rgb(55,50,40)" stop-opacity="1"></stop><stop offset="64%" stop-color="rgb(55,50,40)" stop-opacity="0.5"></stop><stop offset="100%" stop-color="rgb(55,50,40)" stop-opacity="0"></stop></radialGradient><radialGradient id="__lottie_element_20" spreadMethod="pad" gradientUnits="userSpaceOnUse" cx="176.6840057373047" cy="134.4290008544922" r="10.75" fx="176.6840057373047" fy="134.4290008544922"><stop offset="0%" stop-color="rgb(55,50,40)" stop-opacity="1"></stop><stop offset="64%" stop-color="rgb(55,50,40)" stop-opacity="0.5"></stop><stop offset="100%" stop-color="rgb(55,50,40)" stop-opacity="0"></stop></radialGradient><radialGradient id="__lottie_element_21" spreadMethod="pad" gradientUnits="userSpaceOnUse" cx="149.6840057373047" cy="129.4290008544922" r="9.638992309570312" fx="149.6840057373047" fy="129.4290008544922"><stop offset="0%" stop-color="rgb(55,50,40)" stop-opacity="1"></stop><stop offset="64%" stop-color="rgb(55,50,40)" stop-opacity="0.5"></stop><stop offset="100%" stop-color="rgb(55,50,40)" stop-opacity="0"></stop></radialGradient><radialGradient id="__lottie_element_22" spreadMethod="pad" gradientUnits="userSpaceOnUse" cx="147.6840057373047" cy="164.4290008544922" r="10.625364522431038" fx="147.6840057373047" fy="164.4290008544922"><stop offset="0%" stop-color="rgb(55,50,40)" stop-opacity="1"></stop><stop offset="64%" stop-color="rgb(55,50,40)" stop-opacity="0.5"></stop><stop offset="100%" stop-color="rgb(55,50,40)" stop-opacity="0"></stop></radialGradient><linearGradient id="__lottie_element_26" spreadMethod="pad" gradientUnits="userSpaceOnUse" x1="133.6840057373047" y1="99.42900085449219" x2="133.6840057373047" y2="197.4250030517578"><stop offset="0%" stop-color="rgb(198,143,63)"></stop><stop offset="22%" stop-color="rgb(182,126,54)"></stop><stop offset="53%" stop-color="rgb(166,110,44)"></stop><stop offset="67%" stop-color="rgb(151,97,39)"></stop><stop offset="80%" stop-color="rgb(136,85,34)"></stop><stop offset="90%" stop-color="rgb(119,72,28)"></stop><stop offset="100%" stop-color="rgb(101,59,21)"></stop></linearGradient><linearGradient id="__lottie_element_27" spreadMethod="pad" gradientUnits="userSpaceOnUse" x1="132.6840057373047" y1="131.4290008544922" x2="127.63899993896484" y2="202.0590057373047"><stop offset="28%" stop-color="rgb(101,59,21)" stop-opacity="0"></stop><stop offset="64%" stop-color="rgb(101,59,21)" stop-opacity="0.5"></stop><stop offset="100%" stop-color="rgb(101,59,21)" stop-opacity="1"></stop></linearGradient><radialGradient id="__lottie_element_33" spreadMethod="pad" gradientUnits="userSpaceOnUse" cx="-1.315999984741211" cy="60.42900085449219" r="121.01299858093262" fx="-1.315999984741211" fy="60.42900085449219"><stop offset="30%" stop-color="rgb(186,128,40)"></stop><stop offset="82%" stop-color="rgb(146,96,31)"></stop><stop offset="100%" stop-color="rgb(106,63,22)"></stop></radialGradient><linearGradient id="__lottie_element_34" spreadMethod="pad" gradientUnits="userSpaceOnUse" x1="-1.315999984741211" y1="81.42900085449219" x2="-1.315999984741211" y2="182.64100646972656"><stop offset="0%" stop-color="rgb(92,53,17)" stop-opacity="0"></stop><stop offset="50%" stop-color="rgb(92,53,17)" stop-opacity="0.5"></stop><stop offset="100%" stop-color="rgb(92,53,17)" stop-opacity="1"></stop></linearGradient><radialGradient id="__lottie_element_35" spreadMethod="pad" gradientUnits="userSpaceOnUse" cx="4.684999942779541" cy="74.42900085449219" r="72.70300054550171" fx="4.684999942779541" fy="74.42900085449219"><stop offset="36%" stop-color="rgb(230,181,109)"></stop><stop offset="80%" stop-color="rgb(183,139,78)"></stop><stop offset="100%" stop-color="rgb(135,97,46)"></stop></radialGradient><radialGradient id="__lottie_element_36" spreadMethod="pad" gradientUnits="userSpaceOnUse" cx="17.68400001525879" cy="-20.570999145507812" r="75.20765067463806" fx="17.68400001525879" fy="-20.570999145507812"><stop offset="39%" stop-color="rgb(80,45,13)" stop-opacity="1"></stop><stop offset="81%" stop-color="rgb(80,45,13)" stop-opacity="0.5"></stop><stop offset="100%" stop-color="rgb(80,45,13)" stop-opacity="0"></stop></radialGradient><linearGradient id="__lottie_element_39" spreadMethod="pad" gradientUnits="userSpaceOnUse" x1="16.93400001525879" y1="-100.07099914550781" x2="16.68400001525879" y2="10.331999778747559"><stop offset="0%" stop-color="rgb(198,143,63)"></stop><stop offset="25%" stop-color="rgb(182,126,54)"></stop><stop offset="51%" stop-color="rgb(166,110,44)"></stop><stop offset="63%" stop-color="rgb(151,97,39)"></stop><stop offset="75%" stop-color="rgb(136,85,34)"></stop><stop offset="88%" stop-color="rgb(119,72,28)"></stop><stop offset="100%" stop-color="rgb(101,59,21)"></stop></linearGradient><linearGradient id="__lottie_element_40" spreadMethod="pad" gradientUnits="userSpaceOnUse" x1="20.68400001525879" y1="-146.0709991455078" x2="13.430000305175781" y2="-23.347999572753906"><stop offset="0%" stop-color="rgb(207,158,85)" stop-opacity="1"></stop><stop offset="50%" stop-color="rgb(207,158,85)" stop-opacity="0.5"></stop><stop offset="100%" stop-color="rgb(207,158,85)" stop-opacity="0"></stop></linearGradient><linearGradient id="__lottie_element_41" spreadMethod="pad" gradientUnits="userSpaceOnUse" x1="25.68400001525879" y1="-183.5709991455078" x2="21.663999557495117" y2="-95.05899810791016"><stop offset="0%" stop-color="rgb(255,237,162)" stop-opacity="1"></stop><stop offset="50%" stop-color="rgb(255,237,162)" stop-opacity="0.5"></stop><stop offset="100%" stop-color="rgb(255,237,162)" stop-opacity="0"></stop></linearGradient><linearGradient id="__lottie_element_45" spreadMethod="pad" gradientUnits="userSpaceOnUse" x1="15.684000015258789" y1="-63.57099914550781" x2="11.597000122070312" y2="6.735000133514404"><stop offset="5%" stop-color="rgb(233,200,144)"></stop><stop offset="70%" stop-color="rgb(202,166,107)"></stop><stop offset="100%" stop-color="rgb(172,132,69)"></stop></linearGradient><linearGradient id="__lottie_element_46" spreadMethod="pad" gradientUnits="userSpaceOnUse" x1="10.925999641418457" y1="15.251999855041504" x2="12.109999656677246" y2="-14"><stop offset="0%" stop-color="rgb(255,79,79)"></stop><stop offset="50%" stop-color="rgb(188,55,55)"></stop><stop offset="100%" stop-color="rgb(122,32,32)"></stop></linearGradient><linearGradient id="__lottie_element_47" spreadMethod="pad" gradientUnits="userSpaceOnUse" x1="15.684000015258789" y1="-56.57099914550781" x2="14.322999954223633" y2="-37.5099983215332"><stop offset="0%" stop-color="rgb(16,20,28)"></stop><stop offset="45%" stop-color="rgb(37,37,35)"></stop><stop offset="90%" stop-color="rgb(59,54,43)"></stop></linearGradient><linearGradient id="__lottie_element_48" spreadMethod="pad" gradientUnits="userSpaceOnUse" x1="16.68400001525879" y1="-56.57099914550781" x2="15.91100025177002" y2="-48.25699996948242"><stop offset="0%" stop-color="rgb(198,183,130)" stop-opacity="1"></stop><stop offset="50%" stop-color="rgb(198,183,130)" stop-opacity="0.5"></stop><stop offset="100%" stop-color="rgb(198,183,130)" stop-opacity="0"></stop></linearGradient><linearGradient id="__lottie_element_52" spreadMethod="pad" gradientUnits="userSpaceOnUse" x1="59.685001373291016" y1="-54.57099914550781" x2="60.310001373291016" y2="-64.98899841308594"><stop offset="0%" stop-color="rgb(96,72,40)" stop-opacity="1"></stop><stop offset="50%" stop-color="rgb(96,72,40)" stop-opacity="0.5"></stop><stop offset="100%" stop-color="rgb(96,72,40)" stop-opacity="0"></stop></linearGradient><linearGradient id="__lottie_element_53" spreadMethod="pad" gradientUnits="userSpaceOnUse" x1="61.685001373291016" y1="-76.57099914550781" x2="60.55099868774414" y2="-67.2239990234375"><stop offset="10%" stop-color="rgb(255,255,255)" stop-opacity="1"></stop><stop offset="45%" stop-color="rgb(255,255,255)" stop-opacity="0.5"></stop><stop offset="80%" stop-color="rgb(255,255,255)" stop-opacity="0"></stop></linearGradient><linearGradient id="__lottie_element_54" spreadMethod="pad" gradientUnits="userSpaceOnUse" x1="-24.31599998474121" y1="-63.57099914550781" x2="-24.517000198364258" y2="-72.85700225830078"><stop offset="0%" stop-color="rgb(96,72,40)" stop-opacity="1"></stop><stop offset="50%" stop-color="rgb(96,72,40)" stop-opacity="0.5"></stop><stop offset="100%" stop-color="rgb(96,72,40)" stop-opacity="0"></stop></linearGradient><linearGradient id="__lottie_element_55" spreadMethod="pad" gradientUnits="userSpaceOnUse" x1="-22.31599998474121" y1="-86.57099914550781" x2="-23.448999404907227" y2="-77.2239990234375"><stop offset="10%" stop-color="rgb(255,255,255)" stop-opacity="1"></stop><stop offset="45%" stop-color="rgb(255,255,255)" stop-opacity="0.5"></stop><stop offset="80%" stop-color="rgb(255,255,255)" stop-opacity="0"></stop></linearGradient><linearGradient id="__lottie_element_59" spreadMethod="pad" gradientUnits="userSpaceOnUse"><stop></stop><stop></stop><stop></stop><stop></stop><stop></stop><stop></stop><stop></stop></linearGradient><linearGradient id="__lottie_element_60" spreadMethod="pad" gradientUnits="userSpaceOnUse"><stop></stop><stop></stop><stop></stop></linearGradient><linearGradient id="__lottie_element_61" spreadMethod="pad" gradientUnits="userSpaceOnUse"><stop></stop><stop></stop><stop></stop></linearGradient><linearGradient id="__lottie_element_65" spreadMethod="pad" gradientUnits="userSpaceOnUse" x1="-150.3159942626953" y1="17.429000854492188" x2="-112.302001953125" y2="74.4489974975586"><stop offset="0%" stop-color="rgb(198,143,63)"></stop><stop offset="25%" stop-color="rgb(182,126,54)"></stop><stop offset="51%" stop-color="rgb(166,110,44)"></stop><stop offset="63%" stop-color="rgb(151,97,39)"></stop><stop offset="75%" stop-color="rgb(136,85,34)"></stop><stop offset="88%" stop-color="rgb(119,72,28)"></stop><stop offset="100%" stop-color="rgb(101,59,21)"></stop></linearGradient><linearGradient id="__lottie_element_66" spreadMethod="pad" gradientUnits="userSpaceOnUse" x1="-158.3159942626953" y1="33.42900085449219" x2="-44.654998779296875" y2="79.03800201416016"><stop offset="0%" stop-color="rgb(101,59,21)" stop-opacity="0"></stop><stop offset="50%" stop-color="rgb(101,59,21)" stop-opacity="0.5"></stop><stop offset="100%" stop-color="rgb(101,59,21)" stop-opacity="1"></stop></linearGradient><linearGradient id="__lottie_element_67" spreadMethod="pad" gradientUnits="userSpaceOnUse" x1="-137.3159942626953" y1="108.42900085449219" x2="-132.0030059814453" y2="-0.4699999988079071"><stop offset="0%" stop-color="rgb(255,237,162)" stop-opacity="1"></stop><stop offset="50%" stop-color="rgb(255,237,162)" stop-opacity="0.5"></stop><stop offset="100%" stop-color="rgb(255,237,162)" stop-opacity="0"></stop></linearGradient><linearGradient id="__lottie_element_72" spreadMethod="pad" gradientUnits="userSpaceOnUse" x1="-15.315999984741211" y1="-222.5709991455078" x2="-96.97100067138672" y2="-95.79100036621094"><stop offset="0%" stop-color="rgb(211,160,85)"></stop><stop offset="47%" stop-color="rgb(171,121,57)"></stop><stop offset="100%" stop-color="rgb(132,82,30)"></stop></linearGradient><linearGradient id="__lottie_element_73" spreadMethod="pad" gradientUnits="userSpaceOnUse" x1="-43.314998626708984" y1="-156.5709991455078" x2="-40.18000030517578" y2="-220.85400390625"><stop offset="0%" stop-color="rgb(255,237,162)" stop-opacity="1"></stop><stop offset="50%" stop-color="rgb(255,237,162)" stop-opacity="0.5"></stop><stop offset="100%" stop-color="rgb(255,237,162)" stop-opacity="0"></stop></linearGradient><linearGradient id="__lottie_element_74" spreadMethod="pad" gradientUnits="userSpaceOnUse" x1="-44.314998626708984" y1="-166.5709991455078" x2="-40.292999267578125" y2="-207.79800415039062"><stop offset="40%" stop-color="rgb(222,179,114)"></stop><stop offset="74%" stop-color="rgb(176,133,72)"></stop><stop offset="100%" stop-color="rgb(130,87,31)"></stop></linearGradient><linearGradient id="__lottie_element_78" spreadMethod="pad" gradientUnits="userSpaceOnUse" x1="97.68499755859375" y1="-215.5709991455078" x2="108.42900085449219" y2="-71.06300354003906"><stop offset="0%" stop-color="rgb(211,160,85)"></stop><stop offset="47%" stop-color="rgb(172,121,57)"></stop><stop offset="100%" stop-color="rgb(132,82,30)"></stop></linearGradient><linearGradient id="__lottie_element_79" spreadMethod="pad" gradientUnits="userSpaceOnUse" x1="89.68499755859375" y1="-133.5709991455078" x2="105.47699737548828" y2="-204.9530029296875"><stop offset="0%" stop-color="rgb(255,237,162)" stop-opacity="1"></stop><stop offset="50%" stop-color="rgb(255,237,162)" stop-opacity="0.5"></stop><stop offset="100%" stop-color="rgb(255,237,162)" stop-opacity="0"></stop></linearGradient><linearGradient id="__lottie_element_80" spreadMethod="pad" gradientUnits="userSpaceOnUse" x1="99.68499755859375" y1="-152.5709991455078" x2="103.70700073242188" y2="-193.79800415039062"><stop offset="40%" stop-color="rgb(222,179,114)"></stop><stop offset="74%" stop-color="rgb(176,133,72)"></stop><stop offset="100%" stop-color="rgb(130,87,31)"></stop></linearGradient><linearGradient id="__lottie_element_84" spreadMethod="pad" gradientUnits="userSpaceOnUse" x1="152.6840057373047" y1="63.42900085449219" x2="86.41200256347656" y2="75.63700103759766"><stop offset="0%" stop-color="rgb(198,143,63)"></stop><stop offset="25%" stop-color="rgb(182,126,54)"></stop><stop offset="51%" stop-color="rgb(166,110,44)"></stop><stop offset="63%" stop-color="rgb(151,97,39)"></stop><stop offset="75%" stop-color="rgb(136,85,34)"></stop><stop offset="88%" stop-color="rgb(119,72,28)"></stop><stop offset="100%" stop-color="rgb(101,59,21)"></stop></linearGradient><linearGradient id="__lottie_element_85" spreadMethod="pad" gradientUnits="userSpaceOnUse" x1="117.68499755859375" y1="121.42900085449219" x2="122.99700164794922" y2="12.529999732971191"><stop offset="0%" stop-color="rgb(255,237,162)" stop-opacity="1"></stop><stop offset="50%" stop-color="rgb(255,237,162)" stop-opacity="0.5"></stop><stop offset="100%" stop-color="rgb(255,237,162)" stop-opacity="0"></stop></linearGradient><linearGradient id="__lottie_element_86" spreadMethod="pad" gradientUnits="userSpaceOnUse" x1="132.6840057373047" y1="59.42900085449219" x2="70.25599670410156" y2="94.6449966430664"><stop offset="0%" stop-color="rgb(101,59,21)" stop-opacity="0"></stop><stop offset="50%" stop-color="rgb(101,59,21)" stop-opacity="0.5"></stop><stop offset="100%" stop-color="rgb(101,59,21)" stop-opacity="1"></stop></linearGradient></defs><g clip-path="url(#__lottie_element_2)"><g style="display: block;" transform="matrix(1,0,0,1,256,256)" opacity="1"><g opacity="1" transform="matrix(1,0,0,1,0,0)"><path fill="url(#__lottie_element_84)" fill-opacity="1" d=" M66.61499786376953,8.449000358581543 C82.33399963378906,-3.321000099182129 128.40899658203125,38.18600082397461 151.8209991455078,66.40299987792969 C174.52999877929688,93.77300262451172 182.39999389648438,120.39900207519531 162.61500549316406,132.31700134277344 C145.77499389648438,142.46099853515625 116.11499786376953,124.63099670410156 100.47599792480469,94.90699768066406 C89,66.75 59.0890007019043,14.083999633789062 66.61499786376953,8.449000358581543z"></path></g><g opacity="1" transform="matrix(1,0,0,1,0,0)"><path fill="url(#__lottie_element_85)" fill-opacity="0.3" d=" M162.61399841308594,132.31500244140625 C172.63400268554688,110.30500030517578 155.2169952392578,83.47799682617188 123.7040023803711,50.814998626708984 C88.97200012207031,14.815999984741211 66.61399841308594,8.444999694824219 66.61399841308594,8.444999694824219 C82.33399963378906,-3.325000047683716 128.4040069580078,38.185001373291016 151.82400512695312,66.40499877929688 C174.53399658203125,93.7750015258789 182.4040069580078,120.3949966430664 162.61399841308594,132.31500244140625z"></path></g><g opacity="1" transform="matrix(1,0,0,1,0,0)"><path fill="url(#__lottie_element_86)" fill-opacity="0.6" d=" M162.61399841308594,132.31500244140625 C145.50599670410156,142.00599670410156 114,132.75 84.1240005493164,61.03499984741211 C50.5,1.75 68.5,-8.75 102.58999633789062,23.26099967956543 C94.68499755859375,23.56399917602539 87.5,50.25 116.19499969482422,86.28500366210938 C131.98300170898438,106.11100006103516 161.75,128 173.3040008544922,104.42500305175781 C174.18899536132812,102.62000274658203 179.5,122.75 162.61399841308594,132.31500244140625z"></path></g><g opacity="1" transform="matrix(1,0,0,1,0,0)"><path stroke-linecap="round" stroke-linejoin="round" fill-opacity="0" stroke="rgb(85,48,14)" stroke-opacity="0.2" stroke-width="5" d=" M74.49800109863281,8.449000358581543 C74.49800109863281,8.449000358581543 80.7959976196289,30.746999740600586 94.92500305175781,57.361000061035156 C109.09600067138672,84.0530014038086 131.1439971923828,115.08699798583984 162.61500549316406,132.31700134277344"></path></g><g opacity="1" transform="matrix(1,0,0,1,0,0)"><path stroke-linecap="round" stroke-linejoin="round" fill-opacity="0" stroke="rgb(133,83,33)" stroke-opacity="1" stroke-width="8" d=" M66.61499786376953,8.449000358581543 C82.33399963378906,-3.321000099182129 128.40899658203125,38.18600082397461 151.8209991455078,66.40299987792969 C174.52999877929688,93.77300262451172 182.39999389648438,120.39900207519531 162.61500549316406,132.31700134277344 C145.77499389648438,142.46099853515625 116.11499786376953,124.63099670410156 100.47599792480469,94.90699768066406 C90.9540023803711,76.80999755859375 83.47799682617188,60.42100143432617 78.12000274658203,47.03799819946289 C71.74400329589844,31.11199951171875 59.0890007019043,14.083999633789062 66.61499786376953,8.449000358581543z"></path></g><g opacity="1" transform="matrix(1,0,0,1,0,0)"><path stroke-linecap="round" stroke-linejoin="round" fill-opacity="0" stroke="rgb(85,48,14)" stroke-opacity="1" stroke-width="8" d=" M162.27099609375,132.47300720214844 C145.43099975585938,142.61700439453125 115.1969985961914,125.09600067138672 100.47599792480469,94.90699768066406 C90.59200286865234,74.63800048828125 74.26000213623047,36.97100067138672 67.74500274658203,24.538000106811523 C57.375,4.75 73.5,-0.25 99.80500030517578,17.722999572753906"></path></g></g><g style="display: block;" transform="matrix(1,0,0,1,255.99993896484375,255.99978637695312)" opacity="1"><g opacity="1" transform="matrix(1,0,0,1,0,0)"><g opacity="1" transform="matrix(1,0,0,1,0,0)"><path fill="url(#__lottie_element_78)" fill-opacity="1" d=" M59.053001403808594,-185.4600067138672 C59.053001403808594,-185.4600067138672 77.55799865722656,-216.75100708007812 112.71900177001953,-205.21200561523438 C154.5,-191.5 156.5,-137.5 118.0469970703125,-120.41100311279297 C106.85399627685547,-115.99500274658203 63.02399826049805,-135.2239990234375 63.02399826049805,-135.2239990234375 C63.02399826049805,-135.2239990234375 51.145999908447266,-170.93600463867188 59.053001403808594,-185.4600067138672z"></path></g><g opacity="1" transform="matrix(1,0,0,1,0,0)"><path fill="url(#__lottie_element_79)" fill-opacity="1" d=" M141.55499267578125,-181.08099365234375 C100,-226.75 71.25,-171.25 57.124000549316406,-160.77099609375 C46.75,-200.5 110.75,-234 141.55499267578125,-181.08099365234375z"></path></g><g opacity="1" transform="matrix(1,0,0,1,0,0)"><path stroke-linecap="round" stroke-linejoin="round" fill-opacity="0" stroke="rgb(133,83,33)" stroke-opacity="1" stroke-width="8" d=" M59.053001403808594,-185.4600067138672 C59.053001403808594,-185.4600067138672 77.37799835205078,-216.18800354003906 112.71900177001953,-205.21200561523438 C147.83200073242188,-194.3070068359375 152.81399536132812,-157.74000549316406 136.6300048828125,-134.93299865722656 C131.41200256347656,-127.58000183105469 124.51799774169922,-122.96399688720703 118.0469970703125,-120.41100311279297 C106.85399627685547,-115.99500274658203 63.02399826049805,-135.2239990234375 63.02399826049805,-135.2239990234375 C63.02399826049805,-135.2239990234375 51.145999908447266,-170.93600463867188 59.053001403808594,-185.4600067138672z"></path></g><g opacity="1" transform="matrix(1,0,0,1,0,0)"><path fill="url(#__lottie_element_80)" fill-opacity="1" d=" M76.95700073242188,-175.35499572753906 C76.95700073242188,-175.35499572753906 86.51100158691406,-192.8090057373047 106.99800109863281,-186.41099548339844 C124.28399658203125,-181.01300048828125 129.18299865722656,-159.4720001220703 120.38300323486328,-147.0709991455078 C113.2249984741211,-136.98399353027344 100.21800231933594,-136.61399841308594 100.21800231933594,-136.61399841308594 C100.21800231933594,-136.61399841308594 68.3479995727539,-154.3459930419922 76.95700073242188,-175.35499572753906z"></path><path stroke-linecap="round" stroke-linejoin="round" fill-opacity="0" stroke="rgb(129,87,30)" stroke-opacity="1" stroke-width="8" d=" M76.95700073242188,-175.35499572753906 C76.95700073242188,-175.35499572753906 86.51100158691406,-192.8090057373047 106.99800109863281,-186.41099548339844 C124.28399658203125,-181.01300048828125 129.18299865722656,-159.4720001220703 120.38300323486328,-147.0709991455078 C113.2249984741211,-136.98399353027344 100.21800231933594,-136.61399841308594 100.21800231933594,-136.61399841308594 C100.21800231933594,-136.61399841308594 68.3479995727539,-154.3459930419922 76.95700073242188,-175.35499572753906z"></path></g></g></g><g style="display: block;" transform="matrix(1,0,0,1,255.9998779296875,255.99960327148438)" opacity="1"><g opacity="1" transform="matrix(1,0,0,1,0,0)"><g opacity="1" transform="matrix(1,0,0,1,0,0)"><path fill="url(#__lottie_element_72)" fill-opacity="1" d=" M1.9789999723434448,-190.75999450683594 C1.9789999723434448,-190.75999450683594 -7.435999870300293,-224.9550018310547 -45.277000427246094,-222.96299743652344 C-82.32099914550781,-221.01300048828125 -95.46099853515625,-186.0240020751953 -85.552001953125,-160.6020050048828 C-82.27799987792969,-152.20199584960938 -76.71199798583984,-146.04800415039062 -71.05500030517578,-141.99899291992188 C-61.270999908447266,-134.9949951171875 -14.081999778747559,-142.9949951171875 -14.081999778747559,-142.9949951171875 C-14.081999778747559,-142.9949951171875 6.11899995803833,-174.75 1.9789999723434448,-190.75999450683594z"></path></g><g opacity="1" transform="matrix(1,0,0,1,0,0)"><path fill="url(#__lottie_element_73)" fill-opacity="1" d=" M-14.6899995803833,-149.99899291992188 C1,-218.5 -61.75,-236.5 -86.57599639892578,-192.18099975585938 C-67,-241.25 -7.25,-225 2.2249999046325684,-191.01100158691406 C5.25,-176.25 -7.75,-154.5 -14.6899995803833,-149.99899291992188z"></path></g><g opacity="1" transform="matrix(1,0,0,1,0,0)"><path stroke-linecap="round" stroke-linejoin="round" fill-opacity="0" stroke="rgb(133,83,33)" stroke-opacity="1" stroke-width="8" d=" M1.9789999723434448,-190.75999450683594 C1.9789999723434448,-190.75999450683594 -7.427000045776367,-224.7760009765625 -45.277000427246094,-222.96299743652344 C-86.25,-221 -105.5,-169.5 -71.05500030517578,-141.99899291992188 C-61.270999908447266,-134.9949951171875 -14.081999778747559,-142.9949951171875 -14.081999778747559,-142.9949951171875 C-14.081999778747559,-142.9949951171875 6.11899995803833,-174.75 1.9789999723434448,-190.75999450683594z"></path></g><g opacity="1" transform="matrix(1,0,0,1,0,0)"><path fill="url(#__lottie_element_74)" fill-opacity="1" d=" M-17.8439998626709,-185.3090057373047 C-17.8439998626709,-185.3090057373047 -22.398000717163086,-204.60699462890625 -44.297000885009766,-203.3350067138672 C-62.821998596191406,-202.25900268554688 -72.36299896240234,-182.5959930419922 -66.84100341796875,-168.42799377441406 C-62.3489990234375,-156.9029998779297 -49.821998596191406,-153.38400268554688 -49.821998596191406,-153.38400268554688 C-49.821998596191406,-153.38400268554688 -14.598999977111816,-162.83700561523438 -17.8439998626709,-185.3090057373047z"></path><path stroke-linecap="round" stroke-linejoin="round" fill-opacity="0" stroke="rgb(129,87,30)" stroke-opacity="1" stroke-width="8" d=" M-17.8439998626709,-185.3090057373047 C-17.8439998626709,-185.3090057373047 -22.398000717163086,-204.60699462890625 -44.297000885009766,-203.3350067138672 C-62.821998596191406,-202.25900268554688 -72.36299896240234,-182.5959930419922 -66.84100341796875,-168.42799377441406 C-62.3489990234375,-156.9029998779297 -49.821998596191406,-153.38400268554688 -49.821998596191406,-153.38400268554688 C-49.821998596191406,-153.38400268554688 -14.598999977111816,-162.83700561523438 -17.8439998626709,-185.3090057373047z"></path></g></g></g><g style="display: block;" transform="matrix(1,0,0,1,256,256)" opacity="1"><g opacity="1" transform="matrix(0.9104499816894531,0,0,1,0,0)"><path fill="url(#__lottie_element_33)" fill-opacity="1" d=" M-73.23699951171875,-16.68600082397461 C-81.27899932861328,-3 -107.3219985961914,43.5620002746582 -112.51100158691406,99.16500091552734 C-117.86599731445312,156.54200744628906 -98.13600158691406,186.0780029296875 -4.635000228881836,187.7239990234375 C87.8759994506836,189.35299682617188 113.13099670410156,159.0590057373047 108.802001953125,102.68399810791016 C104.43900299072266,45.86600112915039 84.22000122070312,7.127999782562256 75.06099700927734,-13.685999870300293 C58.2130012512207,-61.5 -52.172000885009766,-68.5 -73.23699951171875,-16.68600082397461z"></path></g><g opacity="1" transform="matrix(1,0,0,1,0,0)"><path fill="url(#__lottie_element_34)" fill-opacity="0.6" d=" M-4.446000099182129,187.72500610351562 C-89.98600006103516,186.0749969482422 -108.76599884033203,156.47799682617188 -103.13600158691406,99.16500091552734 C-100.73200225830078,74.68800354003906 -99.38099670410156,62.10300064086914 -86.6709976196289,41.08599853515625 C-104.5,104.25 -63.5,102.75 -45.516998291015625,135.3800048828125 C-30.68899917602539,162.28599548339844 21.594999313354492,174.25100708007812 46.645999908447266,140.97300720214844 C61.731998443603516,120.93199920654297 98.58799743652344,119.16600036621094 93.9540023803711,65.61499786376953 C96.49400329589844,77.66500091552734 98.46399688720703,90.24500274658203 99.34400177001953,102.68499755859375 C103.30400085449219,159.05499267578125 80.19400024414062,189.35499572753906 -4.446000099182129,187.72500610351562z"></path></g><g opacity="1" transform="matrix(1,0,0,1,0,0)"><path stroke-linecap="round" stroke-linejoin="round" fill-opacity="0" stroke="rgb(86,50,17)" stroke-opacity="0.3" stroke-width="5" d=" M-86.46199798583984,41.599998474121094 C-86.46199798583984,41.599998474121094 -103.5,102.25 -81.47699737548828,164.44700622558594"></path></g><g opacity="1" transform="matrix(1,0,0,1,0,0)"><g opacity="1" transform="matrix(1,0,0,1,0,0)"><g opacity="1" transform="matrix(0.9246900081634521,0,0,1,0,0)"><path fill="url(#__lottie_element_35)" fill-opacity="1" d=" M11.753000259399414,18.024999618530273 C-24.48900032043457,14.958999633789062 -56.0989990234375,41.12699890136719 -59.861000061035156,89.27799987792969 C-63.619998931884766,137.3990020751953 -31.836999893188477,158.66200256347656 2.071000099182129,160.39700317382812 C37.952999114990234,162.23300170898438 65.4739990234375,135.4759979248047 65.58899688720703,91.12699890136719 C65.697998046875,49.09400177001953 42.729000091552734,20.645000457763672 11.753000259399414,18.024999618530273z"></path><path stroke-linecap="butt" stroke-linejoin="miter" fill-opacity="0" stroke-miterlimit="4" stroke="rgb(150,104,44)" stroke-opacity="1" stroke-width="8" d=" M11.753000259399414,18.024999618530273 C-24.48900032043457,14.958999633789062 -56.0989990234375,41.12699890136719 -59.861000061035156,89.27799987792969 C-63.619998931884766,137.3990020751953 -31.836999893188477,158.66200256347656 2.071000099182129,160.39700317382812 C37.952999114990234,162.23300170898438 65.4739990234375,135.4759979248047 65.58899688720703,91.12699890136719 C65.697998046875,49.09400177001953 42.729000091552734,20.645000457763672 11.753000259399414,18.024999618530273z"></path></g><g opacity="1" transform="matrix(1,0,0,1,0,0.375)"><path stroke-linecap="round" stroke-linejoin="round" fill-opacity="0" stroke="rgb(118,82,34)" stroke-opacity="1" stroke-width="8.3" d=" M-51.44300079345703,120.4469985961914 C-43.29199981689453,146.80999755859375 -21.201000213623047,159.0959930419922 1.9789999723434448,160.39700317382812 C23.62700080871582,161.61199951171875 41.93600082397461,150.30099487304688 51.87300109863281,129.6540069580078"></path></g></g><g opacity="1" transform="matrix(1,0,0,1,0,0)"><g opacity="1" transform="matrix(1,0,0,1,0,0)"><path stroke-linecap="round" stroke-linejoin="round" fill-opacity="0" stroke="rgb(86,50,17)" stroke-opacity="0.3" stroke-width="5" d=" M-3.0390000343322754,178.7550048828125 C-5.122000217437744,183.83799743652344 -7.436999797821045,187.04800415039062 -9.963000297546387,187.78700256347656"></path></g><g opacity="1" transform="matrix(1,0,0,1,0,0)"><path stroke-linecap="round" stroke-linejoin="round" fill-opacity="0" stroke="rgb(86,50,17)" stroke-opacity="0.3" stroke-width="5" d=" M2.4660000801086426,159.66299438476562 C1.7630000114440918,163.2550048828125 1.0130000114440918,165.6020050048828 0.2160000056028366,168.65499877929688"></path></g><g opacity="1" transform="matrix(1,0,0,1,0,0)"><path stroke-linecap="round" stroke-linejoin="round" fill-opacity="0" stroke="rgb(86,50,17)" stroke-opacity="0.3" stroke-width="5" d=" M5.7230000495910645,138.73599243164062 C5.276000022888184,142.3489990234375 4.794000148773193,144.8520050048828 4.2769999504089355,148.21400451660156"></path></g><g opacity="1" transform="matrix(1,0,0,1,0,0)"><g opacity="1" transform="matrix(1,0,0,1,0,0)"><path stroke-linecap="round" stroke-linejoin="round" fill-opacity="0" stroke="rgb(86,50,17)" stroke-opacity="0.3" stroke-width="5" d=" M9.208999633789062,94.74400329589844 C9.060999870300293,98.33100128173828 8.883000373840332,100.91999816894531 8.673999786376953,104.48799896240234"></path></g><path stroke-linecap="round" stroke-linejoin="round" fill-opacity="0" stroke="rgb(86,50,17)" stroke-opacity="0.3" stroke-width="5" d=" M7.828999996185303,117.75599670410156 C7.565000057220459,121.0780029296875 7.2729997634887695,123.35900115966797 6.955999851226807,126.58300018310547"></path></g><g opacity="1" transform="matrix(1,0,0,1,0,0)"><path stroke-linecap="round" stroke-linejoin="round" fill-opacity="0" stroke="rgb(86,50,17)" stroke-opacity="0.3" stroke-width="5" d=" M9.699000358581543,75.66300201416016 C9.666999816894531,78.91799926757812 9.607000350952148,81.20600128173828 9.520000457763672,84.51100158691406"></path></g><g opacity="1" transform="matrix(1,0,0,1,0,0)"><path stroke-linecap="round" stroke-linejoin="round" fill-opacity="0" stroke="rgb(86,50,17)" stroke-opacity="0.3" stroke-width="5" d=" M9.541000366210938,56.05699920654297 C9.62399959564209,59.08000183105469 9.678999900817871,61.16999816894531 9.706000328063965,64.31099700927734"></path></g><g opacity="1" transform="matrix(1,0,0,1,0,0)"><path stroke-linecap="round" stroke-linejoin="round" fill-opacity="0" stroke="rgb(86,50,17)" stroke-opacity="0.3" stroke-width="5" d=" M8.729999542236328,37.277000427246094 C8.916000366210938,39.85300064086914 9.074999809265137,42.518001556396484 9.208000183105469,45.2599983215332"></path></g><g opacity="1" transform="matrix(1,0,0,1,0,0)"><path stroke-linecap="round" stroke-linejoin="round" fill-opacity="0" stroke="rgb(86,50,17)" stroke-opacity="0.3" stroke-width="5" d=" M0.5249999761581421,2.0269999504089355 C3.2750000953674316,4.677000045776367 7.638999938964844,24.538999557495117 7.956999778747559,27.527000427246094"></path></g></g></g><g opacity="1" transform="matrix(1.7427741289138794,-0.018281375989317894,0.010489236563444138,0.9999449849128723,-3.8993935585021973,0.07799530029296875)"><path fill="url(#__lottie_element_36)" fill-opacity="0.6" d=" M-36.15599822998047,-17.118999481201172 C-37.13100051879883,-13.506999969482422 -55.125,44.35300064086914 -58,99.98999786376953 C-60.965999603271484,157.40199279785156 60.67300033569336,158.281005859375 58.5369987487793,101.93900299072266 C56.38399887084961,45.154998779296875 42.20800018310547,-11.27400016784668 41.066001892089844,-14.187000274658203 C28.305999755859375,-65.06500244140625 -24.621999740600586,-66.03099822998047 -36.15599822998047,-17.118999481201172z"></path></g><g opacity="1" transform="matrix(1,0,0,1,0,0)"><path stroke-linecap="round" stroke-linejoin="round" fill-opacity="0" stroke="rgb(85,48,14)" stroke-opacity="1" stroke-width="8" d=" M-67.20700073242188,-16.68600082397461 C-70.75,-10.5 -98.39199829101562,43.5620002746582 -103.13899993896484,99.16500091552734 C-108.03800201416016,156.54200744628906 -89.98699951171875,186.0780029296875 -4.441999912261963,187.7239990234375 C80.1969985961914,189.35299682617188 103.30400085449219,159.0590057373047 99.34300231933594,102.68399810791016 C95.35099792480469,45.86600112915039 69.19599914550781,-11.621999740600586 68.4729995727539,-13.685999870300293 C46.5,-66.25 -48.75,-65.25 -67.20700073242188,-16.68600082397461z"></path></g><g opacity="1" transform="matrix(1,0,0,1,0,0)"><path stroke-linecap="round" stroke-linejoin="round" fill-opacity="0" stroke="rgb(64,33,8)" stroke-opacity="1" stroke-width="8" d=" M-88.00800323486328,164.03700256347656 C-73.47100067138672,178.9980010986328 -47.5099983215332,186.89500427246094 -4.441999912261963,187.7239990234375 C41.698001861572266,188.61199951171875 69.5510025024414,180.01400756835938 84.7030029296875,162.875"></path></g></g><g style="display: block;" transform="matrix(1,0,0,1,256,256)" opacity="1"><g opacity="1" transform="matrix(1,0,0,1,0,0)"><path fill="url(#__lottie_element_65)" fill-opacity="1" d=" M-68.41100311279297,-8.64900016784668 C-83.74600219726562,-21.8799991607666 -139.19200134277344,10.652000427246094 -173.39999389648438,35.81800079345703 C-203.18099975585938,57.72700119018555 -214.23899841308594,84.55000305175781 -195.3719940185547,99.33100128173828 C-179.31300354003906,111.91200256347656 -144.11300659179688,101.12300109863281 -111.6729965209961,70.64600372314453 C-96.29100036621094,56.19499969482422 -53.75,4 -68.41100311279297,-8.64900016784668z"></path></g><g opacity="1" transform="matrix(1,0,0,1,0,0)"><path fill="url(#__lottie_element_66)" fill-opacity="0.6" d=" M-76.14600372314453,25.16900062561035 C-84.03800201416016,37.52399826049805 -140.5,123 -195.37600708007812,99.3290023803711 C-195.5959930419922,99.14900207519531 -144.63499450683594,83.54900360107422 -110.2750015258789,48.21900177001953 C-72.15499877929688,9.029000282287598 -75.71199798583984,-18.073999404907227 -108.2750015258789,-3.571000099182129 C-78.5,-18.75 -48.25,-18.5 -76.14600372314453,25.16900062561035z"></path></g><g opacity="1" transform="matrix(1,0,0,1,0,0)"><path fill="url(#__lottie_element_67)" fill-opacity="0.3" d=" M-66.12699890136719,2.7170000076293945 C-73,-18 -160.02699279785156,36.926998138427734 -181.08700561523438,57.887001037597656 C-201.83700561523438,78.5469970703125 -194.64700317382812,100.26699829101562 -194.39700317382812,100.90699768066406 C-215.75,81.75 -201.1909942626953,59.349998474121094 -172.40699768066406,36.14699935913086 C-136.25,7 -63.5,-31.75 -66.12699890136719,2.7170000076293945z"></path></g><g opacity="1" transform="matrix(1,0,0,1,0,0)"><path stroke-linecap="round" stroke-linejoin="round" fill-opacity="0" stroke="rgb(85,48,14)" stroke-opacity="0.2" stroke-width="5" d=" M-64.61699676513672,-2.2730000019073486 C-70.9229965209961,12.734999656677246 -94.60700225830078,40.06800079345703 -122.88800048828125,62.65800094604492 C-146.31700134277344,81.37200164794922 -172.9010009765625,96.83200073242188 -195.3719940185547,99.33100128173828"></path></g><g opacity="1" transform="matrix(1,0,0,1,0,0)"><g opacity="1" transform="matrix(1,0,0,1,0,0)"><path stroke-linecap="round" stroke-linejoin="round" fill-opacity="0" stroke="rgb(133,83,33)" stroke-opacity="1" stroke-width="8" d=" M-68.41100311279297,-8.64900016784668 C-84.5,-22.25 -139.19200134277344,10.652000427246094 -173.39999389648438,35.81800079345703 C-203.18099975585938,57.72700119018555 -214.23899841308594,84.55000305175781 -195.3719940185547,99.33100128173828 C-179.31300354003906,111.91200256347656 -144.11300659179688,101.12300109863281 -111.6729965209961,70.64600372314453 C-96.29100036621094,56.19499969482422 -54.01599884033203,3.5190000534057617 -68.41100311279297,-8.64900016784668z"></path></g><g opacity="1" transform="matrix(1,0,0,1,0,0)"><path stroke-linecap="round" stroke-linejoin="round" fill-opacity="0" stroke="rgb(85,48,14)" stroke-opacity="1" stroke-width="8" d=" M-190.29400634765625,102.28800201416016 C-172.3939971923828,108.01499938964844 -149.41700744628906,100.12000274658203 -127.00800323486328,83.03299713134766 C-105.5469970703125,66.66899871826172 -84.60600280761719,41.875 -69.14600372314453,12.543999671936035 C-58.68899917602539,-7.294000148773193 -71,-15 -86.29399871826172,-11.130000114440918"></path></g><g opacity="0" transform="matrix(1,0,0,1,0,0)"><path stroke-linecap="round" stroke-linejoin="miter" fill-opacity="0" stroke-miterlimit="4" stroke="rgb(133,83,33)" stroke-opacity="1" stroke-width="8" d=" M-164.2010040283203,2.259999990463257 C-153.2469940185547,5.992000102996826 -144.2899932861328,15.996999740600586 -144.0989990234375,15.991000175476074"></path></g></g></g><g style="display: none;"><g><path fill="url(#__lottie_element_59)"></path></g><g><path fill="url(#__lottie_element_60)"></path></g><g><path fill="url(#__lottie_element_61)"></path></g><g><path stroke-linecap="round" stroke-linejoin="round" fill-opacity="0"></path></g><g><path stroke-linecap="round" stroke-linejoin="round" fill-opacity="0"></path></g><g><path stroke-linecap="round" stroke-linejoin="round" fill-opacity="0"></path></g><g><path stroke-linecap="round" stroke-linejoin="miter" fill-opacity="0" stroke-miterlimit="4"></path></g></g><g style="display: block;" transform="matrix(1,0,0,1,256,256)" opacity="1"><g opacity="1" transform="matrix(1,0,0,1,0,0)"><path fill="url(#__lottie_element_39)" fill-opacity="1" d=" M32.98099899291992,-195.031005859375 C-29.256000518798828,-203.4429931640625 -91.88800048828125,-143.80999755859375 -98.7229995727539,-82.76499938964844 C-105.85600280761719,-19.059999465942383 -53.92100143432617,10.048999786376953 5.4039998054504395,16.974000930786133 C67.23500061035156,24.19099998474121 122.22799682617188,2.328000068664551 130.20599365234375,-56.89500045776367 C138.1750030517578,-116.052001953125 93.2770004272461,-186.88099670410156 32.98099899291992,-195.031005859375z"></path><path stroke-linecap="round" stroke-linejoin="round" fill-opacity="0" stroke="rgb(133,83,33)" stroke-opacity="1" stroke-width="8" d=" M32.98099899291992,-195.031005859375 C-29.256000518798828,-203.4429931640625 -91.88800048828125,-143.80999755859375 -98.7229995727539,-82.76499938964844 C-105.85600280761719,-19.059999465942383 -53.92100143432617,10.048999786376953 5.4039998054504395,16.974000930786133 C67.23500061035156,24.19099998474121 122.22799682617188,2.328000068664551 130.20599365234375,-56.89500045776367 C138.1750030517578,-116.052001953125 93.2770004272461,-186.88099670410156 32.98099899291992,-195.031005859375z"></path></g><g opacity="1" transform="matrix(1,0,0,1,0,0)"><path fill="url(#__lottie_element_40)" fill-opacity="1" d=" M31.45199966430664,-183.9250030517578 C-21.586000442504883,-190.21499633789062 -74.95899963378906,-145.62399291992188 -80.78399658203125,-99.97699737548828 C-86.86299896240234,-52.340999603271484 -42.60499954223633,-30.575000762939453 7.951000213623047,-25.39699935913086 C60.641998291015625,-20 107.50800323486328,-36.3489990234375 114.30599975585938,-80.63300323486328 C121.09700012207031,-124.86799621582031 82.83599853515625,-177.83099365234375 31.45199966430664,-183.9250030517578z"></path></g><g opacity="1" transform="matrix(1,0,0,1,0,0)"><path fill="url(#__lottie_element_41)" fill-opacity="0.4" d=" M94.84600067138672,-128.125 C93.30000305175781,-105.74700164794922 59.20100021362305,-89.875 18.684999465942383,-92.67400360107422 C-21.83099937438965,-95.4729995727539 -53.42300033569336,-115.88500213623047 -51.87699890136719,-138.26300048828125 C-50.33100128173828,-160.64100646972656 -14.503999710083008,-187.1300048828125 26.011999130249023,-184.33099365234375 C66.52799987792969,-181.531005859375 96.39199829101562,-150.5030059814453 94.84600067138672,-128.125z"></path></g><g opacity="0.3" transform="matrix(1,0,0,1,0,0)"><g opacity="1" transform="matrix(1,0,0,1,0,0)"><path stroke-linecap="round" stroke-linejoin="round" fill-opacity="0" stroke="rgb(133,83,33)" stroke-opacity="1" stroke-width="5" d=" M63.28099822998047,-84.42500305175781 C63.25400161743164,-80.1520004272461 63.40399932861328,-75.71800231933594 63.7599983215332,-71.12300109863281"></path></g><g opacity="1" transform="matrix(1,0,0,1,0,0)"><path stroke-linecap="round" stroke-linejoin="round" fill-opacity="0" stroke="rgb(133,83,33)" stroke-opacity="1" stroke-width="5" d=" M65.08300018310547,-106.58699798583984 C64.52300262451172,-103.08300018310547 64.07599639892578,-99.42900085449219 63.766998291015625,-95.6240005493164"></path></g><g opacity="1" transform="matrix(1,0,0,1,0,0)"><path stroke-linecap="round" stroke-linejoin="round" fill-opacity="0" stroke="rgb(133,83,33)" stroke-opacity="1" stroke-width="5" d=" M70.39900207519531,-128.26600646972656 C69.23100280761719,-124.7969970703125 68.14800262451172,-121.09100341796875 67.19599914550781,-117.1500015258789"></path></g><g opacity="1" transform="matrix(1,0,0,1,0,0)"><path stroke-linecap="round" stroke-linejoin="round" fill-opacity="0" stroke="rgb(133,83,33)" stroke-opacity="1" stroke-width="5" d=" M78.53299713134766,-147.16200256347656 C77.15299987792969,-144.58299255371094 75.75299835205078,-141.73300170898438 74.38999938964844,-138.61500549316406"></path></g><g opacity="1" transform="matrix(1,0,0,1,0,0)"><path stroke-linecap="round" stroke-linejoin="round" fill-opacity="0" stroke="rgb(133,83,33)" stroke-opacity="1" stroke-width="5" d=" M91.4010009765625,-166.2169952392578 C91.4010009765625,-166.2169952392578 88.052001953125,-162.76600646972656 83.68699645996094,-156.01199340820312"></path></g><g opacity="1" transform="matrix(1,0,0,1,0,0)"><path stroke-linecap="round" stroke-linejoin="round" fill-opacity="0" stroke="rgb(133,83,33)" stroke-opacity="1" stroke-width="5" d=" M-22.361000061035156,-93.13400268554688 C-22.600000381469727,-89.68800354003906 -22.892000198364258,-86.10600280761719 -23.240999221801758,-82.38099670410156"></path></g><g opacity="1" transform="matrix(1,0,0,1,0,0)"><path stroke-linecap="round" stroke-linejoin="round" fill-opacity="0" stroke="rgb(133,83,33)" stroke-opacity="1" stroke-width="5" d=" M-21.506000518798828,-113.8489990234375 C-21.542999267578125,-110.12699890136719 -21.652000427246094,-106.19400024414062 -21.8439998626709,-102.04000091552734"></path></g><g opacity="1" transform="matrix(1,0,0,1,0,0)"><path stroke-linecap="round" stroke-linejoin="round" fill-opacity="0" stroke="rgb(133,83,33)" stroke-opacity="1" stroke-width="5" d=" M-22.503000259399414,-138.61500549316406 C-22.134000778198242,-134.95799255371094 -21.85099983215332,-130.9739990234375 -21.68000030517578,-126.63300323486328"></path></g><g opacity="1" transform="matrix(1,0,0,1,0,0)"><path stroke-linecap="round" stroke-linejoin="round" fill-opacity="0" stroke="rgb(133,83,33)" stroke-opacity="1" stroke-width="5" d=" M-26.78700065612793,-161.11500549316406 C-25.808000564575195,-157.98699951171875 -24.884000778198242,-154.31199645996094 -24.091999053955078,-149.99899291992188"></path></g><g opacity="1" transform="matrix(1,0,0,1,0,0)"><path stroke-linecap="round" stroke-linejoin="round" fill-opacity="0" stroke="rgb(133,83,33)" stroke-opacity="1" stroke-width="5" d=" M-36.74700164794922,-178.17300415039062 C-36.74700164794922,-178.17300415039062 -33.926998138427734,-176.65699768066406 -30.711999893188477,-170.6959991455078"></path></g></g><g opacity="1" transform="matrix(1,0,0,1,0,0)"><path stroke-linecap="round" stroke-linejoin="round" fill-opacity="0" stroke="rgb(85,48,14)" stroke-opacity="1" stroke-width="8" d=" M-96.38700103759766,-48.80099868774414 C-84.93299865722656,-8.371000289916992 -42.137001037597656,11.425000190734863 5.4039998054504395,16.974000930786133 C53.62799835205078,22.60300064086914 97.69300079345703,10.541999816894531 118.53700256347656,-23.136999130249023"></path></g></g><g style="display: block;" transform="matrix(1,0,0,1,255.99974060058594,255.99966430664062)" opacity="1"><g opacity="1" transform="matrix(1,0,0,1,0,0)"><g opacity="1" transform="matrix(1,0,0,1,0,0)"><path fill="rgb(16,20,28)" fill-opacity="1" d=" M74.7300033569336,-64.27899932861328 C74.7300033569336,-55.95600128173828 67.98200225830078,-49.20800018310547 59.659000396728516,-49.20800018310547 C51.334999084472656,-49.20800018310547 44.5880012512207,-55.95600128173828 44.5880012512207,-64.27899932861328 C44.5880012512207,-72.60299682617188 51.334999084472656,-79.3499984741211 59.659000396728516,-79.3499984741211 C67.98200225830078,-79.3499984741211 74.7300033569336,-72.60299682617188 74.7300033569336,-64.27899932861328z"></path></g><g opacity="1" transform="matrix(1,0,0,1,0,0)"><path fill="url(#__lottie_element_52)" fill-opacity="1" d=" M59.38399887084961,-61.611000061035156 C55.64699935913086,-61.96099853515625 52.237998962402344,-64.77100372314453 50.30799865722656,-62.47999954223633 C48.37799835205078,-60.18899917602539 52.40999984741211,-53.34299850463867 59.4010009765625,-53.17100143432617 C66.39199829101562,-52.999000549316406 71.06999969482422,-59.0359992980957 68.92400360107422,-61.58700180053711 C66.77799987792969,-64.13800048828125 63.051998138427734,-61.266998291015625 59.38399887084961,-61.611000061035156z"></path></g><g opacity="1" transform="matrix(1,0,0,1,0,0)"><path fill="url(#__lottie_element_53)" fill-opacity="1" d=" M61.367000579833984,-75.33100128173828 C56.35900115966797,-75.677001953125 54.42499923706055,-70.12200164794922 60.189998626708984,-69.18199920654297 C66.85099792480469,-68.09600067138672 66.91200256347656,-74.947998046875 61.367000579833984,-75.33100128173828z"></path></g></g><g opacity="1" transform="matrix(1,0,0,1,0,0)"><g opacity="1" transform="matrix(1,0,0,1,0,0)"><path fill="rgb(16,20,28)" fill-opacity="1" d=" M-9.354000091552734,-73.91799926757812 C-9.354000091552734,-65.4469985961914 -16.222000122070312,-58.57899856567383 -24.69300079345703,-58.57899856567383 C-33.16400146484375,-58.57899856567383 -40.03200149536133,-65.4469985961914 -40.03200149536133,-73.91799926757812 C-40.03200149536133,-82.38899993896484 -33.16400146484375,-89.25700378417969 -24.69300079345703,-89.25700378417969 C-16.222000122070312,-89.25700378417969 -9.354000091552734,-82.38899993896484 -9.354000091552734,-73.91799926757812z"></path></g><g opacity="1" transform="matrix(1,0,0,1,0,0)"><path fill="url(#__lottie_element_54)" fill-opacity="1" d=" M-24.759000778198242,-71.30799865722656 C-28.496999740600586,-71.6510009765625 -31.910999298095703,-74.4520034790039 -33.83700180053711,-72.15699768066406 C-35.76300048828125,-69.86199951171875 -31.715999603271484,-63.025001525878906 -24.724000930786133,-62.867000579833984 C-17.73200035095215,-62.70899963378906 -13.067999839782715,-68.75800323486328 -15.218999862670898,-71.30400085449219 C-17.3700008392334,-73.8499984741211 -21.09000015258789,-70.97200012207031 -24.759000778198242,-71.30799865722656z"></path></g><g opacity="1" transform="matrix(1,0,0,1,0,0)"><path fill="url(#__lottie_element_55)" fill-opacity="1" d=" M-22.80500030517578,-85.03199768066406 C-27.81399917602539,-85.36799621582031 -29.736000061035156,-79.80799865722656 -23.9689998626709,-78.87999725341797 C-17.305999755859375,-77.80799865722656 -17.259000778198242,-84.66000366210938 -22.80500030517578,-85.03199768066406z"></path></g></g></g><g style="display: block;" transform="matrix(1,0,0,1,255.99974060058594,255.99966430664062)" opacity="1"><g opacity="1" transform="matrix(1,0,0,1,0,0)"><path fill="url(#__lottie_element_45)" fill-opacity="1" d=" M15.753000259399414,-67.86199951171875 C-16.386999130249023,-71.13700103759766 -51.590999603271484,-43.00600051879883 -40.92900085449219,-16.236000061035156 C-29.73200035095215,11.876999855041504 47.81999969482422,15.930999755859375 62.983001708984375,-3.8359999656677246 C79.15699768066406,-24.920000076293945 57.30699920654297,-63.62799835205078 15.753000259399414,-67.86199951171875z"></path><path stroke-linecap="butt" stroke-linejoin="miter" fill-opacity="0" stroke-miterlimit="4" stroke="rgb(141,96,47)" stroke-opacity="1" stroke-width="8" d=" M15.753000259399414,-67.86199951171875 C-16.386999130249023,-71.13700103759766 -51.590999603271484,-43.00600051879883 -40.92900085449219,-16.236000061035156 C-29.73200035095215,11.876999855041504 47.81999969482422,15.930999755859375 62.983001708984375,-3.8359999656677246 C79.15699768066406,-24.920000076293945 57.30699920654297,-63.62799835205078 15.753000259399414,-67.86199951171875z"></path></g><g opacity="1" transform="matrix(1,0,0,1,0,0)"><path stroke-linecap="round" stroke-linejoin="round" fill-opacity="0" stroke="rgb(188,148,82)" stroke-opacity="0.5" stroke-width="8" d=" M64.2979965209961,-36.49300003051758 C56.85599899291992,-51.729000091552734 39.529998779296875,-65.43900299072266 15.753000259399414,-67.86199951171875 C-4.335000038146973,-69.90899658203125 -25.618999481201172,-59.6879997253418 -36.15399932861328,-45.19900131225586"></path></g><g opacity="1" transform="matrix(1,0,0,1,0,0)"><g opacity="0" transform="matrix(1,0,0,1,0,0)"><path fill="url(#__lottie_element_46)" fill-opacity="1" d=" M12.913000106811523,-25.701000213623047 C8.694000244140625,-21.048999786376953 7.328999996185303,-19.57900047302246 3.7669999599456787,-18.680999755859375 C8.640000343322754,-14.28499984741211 16.441999435424805,-14.762999534606934 20.32699966430664,-17.7189998626709 C16.97100067138672,-18.514999389648438 15.619000434875488,-20.90999984741211 12.913000106811523,-25.701000213623047z"></path><path stroke-linecap="round" stroke-linejoin="round" fill-opacity="0" stroke="rgb(61,34,12)" stroke-opacity="1" stroke-width="5.5" d=" M12.913000106811523,-25.701000213623047 C8.694000244140625,-21.048999786376953 7.328999996185303,-19.57900047302246 3.7669999599456787,-18.680999755859375 C8.640000343322754,-14.28499984741211 16.441999435424805,-14.762999534606934 20.32699966430664,-17.7189998626709 C16.97100067138672,-18.514999389648438 15.619000434875488,-20.90999984741211 12.913000106811523,-25.701000213623047z"></path></g><g opacity="1" transform="matrix(1,0,0,1,0,0)"><path stroke-linecap="round" stroke-linejoin="round" fill-opacity="0" stroke="rgb(103,59,22)" stroke-opacity="1" stroke-width="6" d=" M-18.5939998626709,-14.489999771118164 C-12.614999771118164,-6.249000072479248 -0.22699999809265137,-3.484999895095825 6.982999801635742,-8.64900016784668 C11.793999671936035,-12.093999862670898 13.121000289916992,-19.347000122070312 13.03499984741211,-29.836999893188477"></path></g><g opacity="1" transform="matrix(1,0,0,1,0,0)"><path stroke-linecap="round" stroke-linejoin="round" fill-opacity="0" stroke="rgb(103,59,22)" stroke-opacity="1" stroke-width="6" d=" M41.64799880981445,-8.61299991607666 C36.875,-2.375 8.625,1.5 12.878999710083008,-22.88800048828125"></path></g><g opacity="1" transform="matrix(1,0,0,1,0,0)"><g opacity="1" transform="matrix(1,0,0,1,0,0)"><path fill="url(#__lottie_element_47)" fill-opacity="1" d=" M15.300000190734863,-58.95000076293945 C5.7870001792907715,-59.80400085449219 -2.575000047683716,-57.89899826049805 -2.5999999046325684,-51.395999908447266 C-2.625,-44.84299850463867 8.883999824523926,-32.96900177001953 13.61400032043457,-32.457000732421875 C19,-31.875 31.854999542236328,-43.49700164794922 32.617000579833984,-49.2130012512207 C33.37900161743164,-54.92900085449219 24.194000244140625,-58.152000427246094 15.300000190734863,-58.95000076293945z"></path><path stroke-linecap="butt" stroke-linejoin="miter" fill-opacity="0" stroke-miterlimit="4" stroke="rgb(16,20,28)" stroke-opacity="1" stroke-width="8" d=" M15.300000190734863,-58.95000076293945 C5.7870001792907715,-59.80400085449219 -2.575000047683716,-57.89899826049805 -2.5999999046325684,-51.395999908447266 C-2.625,-44.84299850463867 8.883999824523926,-32.96900177001953 13.61400032043457,-32.457000732421875 C19,-31.875 31.854999542236328,-43.49700164794922 32.617000579833984,-49.2130012512207 C33.37900161743164,-54.92900085449219 24.194000244140625,-58.152000427246094 15.300000190734863,-58.95000076293945z"></path></g><g opacity="1" transform="matrix(1,0,0,1,0,0)"><path fill="url(#__lottie_element_48)" fill-opacity="0.6" d=" M26.809999465942383,-46.54100036621094 C31.812999725341797,-51 23.878999710083008,-54.4379997253418 15.470000267028809,-54.97700119018555 C0.5,-55.9370002746582 0.875,-51.5 2.75600004196167,-48.56399917602539 C3.25,-50.8129997253418 7.828000068664551,-50.862998962402344 15.145000457763672,-50.26900100708008 C22.312999725341797,-49.6870002746582 27.125,-48.5 26.809999465942383,-46.54100036621094z"></path></g></g></g></g><g style="display: block;" transform="matrix(-1,0,0,1,252.87600708007812,252.25)" opacity="1"><g opacity="1" transform="matrix(1,0,0,1,0,0)"><path fill="url(#__lottie_element_26)" fill-opacity="1" d=" M92.08300018310547,123.71900177001953 C102.375,126.14299774169922 107.31099700927734,127.33599853515625 109.06800079345703,126.58300018310547 C110.82499694824219,125.83000183105469 127.89299774169922,92.24199676513672 155.64100646972656,92.09500122070312 C186.4929962158203,91.93099975585938 214.7570037841797,121.77300262451172 206.13299560546875,154.69500732421875 C198.3470001220703,184.41900634765625 167.95899963378906,208.14500427246094 139.5760040283203,206.1439971923828 C105.625,203.75 71.03700256347656,183.76499938964844 61.24800109863281,174.2270050048828 C47.125,162.125 57.9370002746582,119.43800354003906 92.08300018310547,123.71900177001953z"></path></g><g opacity="1" transform="matrix(1,0,0,1,0,0)"><path fill="url(#__lottie_element_27)" fill-opacity="0.6" d=" M60.70100021362305,174.5019989013672 C70.4000015258789,183.95199584960938 105.375,203.75 138.3699951171875,206.14300537109375 C163.85000610351562,207.99099731445312 190.9550018310547,188.49099731445312 201.57200622558594,163.25399780273438 C127,60 125.43000030517578,163.28199768066406 96.59300231933594,159.38999938964844 C69.625,155.75 64.93800354003906,146.43699645996094 70.21499633789062,128.76100158691406 C55.6879997253418,138.43699645996094 51.00199890136719,165.04200744628906 60.70100021362305,174.5019989013672z"></path></g><g opacity="1" transform="matrix(1,0,0,1,0,0)"><path stroke-linecap="round" stroke-linejoin="round" fill-opacity="0" stroke="rgb(132,82,33)" stroke-opacity="1" stroke-width="8" d=" M92.08300018310547,123.71900177001953 C102.375,126.14299774169922 107.98799896240234,128.16000366210938 109.06800079345703,126.58300018310547 C112.375,121.75 127.89299774169922,92.24199676513672 155.64100646972656,92.09500122070312 C186.4929962158203,91.93099975585938 214.7570037841797,121.77300262451172 206.13299560546875,154.69500732421875 C198.3470001220703,184.41900634765625 167.95899963378906,208.14500427246094 139.5760040283203,206.1439971923828 C105.625,203.75 71.03700256347656,183.76499938964844 61.24800109863281,174.2270050048828 C46.375,160.125 58.9370002746582,118.43800354003906 92.08300018310547,123.71900177001953z"></path></g><g opacity="1" transform="matrix(1,0,0,1,0,0)"><path stroke-linecap="round" stroke-linejoin="round" fill-opacity="0" stroke="rgb(92,49,10)" stroke-opacity="0.7000000000000001" stroke-width="8" d=" M202.7010040283203,164.36700439453125 C191.56199645996094,189.03900146484375 164.781005859375,207.9080047607422 139.5760040283203,206.1439971923828 C105.375,203.75 72.17900085449219,182.4320068359375 61.24800109863281,174.2270050048828 C45.125,162.125 58.5,110.75 104.33300018310547,126.46900177001953"></path></g><g opacity="1" transform="matrix(1,0,0,1,0,0)"><path stroke-linecap="round" stroke-linejoin="round" fill-opacity="0" stroke="rgb(85,48,14)" stroke-opacity="1" stroke-width="8" d=" M202.7010040283203,164.36700439453125 C191.56199645996094,189.03900146484375 164.76699829101562,208.1060028076172 139.5760040283203,206.1439971923828 C105.625,203.5 71.03700256347656,183.76499938964844 61.24800109863281,174.2270050048828"></path></g><g opacity="1" transform="matrix(1,0,0,1,0,0)"><path stroke-linecap="round" stroke-linejoin="round" fill-opacity="0" stroke="rgb(133,83,33)" stroke-opacity="0.6" stroke-width="8" d=" M109.06800079345703,126.58300018310547 C109.06800079345703,126.58300018310547 105.45500183105469,131.05099487304688 103.3550033569336,144.53700256347656"></path></g></g><g style="display: block;" transform="matrix(-1,0,0,1,252.87600708007812,252.25)" opacity="1"><g opacity="1" transform="matrix(0.80901700258255,0.5877852439880371,-0.5877852439880371,0.80901700258255,124.42558288574219,-64.5396728515625)"><g opacity="1" transform="matrix(0.8332874774932861,-0.6054188013076782,0.6054188013076782,0.8332874774932861,-70.94454956054688,127.8596420288086)"><g opacity="1" transform="matrix(1,0,0,1,0,0)"><path fill="rgb(154,110,58)" fill-opacity="1" d=" M124.78399658203125,134.48399353027344 C143,103.4540023803711 170.375,106.5 188.91700744628906,119.17400360107422 C206.53799438476562,131.218994140625 208.86500549316406,157.88999938964844 196.56700134277344,175.50900268554688 C175.93800354003906,205.06300354003906 144.88900756835938,206.86599731445312 129.40199279785156,192.86900329589844 C114.87000274658203,179.73500061035156 115.125,150.93699645996094 124.78399658203125,134.48399353027344z"></path><path stroke-linecap="round" stroke-linejoin="round" fill-opacity="0" stroke="rgb(104,63,27)" stroke-opacity="1" stroke-width="8" d=" M124.78399658203125,134.48399353027344 C143,103.4540023803711 170.375,106.5 188.91700744628906,119.17400360107422 C206.53799438476562,131.218994140625 208.86500549316406,157.88999938964844 196.56700134277344,175.50900268554688 C175.93800354003906,205.06300354003906 144.88900756835938,206.86599731445312 129.40199279785156,192.86900329589844 C114.87000274658203,179.73500061035156 115.125,150.93699645996094 124.78399658203125,134.48399353027344z"></path></g><g opacity="1" transform="matrix(1,0,0,1,0,0)"><g opacity="1" transform="matrix(1,0,0,1,0,0)"><path fill="rgb(27,20,5)" fill-opacity="1" d=" M193.2779998779297,171.50999450683594 C184.2259979248047,174.74000549316406 174.5469970703125,167.02499389648438 180.57200622558594,157.15699768066406 C184.5,150.72300720214844 197.07899475097656,146.4080047607422 202.32000732421875,155.0590057373047 C206.0749969482422,161.25799560546875 200.27699279785156,169.01199340820312 193.2779998779297,171.50999450683594z"></path></g><g opacity="1" transform="matrix(1,0,0,1,0,0)"><path fill="url(#__lottie_element_19)" fill-opacity="1" d=" M193.9980010986328,164.89100646972656 C211.125,155.15199279785156 193.18699645996094,142.125 180.8730010986328,156.70899963378906 C176.63099670410156,164.05299377441406 185.56300354003906,169.68699645996094 193.9980010986328,164.89100646972656z"></path></g></g><g opacity="1" transform="matrix(1,0,0,1,0,0)"><g opacity="1" transform="matrix(1,0,0,1,0,0)"><path fill="rgb(27,20,5)" fill-opacity="1" d=" M170.61900329589844,128.843994140625 C178.00799560546875,121.51300048828125 190.9810028076172,124.55899810791016 189.5659942626953,136.95799255371094 C188.64300537109375,145.04299926757812 178.2949981689453,155.05999755859375 169.24099731445312,149.052001953125 C162.7530059814453,144.7469940185547 164.90499877929688,134.51300048828125 170.61900329589844,128.843994140625z"></path></g><g opacity="1" transform="matrix(1,0,0,1,0,0)"><path fill="url(#__lottie_element_20)" fill-opacity="1" d=" M165.33900451660156,139.64999389648438 C164.81300354003906,150.81300354003906 185.23199462890625,148.1230010986328 187.4929962158203,133.32400512695312 C189.5,120.18800354003906 166.81300354003906,122.56300354003906 165.33900451660156,139.64999389648438z"></path></g></g><g opacity="1" transform="matrix(1,0,0,1,0,0)"><g opacity="1" transform="matrix(1,0,0,1,0,0)"><path fill="rgb(27,20,5)" fill-opacity="1" d=" M141.1790008544922,126.7750015258789 C144.8820037841797,117.90599822998047 157.10400390625,115.94100189208984 160.3470001220703,127.03900146484375 C162.46099853515625,134.27499389648438 157.18499755859375,146.48199462890625 147.25900268554688,144.53500366210938 C140.14599609375,143.13999938964844 138.31500244140625,133.63299560546875 141.1790008544922,126.7750015258789z"></path></g><g opacity="1" transform="matrix(1,0,0,1,0,0)"><path fill="url(#__lottie_element_21)" fill-opacity="1" d=" M140.0330047607422,131.10000610351562 C139.5,143.18699645996094 158.56199645996094,143 157.53199768066406,124.80899810791016 C157.04600524902344,116.22799682617188 141.5,117.68699645996094 140.0330047607422,131.10000610351562z"></path></g></g><g opacity="1" transform="matrix(1,0,0,1,0,0)"><g opacity="1" transform="matrix(1,0,0,1,0,0)"><path fill="rgb(27,20,5)" fill-opacity="1" d=" M130.4459991455078,167.87600708007812 C130.46800231933594,157.57699584960938 146.73699951171875,148.71400451660156 163.67100524902344,157.49899291992188 C181.468994140625,166.73300170898438 180.57699584960938,188.67100524902344 169.33200073242188,192 C161.02000427246094,194.4600067138672 156.0749969482422,188.7570037841797 149.11399841308594,183.2469940185547 C142.1529998779297,177.73699951171875 130.4239959716797,178.2100067138672 130.4459991455078,167.87600708007812z"></path></g><g opacity="1" transform="matrix(1.496399998664856,0,0,1,-73.28105163574219,0)"><path fill="url(#__lottie_element_22)" fill-opacity="1" d=" M136.71400451660156,169.92799377441406 C138.26699829101562,178.6739959716797 160.15199279785156,174.83900451660156 158.76199340820312,163.97799682617188 C157.61000061035156,154.97799682617188 150.6020050048828,153.69700622558594 147.7220001220703,154.01199340820312 C140.98399353027344,154.75 135.26199340820312,161.75 136.71400451660156,169.92799377441406z"></path></g></g></g></g></g><g style="display: block;" transform="matrix(1,0,0,1,256,256)" opacity="1"><g opacity="1" transform="matrix(1,0,0,1,0,0)"><path fill="url(#__lottie_element_14)" fill-opacity="1" d=" M94.64600372314453,123.78099822998047 C104.93800354003906,126.20500183105469 110.24800109863281,127.33599853515625 112.00499725341797,126.58300018310547 C113.76200103759766,125.83000183105469 127.89299774169922,93.05500030517578 155.64100646972656,92.90799713134766 C186.4929962158203,92.74400329589844 214.7570037841797,121.77300262451172 206.13299560546875,154.69500732421875 C198.3470001220703,184.41900634765625 167.94000244140625,206.4029998779297 139.5760040283203,204.1439971923828 C111.21199798583984,201.88499450683594 75.91200256347656,183.63999938964844 66.12300109863281,174.1020050048828 C52,162 60.5,119.5 94.64600372314453,123.78099822998047z"></path></g><g opacity="1" transform="matrix(1,0,0,1,0,0)"><path fill="url(#__lottie_element_15)" fill-opacity="0.6" d=" M65.57599639892578,174.3769989013672 C75.2750015258789,183.82699584960938 110.25700378417969,201.90699768066406 138.3699951171875,204.14300537109375 C163.83599853515625,206.17799377441406 190.9550018310547,188.49099731445312 201.57200622558594,163.25399780273438 C127,60 125.25,164.25 96.59300231933594,159.20199584960938 C75.5199966430664,155.49000549316406 67.5,146.5 72.7770004272461,128.82400512695312 C58.25,138.5 55.87699890136719,164.91700744628906 65.57599639892578,174.3769989013672z"></path></g><g opacity="1" transform="matrix(1,0,0,1,0,0)"><path stroke-linecap="round" stroke-linejoin="round" fill-opacity="0" stroke="rgb(133,83,33)" stroke-opacity="1" stroke-width="8" d=" M94.64600372314453,123.78099822998047 C104.93800354003906,126.20500183105469 110.24800109863281,127.33599853515625 112.00499725341797,126.58300018310547 C113.76200103759766,125.83000183105469 127.89299774169922,93.05500030517578 155.64100646972656,92.90799713134766 C186.4929962158203,92.74400329589844 214.7570037841797,121.77300262451172 206.13299560546875,154.69500732421875 C198.3470001220703,184.41900634765625 167.94000244140625,206.4029998779297 139.5760040283203,204.1439971923828 C111.21199798583984,201.88499450683594 75.91200256347656,183.63999938964844 66.12300109863281,174.1020050048828 C51.25,160 61.5,118.5 94.64600372314453,123.78099822998047z"></path></g><g opacity="1" transform="matrix(1,0,0,1,0,0)"><path stroke-linecap="round" stroke-linejoin="round" fill-opacity="0" stroke="rgb(93,50,11)" stroke-opacity="0.7000000000000001" stroke-width="8" d=" M202.7010040283203,164.36700439453125 C191.56199645996094,189.03900146484375 164.76300048828125,206.14999389648438 139.5760040283203,204.1439971923828 C111.21199798583984,201.88499450683594 77.05400085449219,182.3070068359375 66.12300109863281,174.1020050048828 C50,162 62.25,114.5 98.02100372314453,124.53099822998047"></path></g><g opacity="1" transform="matrix(1,0,0,1,0,0)"><path stroke-linecap="round" stroke-linejoin="round" fill-opacity="0" stroke="rgb(84,47,13)" stroke-opacity="1" stroke-width="8" d=" M202.7010040283203,164.36700439453125 C191.56199645996094,189.03900146484375 164.76300048828125,206.14999389648438 139.5760040283203,204.1439971923828 C111.21199798583984,201.88499450683594 75.91200256347656,183.63999938964844 66.12300109863281,174.1020050048828"></path></g><g opacity="1" transform="matrix(1,0,0,1,0,0)"><path stroke-linecap="round" stroke-linejoin="round" fill-opacity="0" stroke="rgb(133,83,33)" stroke-opacity="0.6" stroke-width="8" d=" M112.00499725341797,126.58300018310547 C112.00499725341797,126.58300018310547 108.39299774169922,131.05099487304688 106.29299926757812,144.53700256347656"></path></g></g><g style="display: block;" transform="matrix(1,0,0,1,256,256)" opacity="1"><g opacity="1" transform="matrix(0.9271838665008545,0.37460657954216003,-0.37460657954216003,0.9271838665008545,71.54753875732422,-49.86335754394531)"><g opacity="1" transform="matrix(0.9271838665008545,-0.37460657954216003,0.37460657954216003,0.9271838665008545,-47.584197998046875,73.20055389404297)"><g opacity="1" transform="matrix(1,0,0,1,0,0)"><path fill="rgb(154,110,58)" fill-opacity="1" d=" M127.15899658203125,134.5469970703125 C145.11599731445312,103.36699676513672 172.7519989013672,107.69300079345703 188.91700744628906,119.17400360107422 C206.31900024414062,131.53399658203125 208.9709930419922,158.0800018310547 196.31700134277344,175.4459991455078 C176.14700317382812,203.1280059814453 146.88900756835938,204.3040008544922 131.40199279785156,190.3070068359375 C116.87000274658203,177.17300415039062 119.90699768066406,147.13900756835938 127.15899658203125,134.5469970703125z"></path><path stroke-linecap="round" stroke-linejoin="round" fill-opacity="0" stroke="rgb(104,64,27)" stroke-opacity="1" stroke-width="8" d=" M127.15899658203125,134.5469970703125 C145.11599731445312,103.36699676513672 172.7519989013672,107.69300079345703 188.91700744628906,119.17400360107422 C206.31900024414062,131.53399658203125 208.9709930419922,158.0800018310547 196.31700134277344,175.4459991455078 C176.14700317382812,203.1280059814453 146.88900756835938,204.3040008544922 131.40199279785156,190.3070068359375 C116.87000274658203,177.17300415039062 119.90699768066406,147.13900756835938 127.15899658203125,134.5469970703125z"></path></g><g opacity="1" transform="matrix(1,0,0,1,0,0)"><g opacity="1" transform="matrix(1,0,0,1,0,0)"><path fill="rgb(27,20,5)" fill-opacity="1" d=" M193.2779998779297,171.50999450683594 C184.2259979248047,174.74000549316406 174.5469970703125,167.02499389648438 180.57200622558594,157.15699768066406 C184.5,150.72300720214844 197.07899475097656,146.4080047607422 202.32000732421875,155.0590057373047 C206.0749969482422,161.25799560546875 200.27699279785156,169.01199340820312 193.2779998779297,171.50999450683594z"></path></g><g opacity="1" transform="matrix(1,0,0,1,0,0)"><path fill="url(#__lottie_element_7)" fill-opacity="1" d=" M193.9980010986328,164.89100646972656 C211.125,155.15199279785156 193.18699645996094,142.125 180.8730010986328,156.70899963378906 C176.63099670410156,164.05299377441406 185.56300354003906,169.68699645996094 193.9980010986328,164.89100646972656z"></path></g></g><g opacity="1" transform="matrix(1,0,0,1,0,0)"><g opacity="1" transform="matrix(1,0,0,1,0,0)"><path fill="rgb(27,20,5)" fill-opacity="1" d=" M170.61900329589844,128.843994140625 C178.00799560546875,121.51300048828125 190.9810028076172,124.55899810791016 189.5659942626953,136.95799255371094 C188.64300537109375,145.04299926757812 178.2949981689453,155.05999755859375 169.24099731445312,149.052001953125 C162.7530059814453,144.7469940185547 164.90499877929688,134.51300048828125 170.61900329589844,128.843994140625z"></path></g><g opacity="1" transform="matrix(1,0,0,1,0,0)"><path fill="url(#__lottie_element_8)" fill-opacity="1" d=" M165.33900451660156,139.64999389648438 C164.81300354003906,150.81300354003906 185.23199462890625,148.1230010986328 187.4929962158203,133.32400512695312 C189.5,120.18800354003906 166.81300354003906,122.56300354003906 165.33900451660156,139.64999389648438z"></path></g></g><g opacity="1" transform="matrix(1,0,0,1,0,0)"><g opacity="1" transform="matrix(1,0,0,1,0,0)"><path fill="rgb(27,20,5)" fill-opacity="1" d=" M141.1790008544922,126.7750015258789 C144.8820037841797,117.90599822998047 157.10400390625,115.94100189208984 160.3470001220703,127.03900146484375 C162.46099853515625,134.27499389648438 157.18499755859375,146.48199462890625 147.25900268554688,144.53500366210938 C140.14599609375,143.13999938964844 138.31500244140625,133.63299560546875 141.1790008544922,126.7750015258789z"></path></g><g opacity="1" transform="matrix(1,0,0,1,0,0)"><path fill="url(#__lottie_element_9)" fill-opacity="1" d=" M140.0330047607422,131.10000610351562 C139.5,143.18699645996094 158.56199645996094,143 157.53199768066406,124.80899810791016 C157.04600524902344,116.22799682617188 141.5,117.68699645996094 140.0330047607422,131.10000610351562z"></path></g></g><g opacity="1" transform="matrix(1,0,0,1,0,0)"><g opacity="1" transform="matrix(1,0,0,1,0,0)"><path fill="rgb(27,20,5)" fill-opacity="1" d=" M130.4459991455078,167.87600708007812 C130.46800231933594,157.57699584960938 146.73699951171875,148.71400451660156 163.67100524902344,157.49899291992188 C181.468994140625,166.73300170898438 180.57699584960938,188.67100524902344 169.33200073242188,192 C161.02000427246094,194.4600067138672 156.0749969482422,188.7570037841797 149.11399841308594,183.2469940185547 C142.1529998779297,177.73699951171875 130.4239959716797,178.2100067138672 130.4459991455078,167.87600708007812z"></path></g><g opacity="1" transform="matrix(1.496399998664856,0,0,1,-73.28105163574219,0)"><path fill="url(#__lottie_element_10)" fill-opacity="1" d=" M136.71400451660156,169.92799377441406 C138.26699829101562,178.6739959716797 160.15199279785156,174.83900451660156 158.76199340820312,163.97799682617188 C157.61000061035156,154.97799682617188 150.6020050048828,153.69700622558594 147.7220001220703,154.01199340820312 C140.98399353027344,154.75 135.26199340820312,161.75 136.71400451660156,169.92799377441406z"></path></g></g></g></g></g></g></svg>