<svg xmlns="http://www.w3.org/2000/svg" xmlns:xlink="http://www.w3.org/1999/xlink" viewBox="0 0 512 512" width="512" height="512" style="width: 100%; height: 100%; transform: translate3d(0,0,0); content-visibility: visible;" preserveAspectRatio="xMidYMid meet"><defs><clipPath id="__lottie_element_2"><rect width="512" height="512" x="0" y="0"></rect></clipPath><clipPath id="__lottie_element_5"><path d="M0,0 L512,0 L512,512 L0,512z"></path></clipPath><clipPath id="__lottie_element_18"><path d="M0,0 L512,0 L512,512 L0,512z"></path></clipPath><clipPath id="__lottie_element_31"><path d="M0,0 L512,0 L512,512 L0,512z"></path></clipPath><clipPath id="__lottie_element_44"><path d="M0,0 L512,0 L512,512 L0,512z"></path></clipPath><clipPath id="__lottie_element_57"><path d="M0,0 L512,0 L512,512 L0,512z"></path></clipPath><clipPath id="__lottie_element_70"><path d="M0,0 L512,0 L512,512 L0,512z"></path></clipPath><clipPath id="__lottie_element_83"><path d="M0,0 L512,0 L512,512 L0,512z"></path></clipPath><clipPath id="__lottie_element_90"><path d="M0,0 L512,0 L512,512 L0,512z"></path></clipPath><clipPath id="__lottie_element_97"><path d="M0,0 L512,0 L512,512 L0,512z"></path></clipPath><clipPath id="__lottie_element_104"><path d="M0,0 L512,0 L512,512 L0,512z"></path></clipPath><clipPath id="__lottie_element_111"><path d="M0,0 L512,0 L512,512 L0,512z"></path></clipPath><clipPath id="__lottie_element_118"><path d="M0,0 L512,0 L512,512 L0,512z"></path></clipPath><clipPath id="__lottie_element_125"><path d="M0,0 L512,0 L512,512 L0,512z"></path></clipPath><clipPath id="__lottie_element_132"><path d="M0,0 L512,0 L512,512 L0,512z"></path></clipPath><clipPath id="__lottie_element_139"><path d="M0,0 L512,0 L512,512 L0,512z"></path></clipPath><clipPath id="__lottie_element_146"><path d="M0,0 L512,0 L512,512 L0,512z"></path></clipPath><clipPath id="__lottie_element_153"><path d="M0,0 L512,0 L512,512 L0,512z"></path></clipPath><clipPath id="__lottie_element_160"><path d="M0,0 L512,0 L512,512 L0,512z"></path></clipPath><clipPath id="__lottie_element_167"><path d="M0,0 L512,0 L512,512 L0,512z"></path></clipPath><clipPath id="__lottie_element_174"><path d="M0,0 L512,0 L512,512 L0,512z"></path></clipPath><clipPath id="__lottie_element_181"><path d="M0,0 L512,0 L512,512 L0,512z"></path></clipPath><clipPath id="__lottie_element_188"><path d="M0,0 L512,0 L512,512 L0,512z"></path></clipPath></defs><g clip-path="url(#__lottie_element_2)"><g style="display: none;"><g><path stroke-linecap="round" stroke-linejoin="round" fill-opacity="0"></path><path></path></g></g><g style="display: block;" transform="matrix(1.059999942779541,0,0,1.059999942779541,256.20001220703125,240.90499877929688)" opacity="1"><g opacity="1" transform="matrix(1,0,0,1,0,0)"><path stroke-linecap="round" stroke-linejoin="round" fill-opacity="0" stroke="rgb(50,171,254)" stroke-opacity="1" stroke-width="2" d=" M2.6679999828338623,194.97300720214844 C2.6679999828338623,194.97300720214844 68.75,3.187999963760376 68.75,3.187999963760376 C68.75,3.187999963760376 188.68800354003906,-34 188.68800354003906,-34 C188.68800354003906,-34 2.6679999828338623,194.97300720214844 2.6679999828338623,194.97300720214844z"></path><path fill="rgb(50,171,254)" fill-opacity="1" d=" M2.6679999828338623,194.97300720214844 C2.6679999828338623,194.97300720214844 68.75,3.187999963760376 68.75,3.187999963760376 C68.75,3.187999963760376 188.68800354003906,-34 188.68800354003906,-34 C188.68800354003906,-34 2.6679999828338623,194.97300720214844 2.6679999828338623,194.97300720214844z"></path></g></g><g style="display: block;" transform="matrix(1.059999942779541,0,0,1.059999942779541,256.20001220703125,240.90499877929688)" opacity="1"><g opacity="1" transform="matrix(1,0,0,1,0,0)"><path stroke-linecap="round" stroke-linejoin="round" fill-opacity="0" stroke="rgb(118,216,255)" stroke-opacity="1" stroke-width="2" d=" M2.6679999828338623,194.97300720214844 C2.6679999828338623,194.97300720214844 -99,-2.187999963760376 -99,-2.187999963760376 C-99,-2.187999963760376 68.75,3.187999963760376 68.75,3.187999963760376 C68.75,3.187999963760376 2.6679999828338623,194.97300720214844 2.6679999828338623,194.97300720214844z"></path><path fill="rgb(118,216,255)" fill-opacity="1" d=" M2.6679999828338623,194.97300720214844 C2.6679999828338623,194.97300720214844 -99,-2.187999963760376 -99,-2.187999963760376 C-99,-2.187999963760376 68.75,3.187999963760376 68.75,3.187999963760376 C68.75,3.187999963760376 2.6679999828338623,194.97300720214844 2.6679999828338623,194.97300720214844z"></path></g></g><g style="display: block;" transform="matrix(1.059999942779541,0,0,1.059999942779541,256.20001220703125,240.90499877929688)" opacity="1"><g opacity="1" transform="matrix(1,0,0,1,0,0)"><path stroke-linecap="round" stroke-linejoin="round" fill-opacity="0" stroke="rgb(80,185,245)" stroke-opacity="1" stroke-width="2" d=" M2.6679999828338623,194.97300720214844 C2.6679999828338623,194.97300720214844 -99,-2.187999963760376 -99,-2.187999963760376 C-99,-2.187999963760376 -191.56300354003906,-46.25 -191.56300354003906,-46.25 C-191.56300354003906,-46.25 2.6679999828338623,194.97300720214844 2.6679999828338623,194.97300720214844z"></path><path fill="rgb(80,185,245)" fill-opacity="1" d=" M2.6679999828338623,194.97300720214844 C2.6679999828338623,194.97300720214844 -99,-2.187999963760376 -99,-2.187999963760376 C-99,-2.187999963760376 -191.56300354003906,-46.25 -191.56300354003906,-46.25 C-191.56300354003906,-46.25 2.6679999828338623,194.97300720214844 2.6679999828338623,194.97300720214844z"></path></g></g><g style="display: none;"><g><path stroke-linecap="round" stroke-linejoin="round" fill-opacity="0"></path><path></path></g></g><g style="display: none;"><g><path stroke-linecap="round" stroke-linejoin="round" fill-opacity="0"></path><path></path></g></g><g style="display: block;" transform="matrix(1.059999942779541,0,0,1.059999942779541,256.20001220703125,240.90499877929688)" opacity="1"><g opacity="1" transform="matrix(1,0,0,1,0,0)"><path stroke-linecap="round" stroke-linejoin="round" fill-opacity="0" stroke="rgb(62,107,190)" stroke-opacity="1" stroke-width="2" d=" M147.1510009765625,-131.25900268554688 C147.1510009765625,-131.25900268554688 188.70599365234375,-33.98400115966797 188.70599365234375,-33.98400115966797 C188.70599365234375,-33.98400115966797 167.80499267578125,-86.48300170898438 167.80499267578125,-86.48300170898438 C167.80499267578125,-86.48300170898438 147.1510009765625,-131.25900268554688 147.1510009765625,-131.25900268554688z"></path><path fill="rgb(62,107,190)" fill-opacity="1" d=" M147.1510009765625,-131.25900268554688 C147.1510009765625,-131.25900268554688 188.70599365234375,-33.98400115966797 188.70599365234375,-33.98400115966797 C188.70599365234375,-33.98400115966797 167.80499267578125,-86.48300170898438 167.80499267578125,-86.48300170898438 C167.80499267578125,-86.48300170898438 147.1510009765625,-131.25900268554688 147.1510009765625,-131.25900268554688z"></path></g></g><g style="display: none;"><g><path stroke-linecap="round" stroke-linejoin="round" fill-opacity="0"></path><path></path></g></g><g style="display: none;"><g><path stroke-linecap="round" stroke-linejoin="round" fill-opacity="0"></path><path></path></g></g><g style="display: block;" transform="matrix(1.059999942779541,0,0,1.059999942779541,256.20001220703125,240.90499877929688)" opacity="1"><g opacity="1" transform="matrix(1,0,0,1,0,0)"><path stroke-linecap="round" stroke-linejoin="round" fill-opacity="0" stroke="rgb(115,201,249)" stroke-opacity="1" stroke-width="2" d=" M-118.23899841308594,-101.33899688720703 C-118.23899841308594,-101.33899688720703 -191.5399932861328,-46.26900100708008 -191.5399932861328,-46.26900100708008 C-191.5399932861328,-46.26900100708008 -99.02999877929688,-2.2130000591278076 -99.02999877929688,-2.2130000591278076 C-99.02999877929688,-2.2130000591278076 -118.23899841308594,-101.33899688720703 -118.23899841308594,-101.33899688720703z"></path><path fill="rgb(115,201,249)" fill-opacity="1" d=" M-118.23899841308594,-101.33899688720703 C-118.23899841308594,-101.33899688720703 -191.5399932861328,-46.26900100708008 -191.5399932861328,-46.26900100708008 C-191.5399932861328,-46.26900100708008 -99.02999877929688,-2.2130000591278076 -99.02999877929688,-2.2130000591278076 C-99.02999877929688,-2.2130000591278076 -118.23899841308594,-101.33899688720703 -118.23899841308594,-101.33899688720703z"></path></g></g><g style="display: block;" transform="matrix(1.059999942779541,0,0,1.059999942779541,256.20001220703125,240.90499877929688)" opacity="1"><g opacity="1" transform="matrix(1,0,0,1,0,0)"><path stroke-linecap="round" stroke-linejoin="round" fill-opacity="0" stroke="rgb(97,182,245)" stroke-opacity="1" stroke-width="2" d=" M-11.89900016784668,-81.18000030517578 C-11.89900016784668,-81.18000030517578 -99.02999877929688,-2.2130000591278076 -99.02999877929688,-2.2130000591278076 C-99.02999877929688,-2.2130000591278076 68.76699829101562,3.2060000896453857 68.76699829101562,3.2060000896453857 C68.76699829101562,3.2060000896453857 -11.89900016784668,-81.18000030517578 -11.89900016784668,-81.18000030517578z"></path><path fill="rgb(97,182,245)" fill-opacity="1" d=" M-11.89900016784668,-81.18000030517578 C-11.89900016784668,-81.18000030517578 -99.02999877929688,-2.2130000591278076 -99.02999877929688,-2.2130000591278076 C-99.02999877929688,-2.2130000591278076 68.76699829101562,3.2060000896453857 68.76699829101562,3.2060000896453857 C68.76699829101562,3.2060000896453857 -11.89900016784668,-81.18000030517578 -11.89900016784668,-81.18000030517578z"></path></g></g><g style="display: block;" transform="matrix(1.059999942779541,0,0,1.059999942779541,256.20001220703125,240.90499877929688)" opacity="1"><g opacity="1" transform="matrix(1,0,0,1,0,0)"><path stroke-linecap="round" stroke-linejoin="round" fill-opacity="0" stroke="rgb(117,195,253)" stroke-opacity="1" stroke-width="2" d=" M106.6780014038086,-94.16899871826172 C106.6780014038086,-94.16899871826172 68.76699829101562,3.2060000896453857 68.76699829101562,3.2060000896453857 C68.76699829101562,3.2060000896453857 188.70599365234375,-33.98400115966797 188.70599365234375,-33.98400115966797 C188.70599365234375,-33.98400115966797 106.6780014038086,-94.16899871826172 106.6780014038086,-94.16899871826172z"></path><path fill="rgb(117,195,253)" fill-opacity="1" d=" M106.6780014038086,-94.16899871826172 C106.6780014038086,-94.16899871826172 68.76699829101562,3.2060000896453857 68.76699829101562,3.2060000896453857 C68.76699829101562,3.2060000896453857 188.70599365234375,-33.98400115966797 188.70599365234375,-33.98400115966797 C188.70599365234375,-33.98400115966797 106.6780014038086,-94.16899871826172 106.6780014038086,-94.16899871826172z"></path></g></g><g style="display: block;" transform="matrix(1.059999942779541,0,0,1.059999942779541,256.20001220703125,240.90499877929688)" opacity="1"><g opacity="1" transform="matrix(1,0,0,1,0,0)"><path fill="rgb(103,186,249)" fill-opacity="1" d=" M68.76699829101562,3.2060000896453857 C68.76699829101562,3.2060000896453857 106.6780014038086,-94.16899871826172 106.6780014038086,-94.16899871826172 C106.6780014038086,-94.16899871826172 -11.89900016784668,-81.18000030517578 -11.89900016784668,-81.18000030517578 C-11.89900016784668,-81.18000030517578 68.76699829101562,3.2060000896453857 68.76699829101562,3.2060000896453857z"></path></g></g><g style="display: block;" transform="matrix(1.059999942779541,0,0,1.059999942779541,256.20001220703125,240.90499877929688)" opacity="1"><g opacity="1" transform="matrix(1,0,0,1,0,0)"><path fill="rgb(185,230,255)" fill-opacity="1" d=" M-99.02999877929688,-2.2130000591278076 C-99.02999877929688,-2.2130000591278076 -118.23899841308594,-101.33899688720703 -118.23899841308594,-101.33899688720703 C-118.23899841308594,-101.33899688720703 -11.89900016784668,-81.18000030517578 -11.89900016784668,-81.18000030517578 C-11.89900016784668,-81.18000030517578 -99.02999877929688,-2.2130000591278076 -99.02999877929688,-2.2130000591278076z"></path></g></g><g style="display: block;" transform="matrix(1.059999942779541,0,0,1.059999942779541,256.20001220703125,240.90499877929688)" opacity="1"><g opacity="1" transform="matrix(1,0,0,1,0,0)"><path fill="rgb(94,175,234)" fill-opacity="1" d=" M-191.5399932861328,-46.26900100708008 C-191.5399932861328,-46.26900100708008 -134.2969970703125,-139.85499572753906 -134.2969970703125,-139.85499572753906 C-134.2969970703125,-139.85499572753906 -118.23899841308594,-101.33899688720703 -118.23899841308594,-101.33899688720703 C-118.23899841308594,-101.33899688720703 -191.5399932861328,-46.26900100708008 -191.5399932861328,-46.26900100708008z"></path></g></g><g style="display: none;"><g><path></path></g></g><g style="display: none;"><g><path></path></g></g><g style="display: block;" transform="matrix(1.059999942779541,0,0,1.059999942779541,256.20001220703125,240.90499877929688)" opacity="1"><g opacity="1" transform="matrix(1,0,0,1,0,0)"><path fill="rgb(107,184,243)" fill-opacity="1" d=" M188.70599365234375,-33.98400115966797 C188.70599365234375,-33.98400115966797 106.6780014038086,-94.16899871826172 106.6780014038086,-94.16899871826172 C106.6780014038086,-94.16899871826172 147.1510009765625,-131.25900268554688 147.1510009765625,-131.25900268554688 C147.1510009765625,-131.25900268554688 188.70599365234375,-33.98400115966797 188.70599365234375,-33.98400115966797z"></path></g></g><g style="display: none;"><g><path></path></g></g><g style="display: block;" transform="matrix(0.4988550841808319,-0.45714884996414185,1.4823180437088013,0.1538475900888443,337.3512268066406,117.41490173339844)" opacity="1"><g opacity="1" transform="matrix(1,0,0,1,0,0)"><path fill="rgb(199,233,255)" fill-opacity="1" d=" M3.062999963760376,-151.81300354003906 C3.062999963760376,-151.81300354003906 -73.68800354003906,-114.5 -73.68800354003906,-114.5 C-73.68800354003906,-114.5 -92.68800354003906,-32.0629997253418 -92.68800354003906,-32.0629997253418 C-92.68800354003906,-32.0629997253418 -39.96900177001953,34.96900177001953 -39.96900177001953,34.96900177001953 C-39.96900177001953,34.96900177001953 45.96900177001953,34.96900177001953 45.96900177001953,34.96900177001953 C45.96900177001953,34.96900177001953 98.375,-31.875 98.375,-31.875 C98.375,-31.875 79.75,-114.625 79.75,-114.625 C79.75,-114.625 3.062999963760376,-151.81300354003906 3.062999963760376,-151.81300354003906z"></path><path stroke-linecap="round" stroke-linejoin="round" fill-opacity="0" stroke="rgb(199,234,255)" stroke-opacity="1" stroke-width="2" d=" M3.062999963760376,-151.81300354003906 C3.062999963760376,-151.81300354003906 -73.68800354003906,-114.5 -73.68800354003906,-114.5 C-73.68800354003906,-114.5 -92.68800354003906,-32.0629997253418 -92.68800354003906,-32.0629997253418 C-92.68800354003906,-32.0629997253418 -39.96900177001953,34.96900177001953 -39.96900177001953,34.96900177001953 C-39.96900177001953,34.96900177001953 45.96900177001953,34.96900177001953 45.96900177001953,34.96900177001953 C45.96900177001953,34.96900177001953 98.375,-31.875 98.375,-31.875 C98.375,-31.875 79.75,-114.625 79.75,-114.625 C79.75,-114.625 3.062999963760376,-151.81300354003906 3.062999963760376,-151.81300354003906z"></path></g><g opacity="1" transform="matrix(1,0,0,1,0,0)"><path stroke-linecap="round" stroke-linejoin="round" fill-opacity="0" stroke="rgb(255,255,255)" stroke-opacity="1" stroke-width="0" d=" M-87.18399810791016,-25.065000534057617 C-82.64199829101562,-19.288999557495117 -75.81700134277344,-10.611000061035156 -68.75700378417969,-1.6349999904632568"></path></g><g opacity="1" transform="matrix(1,0,0,1,0,0)"><path stroke-linecap="round" stroke-linejoin="round" fill-opacity="0" stroke="rgb(255,255,255)" stroke-opacity="1" stroke-width="0" d=" M-46.64500045776367,26.481000900268555 C-42.582000732421875,31.64699935913086 -39.96900177001953,34.96900177001953 -39.96900177001953,34.96900177001953 C-39.96900177001953,34.96900177001953 -34.768001556396484,34.96900177001953 -26.923999786376953,34.96900177001953"></path></g></g><g clip-path="url(#__lottie_element_188)" style="display: none;"><g style="display: none;"><g><path></path></g></g></g><g clip-path="url(#__lottie_element_181)" style="display: none;"><g style="display: none;"><g><path></path></g></g></g><g clip-path="url(#__lottie_element_174)" style="display: none;"><g style="display: none;"><g><path></path></g></g></g><g clip-path="url(#__lottie_element_167)" style="display: block;" transform="matrix(1.059999942779541,0,0,1.059999942779541,-15.15998649597168,-30.45499038696289)" opacity="1"><g style="display: block;" transform="matrix(1,0,0,1,258.88299560546875,270.47698974609375)" opacity="0.38"><g opacity="1" transform="matrix(1,0,0,1,5,3)"><path fill="rgb(0,104,255)" fill-opacity="1" d=" M181.89599609375,-52.08300018310547 C181.89599609375,-52.08300018310547 158.43800354003906,-107.04199981689453 158.43800354003906,-107.04199981689453 C158.43800354003906,-107.04199981689453 137.49899291992188,-149.33999633789062 137.49899291992188,-149.33999633789062 C137.49899291992188,-149.33999633789062 111.03800201416016,-161.94400024414062 111.03800201416016,-161.94400024414062 C111.03800201416016,-161.94400024414062 70.8030014038086,-181.38999938964844 70.8030014038086,-181.38999938964844 C70.8030014038086,-181.38999938964844 7.406000137329102,-183.20899963378906 7.406000137329102,-183.20899963378906 C7.406000137329102,-183.20899963378906 -52.928001403808594,-185.24099731445312 -52.928001403808594,-185.24099731445312 C-52.928001403808594,-185.24099731445312 -96.66400146484375,-171.0229949951172 -96.66400146484375,-171.0229949951172 C-96.66400146484375,-171.0229949951172 -140.60899353027344,-157.572998046875 -140.60899353027344,-157.572998046875 C-140.60899353027344,-157.572998046875 -166.71400451660156,-114.26000213623047 -166.71400451660156,-114.26000213623047 C-166.71400451660156,-114.26000213623047 -198.35299682617188,-63.323001861572266 -198.35299682617188,-63.323001861572266 C-198.35299682617188,-63.323001861572266 -166.36399841308594,-24.010000228881836 -166.36399841308594,-24.010000228881836 C-166.36399841308594,-24.010000228881836 -5,177.875 -5,177.875 C-5,177.875 160.60299682617188,-26.156999588012695 160.60299682617188,-26.156999588012695 C160.60299682617188,-26.156999588012695 181.89599609375,-52.08300018310547 181.89599609375,-52.08300018310547z M154.16099548339844,-50.125 C154.16099548339844,-50.125 136.0989990234375,-28.131000518798828 136.0989990234375,-28.131000518798828 C136.0989990234375,-28.131000518798828 -4.682000160217285,145.32200622558594 -4.682000160217285,145.32200622558594 C-4.682000160217285,145.32200622558594 -141.8509979248047,-26.27199935913086 -141.8509979248047,-26.27199935913086 C-141.8509979248047,-26.27199935913086 -169.05099487304688,-59.6870002746582 -169.05099487304688,-59.6870002746582 C-169.05099487304688,-59.6870002746582 -142.11700439453125,-102.98400115966797 -142.11700439453125,-102.98400115966797 C-142.11700439453125,-102.98400115966797 -119.96399688720703,-139.8000030517578 -119.96399688720703,-139.8000030517578 C-119.96399688720703,-139.8000030517578 -82.61699676513672,-151.2220001220703 -82.61699676513672,-151.2220001220703 C-82.61699676513672,-151.2220001220703 -45.42900085449219,-163.33399963378906 -45.42900085449219,-163.33399963378906 C-45.42900085449219,-163.33399963378906 5.835999965667725,-161.58099365234375 5.835999965667725,-161.58099365234375 C5.835999965667725,-161.58099365234375 59.757999420166016,-160.0399932861328 59.757999420166016,-160.0399932861328 C59.757999420166016,-160.0399932861328 93.97100067138672,-143.51800537109375 93.97100067138672,-143.51800537109375 C93.97100067138672,-143.51800537109375 116.44300079345703,-132.78700256347656 116.44300079345703,-132.78700256347656 C116.44300079345703,-132.78700256347656 134.23899841308594,-96.875 134.23899841308594,-96.875 C134.23899841308594,-96.875 154.16099548339844,-50.125 154.16099548339844,-50.125z"></path></g></g></g><g clip-path="url(#__lottie_element_160)" style="display: none;"><g style="display: none;"><g><path></path></g><g><path></path></g></g></g><g clip-path="url(#__lottie_element_153)" style="display: none;"><g style="display: none;"><g><path></path></g><g><path></path></g></g></g><g clip-path="url(#__lottie_element_146)" style="display: none;"><g style="display: none;"><g><path></path></g><g><path></path></g></g></g><g clip-path="url(#__lottie_element_139)" style="display: block;" transform="matrix(1.059999942779541,0,0,1.059999942779541,-15.15998649597168,-30.45499038696289)" opacity="1"><g style="display: block;" transform="matrix(1,0,0,1,194.66116333007812,0)" opacity="0.6"><g opacity="0.6" transform="matrix(1,0,0,1,231.01300048828125,128.13600158691406)"><path fill="rgb(255,255,255)" fill-opacity="1" d=" M-44.7869987487793,17.650999069213867 C-44.7869987487793,17.650999069213867 -69.75499725341797,35.4630012512207 -69.75499725341797,35.4630012512207 C-69.75499725341797,35.4630012512207 -65.05400085449219,34.9119987487793 -65.05400085449219,34.9119987487793 C-65.05400085449219,34.9119987487793 -65.11599731445312,35.08000183105469 -65.11599731445312,35.08000183105469 C-65.11599731445312,35.08000183105469 -45.025001525878906,17.72100067138672 -45.025001525878906,17.72100067138672 C-45.025001525878906,17.72100067138672 -44.77799987792969,17.496999740600586 -44.77799987792969,17.496999740600586 C-44.77799987792969,17.496999740600586 -44.7869987487793,17.650999069213867 -44.7869987487793,17.650999069213867z"></path></g><g opacity="0" transform="matrix(1,0,0,1,274.24200439453125,130.90899658203125)"><path fill="rgb(255,255,255)" fill-opacity="1" d=" M-5.7789998054504395,2.7160000801086426 C-5.7789998054504395,2.7160000801086426 -8.78499984741211,3.7070000171661377 -8.78499984741211,3.7070000171661377 C-8.78499984741211,3.7070000171661377 -8.142000198364258,3.742000102996826 -8.142000198364258,3.742000102996826 C-8.142000198364258,3.742000102996826 -6.017000198364258,4.318999767303467 -6.017000198364258,4.318999767303467 C-6.017000198364258,4.318999767303467 -4.144999980926514,3.493000030517578 -4.144999980926514,3.493000030517578 C-4.144999980926514,3.493000030517578 -4.480000019073486,3.2939999103546143 -4.480000019073486,3.2939999103546143 C-4.480000019073486,3.2939999103546143 -5.7789998054504395,2.7160000801086426 -5.7789998054504395,2.7160000801086426z"></path></g></g></g><g clip-path="url(#__lottie_element_132)" style="display: none;"><g style="display: none;"><g><path stroke-linecap="round" stroke-linejoin="round" fill-opacity="0"></path></g></g></g><g clip-path="url(#__lottie_element_125)" style="display: none;"><g style="display: none;"><g><path stroke-linecap="round" stroke-linejoin="round" fill-opacity="0"></path></g></g></g><g clip-path="url(#__lottie_element_118)" style="display: none;"><g style="display: none;"><g><path stroke-linecap="round" stroke-linejoin="round" fill-opacity="0"></path></g></g></g><g clip-path="url(#__lottie_element_111)" style="display: block;" transform="matrix(1.059999942779541,0,0,1.059999942779541,-15.15998649597168,-30.45499038696289)" opacity="1"><g style="display: block;" transform="matrix(1,0,0,1,263.8179931640625,273.4800109863281)" opacity="1"><g opacity="1" transform="matrix(1,0,0,1,0,0)"><path stroke-linecap="round" stroke-linejoin="round" fill-opacity="0" stroke="rgb(0,88,175)" stroke-opacity="1" stroke-width="8" d=" M181.89599609375,-52.08300018310547 C181.89599609375,-52.08300018310547 158.43800354003906,-107.04199981689453 158.43800354003906,-107.04199981689453 C158.43800354003906,-107.04199981689453 137.49899291992188,-149.33999633789062 137.49899291992188,-149.33999633789062 C137.49899291992188,-149.33999633789062 111.03800201416016,-161.94400024414062 111.03800201416016,-161.94400024414062 C111.03800201416016,-161.94400024414062 70.8030014038086,-181.38999938964844 70.8030014038086,-181.38999938964844 C70.8030014038086,-181.38999938964844 7.406000137329102,-183.20899963378906 7.406000137329102,-183.20899963378906 C7.406000137329102,-183.20899963378906 -52.928001403808594,-185.24099731445312 -52.928001403808594,-185.24099731445312 C-52.928001403808594,-185.24099731445312 -96.66400146484375,-171.0229949951172 -96.66400146484375,-171.0229949951172 C-96.66400146484375,-171.0229949951172 -140.60899353027344,-157.572998046875 -140.60899353027344,-157.572998046875 C-140.60899353027344,-157.572998046875 -166.71400451660156,-114.26000213623047 -166.71400451660156,-114.26000213623047 C-166.71400451660156,-114.26000213623047 -198.35299682617188,-63.323001861572266 -198.35299682617188,-63.323001861572266 C-198.35299682617188,-63.323001861572266 -166.36399841308594,-24.010000228881836 -166.36399841308594,-24.010000228881836 C-166.36399841308594,-24.010000228881836 -5,177.875 -5,177.875 C-5,177.875 160.60299682617188,-26.156999588012695 160.60299682617188,-26.156999588012695 C160.60299682617188,-26.156999588012695 181.89599609375,-52.08300018310547 181.89599609375,-52.08300018310547z"></path></g></g></g><g clip-path="url(#__lottie_element_104)" style="display: none;"><g style="display: none;"><g><path></path></g></g></g><g clip-path="url(#__lottie_element_97)" style="display: none;"><g style="display: none;"><g><path></path></g></g></g><g clip-path="url(#__lottie_element_90)" style="display: none;"><g style="display: none;"><g><path></path></g></g></g><g clip-path="url(#__lottie_element_83)" style="display: block;" transform="matrix(1.059999942779541,0,0,1.059999942779541,-15.15998649597168,-30.45499038696289)" opacity="1"><g style="display: block;" transform="matrix(1,0,0,1,256,263.5)" opacity="0.6"><g opacity="1" transform="matrix(1,0,0,1,0,0)"><path fill="rgb(255,255,255)" fill-opacity="1" d=" M-145.55882263183594,-29.117647171020508 C-145.55882263183594,-29.117647171020508 -97,-6.5605292320251465 -97,-6.5605292320251465 C-97,-6.5605292320251465 71.64564514160156,-0.28076469898223877 71.64564514160156,-0.28076469898223877 C71.64564514160156,-0.28076469898223877 143.36376953125,-26.34417724609375 143.36376953125,-26.34417724609375 C143.36376953125,-26.34417724609375 70.53264617919922,-7.621764659881592 70.53264617919922,-7.621764659881592 C70.53264617919922,-7.621764659881592 -95.91676330566406,-11.481352806091309 -95.91676330566406,-11.481352806091309 C-95.91676330566406,-11.481352806091309 -145.55882263183594,-29.117647171020508 -145.55882263183594,-29.117647171020508"></path></g></g></g><g clip-path="url(#__lottie_element_70)" style="display: block;" transform="matrix(1.059999942779541,0,0,1.059999942779541,-31.059986114501953,-96.17498779296875)" opacity="1"><g style="display: block;" transform="matrix(1,0,0,1,-71,80.00001525878906)" opacity="1"><g opacity="1" transform="matrix(1,0,0,1,340.78399658203125,159.14599609375)"><path fill="rgb(255,255,255)" fill-opacity="1" d=" M-0.017999999225139618,-0.7900000214576721 C-0.017999999225139618,-0.7900000214576721 0.09200000017881393,0.0860000029206276 -0.7160000205039978,0.07999999821186066 C-0.7160000205039978,0.07999999821186066 0.03700000047683716,-0.03700000047683716 0.027000000700354576,0.7900000214576721 C0.027000000700354576,0.7900000214576721 -0.06400000303983688,0.03999999910593033 0.7160000205039978,0.023000000044703484 C0.7160000205039978,0.023000000044703484 -0.017999999225139618,0.1850000023841858 -0.017999999225139618,-0.7900000214576721z"></path></g></g><g style="display: block;" transform="matrix(1,0,0,1,185,336)" opacity="1"><g opacity="1" transform="matrix(1,0,0,1,0,0)"><path stroke-linecap="round" stroke-linejoin="round" fill-opacity="0" stroke="rgb(194,232,255)" stroke-opacity="1" stroke-width="0" d="M0 0"></path><g opacity="1" transform="matrix(1,0,0,1,0,0)"></g><g opacity="1" transform="matrix(1,0,0,1,0,0)"></g><g opacity="1" transform="matrix(1,0,0,1,0,0)"></g><g opacity="1" transform="matrix(1,0,0,1,0,0)"></g></g></g><g style="display: none;"><g><path stroke-linecap="butt" stroke-linejoin="miter" fill-opacity="0" stroke-miterlimit="4"></path></g></g></g><g clip-path="url(#__lottie_element_57)" style="display: none;"><g style="display: none;"><g><path></path></g></g><g style="display: none;"><g><path stroke-linecap="round" stroke-linejoin="round" fill-opacity="0"></path><g></g><g></g><g></g><g></g></g></g><g style="display: none;"><g><path stroke-linecap="butt" stroke-linejoin="miter" fill-opacity="0" stroke-miterlimit="4"></path></g></g></g><g clip-path="url(#__lottie_element_44)" style="display: none;"><g style="display: none;"><g><path></path></g></g><g style="display: none;"><g><path stroke-linecap="round" stroke-linejoin="round" fill-opacity="0"></path><g></g><g></g><g></g><g></g></g></g><g style="display: none;"><g><path stroke-linecap="butt" stroke-linejoin="miter" fill-opacity="0" stroke-miterlimit="4"></path></g></g></g><g clip-path="url(#__lottie_element_31)" style="display: none;"><g style="display: none;"><g><path></path></g></g><g style="display: none;"><g><path stroke-linecap="round" stroke-linejoin="round" fill-opacity="0"></path><g></g><g></g><g></g><g></g></g></g><g style="display: none;"><g><path stroke-linecap="butt" stroke-linejoin="miter" fill-opacity="0" stroke-miterlimit="4"></path></g></g></g><g clip-path="url(#__lottie_element_18)" style="display: none;"><g style="display: none;"><g><path></path></g></g><g style="display: none;"><g><path stroke-linecap="round" stroke-linejoin="round" fill-opacity="0"></path><g></g><g></g><g></g><g></g></g></g><g style="display: none;"><g><path stroke-linecap="butt" stroke-linejoin="miter" fill-opacity="0" stroke-miterlimit="4"></path></g></g></g><g clip-path="url(#__lottie_element_5)" style="display: none;"><g style="display: none;"><g><path></path></g></g><g style="display: none;"><g><path stroke-linecap="round" stroke-linejoin="round" fill-opacity="0"></path><g></g><g></g><g></g><g></g></g></g><g style="display: none;"><g><path stroke-linecap="butt" stroke-linejoin="miter" fill-opacity="0" stroke-miterlimit="4"></path></g></g></g></g></svg>