<svg xmlns="http://www.w3.org/2000/svg" xmlns:xlink="http://www.w3.org/1999/xlink" viewBox="0 0 512 512" width="512" height="512" style="width: 100%; height: 100%; transform: translate3d(0,0,0); content-visibility: visible;" preserveAspectRatio="xMidYMid meet"><defs><clipPath id="__lottie_element_2"><rect width="512" height="512" x="0" y="0"></rect></clipPath><linearGradient id="__lottie_element_9" spreadMethod="pad" gradientUnits="userSpaceOnUse" x1="78" y1="-129" x2="30" y2="-226.01100158691406"><stop offset="27%" stop-color="rgb(255,255,255)" stop-opacity="0"></stop><stop offset="74%" stop-color="rgb(255,255,255)" stop-opacity="0.5"></stop><stop offset="100%" stop-color="rgb(255,255,255)" stop-opacity="1"></stop></linearGradient><linearGradient id="__lottie_element_10" spreadMethod="pad" gradientUnits="userSpaceOnUse" x1="-94" y1="-70" x2="-143.75999450683594" y2="-170.5679931640625"><stop offset="27%" stop-color="rgb(255,255,255)" stop-opacity="0"></stop><stop offset="74%" stop-color="rgb(255,255,255)" stop-opacity="0.5"></stop><stop offset="100%" stop-color="rgb(255,255,255)" stop-opacity="1"></stop></linearGradient><linearGradient id="__lottie_element_26" spreadMethod="pad" gradientUnits="userSpaceOnUse" x1="-86" y1="167" x2="-98.1259994506836" y2="-48.242000579833984"><stop offset="0%" stop-color="rgb(249,208,33)"></stop><stop offset="50%" stop-color="rgb(249,184,17)"></stop><stop offset="100%" stop-color="rgb(249,159,0)"></stop><stop offset="100%" stop-color="rgb(252,207,128)"></stop><stop offset="100%" stop-color="rgb(255,255,255)"></stop></linearGradient></defs><g clip-path="url(#__lottie_element_2)"><g style="display: block;" transform="matrix(1,0,0,1,256,256)" opacity="1"><g opacity="1" transform="matrix(1,0,0,1,0,0)"><path fill="rgb(255,237,105)" fill-opacity="1" d=" M-4.979000091552734,-114.87300109863281 C-4.979000091552734,-114.87300109863281 -190.28399658203125,-51.209999084472656 -190.28399658203125,-51.209999084472656 C-190.28399658203125,-51.209999084472656 1.8420000076293945,25.577999114990234 1.8420000076293945,25.577999114990234 C1.8420000076293945,25.577999114990234 193.58900451660156,-51.96799850463867 193.58900451660156,-51.96799850463867 C193.58900451660156,-51.96799850463867 -4.979000091552734,-114.87300109863281 -4.979000091552734,-114.87300109863281z"></path><path stroke-linecap="round" stroke-linejoin="round" fill-opacity="0" stroke="rgb(234,130,6)" stroke-opacity="1" stroke-width="9" d=" M-4.979000091552734,-114.87300109863281 C-4.979000091552734,-114.87300109863281 -190.28399658203125,-51.209999084472656 -190.28399658203125,-51.209999084472656 C-190.28399658203125,-51.209999084472656 1.8420000076293945,25.577999114990234 1.8420000076293945,25.577999114990234 C1.8420000076293945,25.577999114990234 193.58900451660156,-51.96799850463867 193.58900451660156,-51.96799850463867 C193.58900451660156,-51.96799850463867 -4.979000091552734,-114.87300109863281 -4.979000091552734,-114.87300109863281z"></path></g><g opacity="1" transform="matrix(1,0,0,1,0,0)"><path fill="rgb(255,237,105)" fill-opacity="1" d=" M-0.8109999895095825,67.02100372314453 C-0.8109999895095825,67.02100372314453 -4.979000091552734,-114.87300109863281 -4.979000091552734,-114.87300109863281"></path><path stroke-linecap="round" stroke-linejoin="round" fill-opacity="0" stroke="rgb(234,130,6)" stroke-opacity="1" stroke-width="9" d=" M-0.8109999895095825,67.02100372314453 C-0.8109999895095825,67.02100372314453 -4.979000091552734,-114.87300109863281 -4.979000091552734,-114.87300109863281"></path></g><g opacity="1" transform="matrix(1,0,0,1,0,0)"><path fill="url(#__lottie_element_26)" fill-opacity="1" d=" M-165.0679931640625,154.69000244140625 C-165.0679931640625,154.69000244140625 -190.6060028076172,-50.7130012512207 -190.6060028076172,-50.7130012512207 C-190.6060028076172,-50.7130012512207 -0.4320000112056732,25.368999481201172 -0.4320000112056732,25.368999481201172 C-0.4320000112056732,25.368999481201172 -0.4320000112056732,223.31700134277344 -0.4320000112056732,223.31700134277344 C-0.4320000112056732,223.31700134277344 -165.0679931640625,154.69000244140625 -165.0679931640625,154.69000244140625z"></path><path stroke-linecap="round" stroke-linejoin="round" fill-opacity="0" stroke="rgb(234,130,6)" stroke-opacity="1" stroke-width="9" d=" M-165.0679931640625,154.69000244140625 C-165.0679931640625,154.69000244140625 -190.6060028076172,-50.7130012512207 -190.6060028076172,-50.7130012512207 C-190.6060028076172,-50.7130012512207 -0.4320000112056732,25.368999481201172 -0.4320000112056732,25.368999481201172 C-0.4320000112056732,25.368999481201172 -0.4320000112056732,223.31700134277344 -0.4320000112056732,223.31700134277344 C-0.4320000112056732,223.31700134277344 -165.0679931640625,154.69000244140625 -165.0679931640625,154.69000244140625z"></path></g><g opacity="1" transform="matrix(1,0,0,1,0,0)"><path fill="rgb(249,159,0)" fill-opacity="1" d=" M164.20399475097656,152.69000244140625 C164.20399475097656,152.69000244140625 192.50999450683594,-52.986000061035156 192.50999450683594,-52.986000061035156 C192.50999450683594,-52.986000061035156 -0.4320000112056732,25.368999481201172 -0.4320000112056732,25.368999481201172 C-0.4320000112056732,25.368999481201172 -0.4320000112056732,223.31700134277344 -0.4320000112056732,223.31700134277344 C-0.4320000112056732,223.31700134277344 164.20399475097656,152.69000244140625 164.20399475097656,152.69000244140625z"></path><path stroke-linecap="round" stroke-linejoin="round" fill-opacity="0" stroke="rgb(234,130,6)" stroke-opacity="1" stroke-width="9" d=" M164.20399475097656,152.69000244140625 C164.20399475097656,152.69000244140625 192.50999450683594,-52.986000061035156 192.50999450683594,-52.986000061035156 C192.50999450683594,-52.986000061035156 -0.4320000112056732,25.368999481201172 -0.4320000112056732,25.368999481201172 C-0.4320000112056732,25.368999481201172 -0.4320000112056732,223.31700134277344 -0.4320000112056732,223.31700134277344 C-0.4320000112056732,223.31700134277344 164.20399475097656,152.69000244140625 164.20399475097656,152.69000244140625z"></path></g></g><g style="display: block;" transform="matrix(1,0,0,1,256,281.5)" opacity="0.54"><g opacity="1" transform="matrix(1,0,0,1,0,0)"><path fill="rgb(234,130,6)" fill-opacity="1" d=" M-181.31100463867188,-5.039000034332275 C-181.31100463867188,-5.039000034332275 -187.93600463867188,-54.91400146484375 -187.93600463867188,-54.91400146484375 C-187.93600463867188,-54.91400146484375 0,22.93899917602539 0,22.93899917602539 C0,22.93899917602539 0,73.96199798583984 0,73.96199798583984 C0,73.96199798583984 -181.31100463867188,-5.039000034332275 -181.31100463867188,-5.039000034332275z"></path></g><g opacity="1" transform="matrix(1,0,0,1,0,0)"><path fill="rgb(234,130,6)" fill-opacity="1" d=" M182.36500549316406,-1.8760000467300415 C182.36500549316406,-1.8760000467300415 189.18600463867188,-54.41400146484375 189.18600463867188,-54.41400146484375 C189.18600463867188,-54.41400146484375 0,22.93899917602539 0,22.93899917602539 C0,22.93899917602539 0,73.96199798583984 0,73.96199798583984 C0,73.96199798583984 182.36500549316406,-1.8760000467300415 182.36500549316406,-1.8760000467300415z"></path></g></g><g style="display: block;" transform="matrix(1,0,0,1,256,256)" opacity="1"><g opacity="1" transform="matrix(1,0,0,1,0,0)"><path fill="rgb(188,4,4)" fill-opacity="1" d=" M62.88399887084961,197.6540069580078 C62.88399887084961,197.6540069580078 67.77899932861328,-4.599999904632568 67.77899932861328,-4.599999904632568 C67.77899932861328,-4.599999904632568 116.66300201416016,-21.652000427246094 116.66300201416016,-21.652000427246094 C116.66300201416016,-21.652000427246094 106.84200286865234,177.94900512695312 106.84200286865234,177.94900512695312 C106.84200286865234,177.94900512695312 62.88399887084961,197.6540069580078 62.88399887084961,197.6540069580078z"></path></g><g opacity="1" transform="matrix(1,0,0,1,0,0)"><path fill="rgb(221,5,5)" fill-opacity="1" d=" M-64.44200134277344,197.6540069580078 C-64.44200134277344,197.6540069580078 -72.0530014038086,-5.736999988555908 -72.0530014038086,-5.736999988555908 C-72.0530014038086,-5.736999988555908 -117.5260009765625,-22.788999557495117 -117.5260009765625,-22.788999557495117 C-117.5260009765625,-22.788999557495117 -105.8740005493164,179.46499633789062 -105.8740005493164,179.46499633789062 C-105.8740005493164,179.46499633789062 -64.44200134277344,197.6540069580078 -64.44200134277344,197.6540069580078z"></path></g></g><g style="display: block;" transform="matrix(1,0,0,1,256,281.5)" opacity="0.54"><g opacity="1" transform="matrix(1,0,0,1,0,0)"><path fill="rgb(153,0,0)" fill-opacity="1" d=" M-115.78299713134766,-25.02400016784668 C-115.78299713134766,-25.02400016784668 -70.58300018310547,-6.300000190734863 -70.58300018310547,-6.300000190734863 C-70.58300018310547,-6.300000190734863 -69.05400085449219,43.874000549316406 -69.05400085449219,43.874000549316406 C-69.05400085449219,43.874000549316406 -113.80500030517578,24.375 -113.80500030517578,24.375 C-113.80500030517578,24.375 -115.78299713134766,-25.02400016784668 -115.78299713134766,-25.02400016784668z"></path></g><g opacity="1" transform="matrix(1,0,0,1,0,0)"><path fill="rgb(153,0,0)" fill-opacity="1" d=" M114.97200012207031,-24.06999969482422 C114.97200012207031,-24.06999969482422 68.47599792480469,-5.059000015258789 68.47599792480469,-5.059000015258789 C68.47599792480469,-5.059000015258789 66.00499725341797,46.51300048828125 66.00499725341797,46.51300048828125 C66.00499725341797,46.51300048828125 113.25800323486328,28.270000457763672 113.50399780273438,26.760000228881836 C113.75,25.25 114.97200012207031,-24.06999969482422 114.97200012207031,-24.06999969482422z"></path></g></g><g style="display: block;" transform="matrix(1,0,0,1,256,256)" opacity="1"><g opacity="1" transform="matrix(1,0,0,1,0,0)"><path stroke-linecap="round" stroke-linejoin="round" fill-opacity="0" stroke="rgb(153,0,0)" stroke-opacity="1" stroke-width="9" d=" M62.88399887084961,197.6540069580078 C62.88399887084961,197.6540069580078 67.77899932861328,-4.599999904632568 67.77899932861328,-4.599999904632568 C67.77899932861328,-4.599999904632568 116.66300201416016,-21.652000427246094 116.66300201416016,-21.652000427246094 C116.66300201416016,-21.652000427246094 106.84200286865234,177.94900512695312 106.84200286865234,177.94900512695312 C106.84200286865234,177.94900512695312 62.88399887084961,197.6540069580078 62.88399887084961,197.6540069580078z"></path></g><g opacity="1" transform="matrix(1,0,0,1,0,0)"><path stroke-linecap="round" stroke-linejoin="round" fill-opacity="0" stroke="rgb(153,0,0)" stroke-opacity="1" stroke-width="9" d=" M-64.44200134277344,197.6540069580078 C-64.44200134277344,197.6540069580078 -72.0530014038086,-5.736999988555908 -72.0530014038086,-5.736999988555908 C-72.0530014038086,-5.736999988555908 -117.5260009765625,-22.788999557495117 -117.5260009765625,-22.788999557495117 C-117.5260009765625,-22.788999557495117 -105.8740005493164,179.46499633789062 -105.8740005493164,179.46499633789062 C-105.8740005493164,179.46499633789062 -64.44200134277344,197.6540069580078 -64.44200134277344,197.6540069580078z"></path></g></g><g style="display: block;" transform="matrix(1,0,0,1,256,256)" opacity="1"><g opacity="1" transform="matrix(1,0,0,1,0,0)"><g opacity="1" transform="matrix(1,0,0,1,0,0)"><path fill="rgb(255,237,105)" fill-opacity="1" d=" M0,-119.26799774169922 C0,-119.26799774169922 -197.93600463867188,-57.16400146484375 -197.93600463867188,-57.16400146484375 C-197.93600463867188,-57.16400146484375 0,22.93899917602539 0,22.93899917602539 C0,22.93899917602539 197.93600463867188,-57.16400146484375 197.93600463867188,-57.16400146484375 C197.93600463867188,-57.16400146484375 0,-119.26799774169922 0,-119.26799774169922z"></path><path stroke-linecap="round" stroke-linejoin="round" fill-opacity="0" stroke="rgb(234,130,6)" stroke-opacity="1" stroke-width="9" d=" M0,-119.26799774169922 C0,-119.26799774169922 -197.93600463867188,-57.16400146484375 -197.93600463867188,-57.16400146484375 C-197.93600463867188,-57.16400146484375 0,22.93899917602539 0,22.93899917602539 C0,22.93899917602539 197.93600463867188,-57.16400146484375 197.93600463867188,-57.16400146484375 C197.93600463867188,-57.16400146484375 0,-119.26799774169922 0,-119.26799774169922z"></path></g><g opacity="1" transform="matrix(1,0,0,1,0,0)"><path fill="rgb(255,217,23)" fill-opacity="1" d=" M-191.31100463867188,-7.289000034332275 C-191.31100463867188,-7.289000034332275 -197.93600463867188,-57.16400146484375 -197.93600463867188,-57.16400146484375 C-197.93600463867188,-57.16400146484375 0,22.93899917602539 0,22.93899917602539 C0,22.93899917602539 0,73.96199798583984 0,73.96199798583984 C0,73.96199798583984 -191.31100463867188,-7.289000034332275 -191.31100463867188,-7.289000034332275z"></path><path stroke-linecap="round" stroke-linejoin="round" fill-opacity="0" stroke="rgb(234,130,6)" stroke-opacity="1" stroke-width="9" d=" M-191.31100463867188,-7.289000034332275 C-191.31100463867188,-7.289000034332275 -197.93600463867188,-57.16400146484375 -197.93600463867188,-57.16400146484375 C-197.93600463867188,-57.16400146484375 0,22.93899917602539 0,22.93899917602539 C0,22.93899917602539 0,73.96199798583984 0,73.96199798583984 C0,73.96199798583984 -191.31100463867188,-7.289000034332275 -191.31100463867188,-7.289000034332275z"></path></g><g opacity="1" transform="matrix(1,0,0,1,0,0)"><path fill="rgb(255,181,34)" fill-opacity="1" d=" M191.11500549316406,-4.625999927520752 C191.11500549316406,-4.625999927520752 197.93600463867188,-57.16400146484375 197.93600463867188,-57.16400146484375 C197.93600463867188,-57.16400146484375 0,22.93899917602539 0,22.93899917602539 C0,22.93899917602539 0,73.96199798583984 0,73.96199798583984 C0,73.96199798583984 191.11500549316406,-4.625999927520752 191.11500549316406,-4.625999927520752z"></path><path stroke-linecap="round" stroke-linejoin="round" fill-opacity="0" stroke="rgb(234,130,6)" stroke-opacity="1" stroke-width="9" d=" M191.11500549316406,-4.625999927520752 C191.11500549316406,-4.625999927520752 197.93600463867188,-57.16400146484375 197.93600463867188,-57.16400146484375 C197.93600463867188,-57.16400146484375 0,22.93899917602539 0,22.93899917602539 C0,22.93899917602539 0,73.96199798583984 0,73.96199798583984 C0,73.96199798583984 191.11500549316406,-4.625999927520752 191.11500549316406,-4.625999927520752z"></path></g></g><g opacity="1" transform="matrix(1,0,0,1,0,0)"><g opacity="1" transform="matrix(1,0,0,1,0,0)"><g opacity="1" transform="matrix(1,0,0,1,0,0)"><path fill="rgb(175,8,8)" fill-opacity="1" d=" M-123.4800033569336,-27.37299919128418 C-123.4800033569336,-27.37299919128418 70.54100036621094,-97.0999984741211 70.54100036621094,-97.0999984741211 C70.54100036621094,-97.0999984741211 117.53099822998047,-82.69999694824219 117.53099822998047,-82.69999694824219 C117.53099822998047,-82.69999694824219 -74.9749984741211,-6.909999847412109 -74.9749984741211,-6.909999847412109 C-74.9749984741211,-6.909999847412109 -123.4800033569336,-27.37299919128418 -123.4800033569336,-27.37299919128418z"></path><path stroke-linecap="round" stroke-linejoin="round" fill-opacity="0" stroke="rgb(153,0,0)" stroke-opacity="1" stroke-width="9" d=" M-123.4800033569336,-27.37299919128418 C-123.4800033569336,-27.37299919128418 70.54100036621094,-97.0999984741211 70.54100036621094,-97.0999984741211 C70.54100036621094,-97.0999984741211 117.53099822998047,-82.69999694824219 117.53099822998047,-82.69999694824219 C117.53099822998047,-82.69999694824219 -74.9749984741211,-6.909999847412109 -74.9749984741211,-6.909999847412109 C-74.9749984741211,-6.909999847412109 -123.4800033569336,-27.37299919128418 -123.4800033569336,-27.37299919128418z"></path></g><g opacity="1" transform="matrix(1,0,0,1,0,0)"><path fill="rgb(201,0,0)" fill-opacity="1" d=" M-68.64199829101562,47.69499969482422 C-68.64199829101562,47.69499969482422 -71.58899688720703,-6.375 -71.58899688720703,-6.375 C-71.58899688720703,-6.375 -123.4800033569336,-27.37299919128418 -123.4800033569336,-27.37299919128418 C-123.4800033569336,-27.37299919128418 -119.80000305175781,24.95800018310547 -119.80000305175781,24.95800018310547 C-119.80000305175781,24.95800018310547 -68.64199829101562,47.69499969482422 -68.64199829101562,47.69499969482422z"></path><path stroke-linecap="round" stroke-linejoin="round" fill-opacity="0" stroke="rgb(153,0,0)" stroke-opacity="1" stroke-width="9" d=" M-68.64199829101562,47.69499969482422 C-68.64199829101562,47.69499969482422 -71.58899688720703,-6.375 -71.58899688720703,-6.375 C-71.58899688720703,-6.375 -123.4800033569336,-27.37299919128418 -123.4800033569336,-27.37299919128418 C-123.4800033569336,-27.37299919128418 -119.80000305175781,24.95800018310547 -119.80000305175781,24.95800018310547 C-119.80000305175781,24.95800018310547 -68.64199829101562,47.69499969482422 -68.64199829101562,47.69499969482422z"></path></g></g><g opacity="1" transform="matrix(1,0,0,1,0,0)"><g opacity="1" transform="matrix(1,0,0,1,0,0)"><path fill="rgb(175,8,8)" fill-opacity="1" d=" M125.11000061035156,-27.37299919128418 C125.11000061035156,-27.37299919128418 -68.91100311279297,-97.0999984741211 -68.91100311279297,-97.0999984741211 C-68.91100311279297,-97.0999984741211 -115.9010009765625,-82.69999694824219 -115.9010009765625,-82.69999694824219 C-115.9010009765625,-82.69999694824219 67.77899932861328,-6.873000144958496 67.77899932861328,-6.873000144958496 C67.77899932861328,-6.873000144958496 125.11000061035156,-27.37299919128418 125.11000061035156,-27.37299919128418z"></path><path stroke-linecap="round" stroke-linejoin="round" fill-opacity="0" stroke="rgb(153,0,0)" stroke-opacity="1" stroke-width="9" d=" M125.11000061035156,-27.37299919128418 C125.11000061035156,-27.37299919128418 -68.91100311279297,-97.0999984741211 -68.91100311279297,-97.0999984741211 C-68.91100311279297,-97.0999984741211 -115.9010009765625,-82.69999694824219 -115.9010009765625,-82.69999694824219 C-115.9010009765625,-82.69999694824219 67.77899932861328,-6.873000144958496 67.77899932861328,-6.873000144958496 C67.77899932861328,-6.873000144958496 125.11000061035156,-27.37299919128418 125.11000061035156,-27.37299919128418z"></path></g><g opacity="1" transform="matrix(1,0,0,1,0,0)"><path fill="rgb(188,4,4)" fill-opacity="1" d=" M67.29000091552734,50.38399887084961 C67.29000091552734,50.38399887084961 68.91600036621094,-4.599999904632568 68.91600036621094,-4.599999904632568 C68.91600036621094,-4.599999904632568 125.11000061035156,-27.37299919128418 125.11000061035156,-27.37299919128418 C125.11000061035156,-27.37299919128418 121.20999908447266,28.368999481201172 121.20999908447266,28.368999481201172 C121.20999908447266,28.368999481201172 67.29000091552734,50.38399887084961 67.29000091552734,50.38399887084961z"></path><path stroke-linecap="round" stroke-linejoin="round" fill-opacity="0" stroke="rgb(153,0,0)" stroke-opacity="1" stroke-width="9" d=" M67.29000091552734,50.38399887084961 C67.29000091552734,50.38399887084961 68.91600036621094,-4.599999904632568 68.91600036621094,-4.599999904632568 C68.91600036621094,-4.599999904632568 125.11000061035156,-27.37299919128418 125.11000061035156,-27.37299919128418 C125.11000061035156,-27.37299919128418 121.20999908447266,28.368999481201172 121.20999908447266,28.368999481201172 C121.20999908447266,28.368999481201172 67.29000091552734,50.38399887084961 67.29000091552734,50.38399887084961z"></path></g></g></g></g><g style="display: block;" transform="matrix(1,0,0,1,256,256)" opacity="1"><g opacity="1" transform="matrix(1,0,0,1,0,0)"><g opacity="1" transform="matrix(1,0,0,1,0,0)"><path fill="rgb(175,0,0)" fill-opacity="1" d=" M16.583999633789062,-50.59199905395508 C16.583999633789062,-50.59199905395508 92.62699890136719,-63.36000061035156 134.2050018310547,-86.36100006103516 C195.51300048828125,-120.2770004272461 162.9010009765625,-150.2790069580078 162.9010009765625,-150.2790069580078 C162.9010009765625,-150.2790069580078 104.5260009765625,-186.03199768066406 95.48699951171875,-214.19700622558594 C95.48699951171875,-214.19700622558594 111.9530029296875,-169.22799682617188 79.5510025024414,-121.82499694824219 C47.14899826049805,-74.4219970703125 1.034999966621399,-59.292999267578125 1.034999966621399,-59.292999267578125 C1.034999966621399,-59.292999267578125 16.583999633789062,-50.59199905395508 16.583999633789062,-50.59199905395508z"></path><path stroke-linecap="round" stroke-linejoin="round" fill-opacity="0" stroke="rgb(153,0,0)" stroke-opacity="1" stroke-width="9" d=" M16.583999633789062,-50.59199905395508 C16.583999633789062,-50.59199905395508 92.62699890136719,-63.36000061035156 134.2050018310547,-86.36100006103516 C195.51300048828125,-120.2770004272461 162.9010009765625,-150.2790069580078 162.9010009765625,-150.2790069580078 C162.9010009765625,-150.2790069580078 104.5260009765625,-186.03199768066406 95.48699951171875,-214.19700622558594 C95.48699951171875,-214.19700622558594 111.9530029296875,-169.22799682617188 79.5510025024414,-121.82499694824219 C47.14899826049805,-74.4219970703125 1.034999966621399,-59.292999267578125 1.034999966621399,-59.292999267578125 C1.034999966621399,-59.292999267578125 16.583999633789062,-50.59199905395508 16.583999633789062,-50.59199905395508z"></path></g><g opacity="1" transform="matrix(1,0,0,1,0,0)"><path fill="rgb(255,11,11)" fill-opacity="1" d=" M1.034999966621399,-59.292999267578125 C1.034999966621399,-59.292999267578125 -12.821000099182129,-137.75999450683594 14.812000274658203,-188.031005859375 C42.44499969482422,-238.302001953125 99.69300079345703,-220.11099243164062 99.69300079345703,-220.11099243164062 C99.69300079345703,-220.11099243164062 131.03399658203125,-175.53399658203125 164.03199768066406,-150.4949951171875 C164.03199768066406,-150.4949951171875 86.38400268554688,-177.46099853515625 49.7760009765625,-124.1449966430664 C13.168000221252441,-70.8290023803711 10.380000114440918,-51.07600021362305 10.380000114440918,-51.07600021362305 C10.380000114440918,-51.07600021362305 1.034999966621399,-59.292999267578125 1.034999966621399,-59.292999267578125z"></path><path stroke-linecap="round" stroke-linejoin="round" fill-opacity="0" stroke="rgb(153,0,0)" stroke-opacity="1" stroke-width="9" d=" M1.034999966621399,-59.292999267578125 C1.034999966621399,-59.292999267578125 -12.821000099182129,-137.75999450683594 14.812000274658203,-188.031005859375 C42.44499969482422,-238.302001953125 99.69300079345703,-220.11099243164062 99.69300079345703,-220.11099243164062 C99.69300079345703,-220.11099243164062 131.03399658203125,-175.53399658203125 164.03199768066406,-150.4949951171875 C164.03199768066406,-150.4949951171875 86.38400268554688,-177.46099853515625 49.7760009765625,-124.1449966430664 C13.168000221252441,-70.8290023803711 10.380000114440918,-51.07600021362305 10.380000114440918,-51.07600021362305 C10.380000114440918,-51.07600021362305 1.034999966621399,-59.292999267578125 1.034999966621399,-59.292999267578125z"></path></g><g opacity="1" transform="matrix(1,0,0,1,0,0)"><path fill="url(#__lottie_element_9)" fill-opacity="1" d=" M7.382999897003174,-139.79400634765625 C7.382999897003174,-139.79400634765625 10.920999526977539,-185.2689971923828 38.709999084472656,-203.45799255371094 C66.4990005493164,-221.64700317382812 83.1729965209961,-215.58399963378906 83.1729965209961,-215.58399963378906 C83.1729965209961,-215.58399963378906 96.81500244140625,-185.7729949951172 125.11000061035156,-166.572998046875 C125.11000061035156,-166.572998046875 76.0999984741211,-166.0679931640625 55.888999938964844,-146.36300659179688 C35.678001403808594,-126.65799713134766 33.152000427246094,-117.05799865722656 33.152000427246094,-117.05799865722656 C33.152000427246094,-117.05799865722656 25.066999435424805,-141.81500244140625 7.382999897003174,-139.79400634765625z"></path></g></g><g opacity="1" transform="matrix(1,0,0,1,0,0)"><g opacity="1" transform="matrix(1,0,0,1,0,0)"><path fill="rgb(175,0,0)" fill-opacity="1" d=" M-28.724000930786133,-77.83899688720703 C-28.724000930786133,-77.83899688720703 -4.781000137329102,-64.73899841308594 -4.781000137329102,-64.73899841308594 C-4.781000137329102,-64.73899841308594 -11.22599983215332,-110.177001953125 -16.139999389648438,-159.23899841308594 C-21.054000854492188,-208.30099487304688 -79.5250015258789,-242.81399536132812 -113.53900146484375,-206.77099609375 C-113.53900146484375,-206.77099609375 -130.39300537109375,-150.66799926757812 -148.93899536132812,-120.90799713134766 C-148.93899536132812,-120.90799713134766 -123.80400085449219,-155.14700317382812 -89.16200256347656,-151.19900512695312 C-54.52000045776367,-147.25100708007812 -28.724000930786133,-77.83899688720703 -28.724000930786133,-77.83899688720703z"></path><path stroke-linecap="round" stroke-linejoin="round" fill-opacity="0" stroke="rgb(153,0,0)" stroke-opacity="1" stroke-width="9" d=" M-28.724000930786133,-77.83899688720703 C-28.724000930786133,-77.83899688720703 -4.781000137329102,-64.73899841308594 -4.781000137329102,-64.73899841308594 C-4.781000137329102,-64.73899841308594 -11.22599983215332,-110.177001953125 -16.139999389648438,-159.23899841308594 C-21.054000854492188,-208.30099487304688 -79.5250015258789,-242.81399536132812 -113.53900146484375,-206.77099609375 C-113.53900146484375,-206.77099609375 -130.39300537109375,-150.66799926757812 -148.93899536132812,-120.90799713134766 C-148.93899536132812,-120.90799713134766 -123.80400085449219,-155.14700317382812 -89.16200256347656,-151.19900512695312 C-54.52000045776367,-147.25100708007812 -28.724000930786133,-77.83899688720703 -28.724000930786133,-77.83899688720703z"></path></g><g opacity="1" transform="matrix(1,0,0,1,0,0)"><path fill="rgb(255,11,11)" fill-opacity="1" d=" M-4.781000137329102,-64.73899841308594 C-4.781000137329102,-64.73899841308594 -12.208999633789062,-81.54399871826172 -46.15800094604492,-110.4020004272461 C-80.10700225830078,-139.25999450683594 -132.58399963378906,-154.58299255371094 -113.53900146484375,-206.77099609375 C-113.53900146484375,-206.77099609375 -146.4409942626953,-136.94000244140625 -172.33399963378906,-109.0009994506836 C-172.33399963378906,-109.0009994506836 -165.0189971923828,-74.7300033569336 -119.40499877929688,-67.43099975585938 C-73.79100036621094,-60.13199996948242 -54.77799987792969,-79.86900329589844 -4.781000137329102,-64.73899841308594z"></path><path stroke-linecap="round" stroke-linejoin="round" fill-opacity="0" stroke="rgb(153,0,0)" stroke-opacity="1" stroke-width="9" d=" M-4.781000137329102,-64.73899841308594 C-4.781000137329102,-64.73899841308594 -12.208999633789062,-81.54399871826172 -46.15800094604492,-110.4020004272461 C-80.10700225830078,-139.25999450683594 -132.58399963378906,-154.58299255371094 -113.53900146484375,-206.77099609375 C-113.53900146484375,-206.77099609375 -146.4409942626953,-136.94000244140625 -172.33399963378906,-109.0009994506836 C-172.33399963378906,-109.0009994506836 -165.0189971923828,-74.7300033569336 -119.40499877929688,-67.43099975585938 C-73.79100036621094,-60.13199996948242 -54.77799987792969,-79.86900329589844 -4.781000137329102,-64.73899841308594z"></path></g><g opacity="1" transform="matrix(1,0,0,1,0,0)"><path fill="url(#__lottie_element_10)" fill-opacity="1" d=" M-158.34300231933594,-100.38400268554688 C-158.34300231933594,-100.38400268554688 -129.03799438476562,-116.552001953125 -117.41699981689453,-155.96299743652344 C-117.41699981689453,-155.96299743652344 -100.23799896240234,-130.19400024414062 -65.375,-114.53099822998047 C-65.375,-114.53099822998047 -100.23799896240234,-102.40499877929688 -105.7959976196289,-74.11000061035156 C-105.7959976196289,-74.11000061035156 -145.20599365234375,-75.6259994506836 -158.34300231933594,-100.38400268554688z"></path></g></g><g opacity="1" transform="matrix(1,0,0,1,0,0)"><g opacity="1" transform="matrix(1,0,0,1,0,0)"><path fill="rgb(255,11,11)" fill-opacity="1" d=" M5.52400016784668,-54.275001525878906 C5.52400016784668,-54.275001525878906 36.104000091552734,-45.76900100708008 53,-23.926000595092773 C69.89600372314453,-2.0829999446868896 113.77999877929688,8.210000038146973 113.77999877929688,8.210000038146973 C113.77999877929688,8.210000038146973 122.34100341796875,-27.485000610351562 143.86399841308594,-36.8650016784668 C143.86399841308594,-36.8650016784668 116.18800354003906,-34.95000076293945 94.21299743652344,-47.44499969482422 C72.23799896240234,-59.939998626708984 13.440999984741211,-67.89700317382812 -4.551000118255615,-60.198001861572266 C-4.551000118255615,-60.198001861572266 5.52400016784668,-54.275001525878906 5.52400016784668,-54.275001525878906z"></path><path stroke-linecap="round" stroke-linejoin="round" fill-opacity="0" stroke="rgb(153,0,0)" stroke-opacity="1" stroke-width="9" d=" M5.52400016784668,-54.275001525878906 C5.52400016784668,-54.275001525878906 36.104000091552734,-45.76900100708008 53,-23.926000595092773 C69.89600372314453,-2.0829999446868896 113.77999877929688,8.210000038146973 113.77999877929688,8.210000038146973 C113.77999877929688,8.210000038146973 122.34100341796875,-27.485000610351562 143.86399841308594,-36.8650016784668 C143.86399841308594,-36.8650016784668 116.18800354003906,-34.95000076293945 94.21299743652344,-47.44499969482422 C72.23799896240234,-59.939998626708984 13.440999984741211,-67.89700317382812 -4.551000118255615,-60.198001861572266 C-4.551000118255615,-60.198001861572266 5.52400016784668,-54.275001525878906 5.52400016784668,-54.275001525878906z"></path></g><g opacity="1" transform="matrix(1,0,0,1,0,0)"><path fill="rgb(255,11,11)" fill-opacity="1" d=" M0.7379999756813049,-61.76100158691406 C0.7379999756813049,-61.76100158691406 -31.663999557495117,-59.98099899291992 -48.41299819946289,-28.472999572753906 C-65.16200256347656,3.0350000858306885 -69.2249984741211,10.267000198364258 -69.2249984741211,10.267000198364258 C-69.2249984741211,10.267000198364258 -90.1989974975586,-15.407999992370605 -122.21399688720703,-17.027000427246094 C-154.22900390625,-18.645999908447266 -165.8520050048828,-17.94300079345703 -165.8520050048828,-17.94300079345703 C-165.8520050048828,-17.94300079345703 -128.83099365234375,-35.39799880981445 -85.33999633789062,-54.547000885009766 C-41.8489990234375,-73.69599914550781 -7.861999988555908,-69.8280029296875 -7.861999988555908,-69.8280029296875 C-7.861999988555908,-69.8280029296875 0.7379999756813049,-61.76100158691406 0.7379999756813049,-61.76100158691406z"></path><path stroke-linecap="round" stroke-linejoin="round" fill-opacity="0" stroke="rgb(153,0,0)" stroke-opacity="1" stroke-width="9" d=" M0.7379999756813049,-61.76100158691406 C0.7379999756813049,-61.76100158691406 -31.663999557495117,-59.98099899291992 -48.41299819946289,-28.472999572753906 C-65.16200256347656,3.0350000858306885 -69.2249984741211,10.267000198364258 -69.2249984741211,10.267000198364258 C-69.2249984741211,10.267000198364258 -90.1989974975586,-15.407999992370605 -122.21399688720703,-17.027000427246094 C-154.22900390625,-18.645999908447266 -165.8520050048828,-17.94300079345703 -165.8520050048828,-17.94300079345703 C-165.8520050048828,-17.94300079345703 -128.83099365234375,-35.39799880981445 -85.33999633789062,-54.547000885009766 C-41.8489990234375,-73.69599914550781 -7.861999988555908,-69.8280029296875 -7.861999988555908,-69.8280029296875 C-7.861999988555908,-69.8280029296875 0.7379999756813049,-61.76100158691406 0.7379999756813049,-61.76100158691406z"></path></g><g opacity="1" transform="matrix(1,0,0,1,0,0)"><path fill="rgb(255,11,11)" fill-opacity="1" d=" M-2.75600004196167,-85.38500213623047 C-2.75600004196167,-85.38500213623047 -7.418000221252441,-68.27300262451172 16.583999633789062,-50.59199905395508 C16.583999633789062,-50.59199905395508 11.131999969482422,-39.367000579833984 -13.605999946594238,-52.94499969482422 C-13.605999946594238,-52.94499969482422 -19.900999069213867,-57.59600067138672 -15.807999610900879,-78.08000183105469 C-15.807999610900879,-78.08000183105469 -15.355999946594238,-83.87100219726562 -2.75600004196167,-85.38500213623047z"></path><path stroke-linecap="round" stroke-linejoin="round" fill-opacity="0" stroke="rgb(153,0,0)" stroke-opacity="1" stroke-width="9" d=" M-2.75600004196167,-85.38500213623047 C-2.75600004196167,-85.38500213623047 -7.418000221252441,-68.27300262451172 16.583999633789062,-50.59199905395508 C16.583999633789062,-50.59199905395508 11.131999969482422,-39.367000579833984 -13.605999946594238,-52.94499969482422 C-13.605999946594238,-52.94499969482422 -19.900999069213867,-57.59600067138672 -15.807999610900879,-78.08000183105469 C-15.807999610900879,-78.08000183105469 -15.355999946594238,-83.87100219726562 -2.75600004196167,-85.38500213623047z"></path></g></g></g></g></svg>