<svg xmlns="http://www.w3.org/2000/svg" xmlns:xlink="http://www.w3.org/1999/xlink" viewBox="0 0 512 512" width="512" height="512" style="width: 100%; height: 100%; transform: translate3d(0,0,0); content-visibility: visible;" preserveAspectRatio="xMidYMid meet"><defs><clipPath id="__lottie_element_2"><rect width="512" height="512" x="0" y="0"></rect></clipPath><radialGradient id="__lottie_element_21" spreadMethod="pad" gradientUnits="userSpaceOnUse" cx="-0.07000000029802322" cy="-3.7309999465942383" r="48.04508426188756" fx="-0.07000000029802322" fy="-3.7309999465942383"><stop offset="50%" stop-color="rgb(247,166,38)"></stop><stop offset="75%" stop-color="rgb(247,166,38)"></stop><stop offset="100%" stop-color="rgb(247,166,38)"></stop></radialGradient><mask id="__lottie_element_23"><path fill="url(#__lottie_element_22)" d=" M-45.084999084472656,-3.5480000972747803 C-45.62799835205078,16.659000396728516 -40.75400161743164,23.60099983215332 -34.020999908447266,26.975000381469727 C-16.33099937438965,20.17799949645996 16.79400062561035,23.582000732421875 36.9370002746582,31.77400016784668 C40.83100128173828,30.58300018310547 44.71200180053711,24.062000274658203 45.25199890136719,-3.0799999237060547 C45.62699890136719,-21.937999725341797 41.314998626708984,-31.45199966430664 36.46699905395508,-35.72100067138672 C16.350000381469727,-31.14299964904785 -22.246999740600586,-35.97800064086914 -32.946998596191406,-38.95600128173828 C-38.31700134277344,-37.215999603271484 -44.527000427246094,-24.319000244140625 -45.084999084472656,-3.5480000972747803z"></path></mask><radialGradient id="__lottie_element_22" spreadMethod="pad" gradientUnits="userSpaceOnUse" cx="-0.07000000029802322" cy="-3.7309999465942383" r="48.04508426188756" fx="-0.07000000029802322" fy="-3.7309999465942383"><stop stop-color="rgb(255,255,255)" offset="50%" stop-opacity="1"></stop><stop stop-color="rgb(255,255,255)" offset="88%" stop-opacity="0.5"></stop><stop stop-color="rgb(255,255,255)" offset="100%" stop-opacity="0"></stop></radialGradient><radialGradient id="__lottie_element_24" spreadMethod="pad" gradientUnits="userSpaceOnUse" cx="1.5750000476837158" cy="-2.684999942779541" r="62.59681907915368" fx="1.5750000476837158" fy="-2.684999942779541"><stop offset="55%" stop-color="rgb(255,252,0)"></stop><stop offset="78%" stop-color="rgb(250,226,4)"></stop><stop offset="100%" stop-color="rgb(246,200,7)"></stop></radialGradient><linearGradient id="__lottie_element_27" spreadMethod="pad" gradientUnits="userSpaceOnUse" x1="-2.0980000495910645" y1="1.3930000066757202" x2="-3.384000062942505" y2="26.81100082397461"><stop offset="0%" stop-color="rgb(223,143,0)" stop-opacity="0"></stop><stop offset="50%" stop-color="rgb(223,143,0)" stop-opacity="0.5"></stop><stop offset="100%" stop-color="rgb(223,143,0)" stop-opacity="1"></stop></linearGradient><linearGradient id="__lottie_element_28" spreadMethod="pad" gradientUnits="userSpaceOnUse" x1="0.7559999823570251" y1="25.606000900268555" x2="1.1180000305175781" y2="3.4110000133514404"><stop offset="0%" stop-color="rgb(255,255,94)" stop-opacity="0"></stop><stop offset="50%" stop-color="rgb(255,255,94)" stop-opacity="0.5"></stop><stop offset="100%" stop-color="rgb(255,255,94)" stop-opacity="1"></stop></linearGradient><radialGradient id="__lottie_element_33" spreadMethod="pad" gradientUnits="userSpaceOnUse" cx="7.123000144958496" cy="-3.687999963760376" r="150.24952272078346" fx="7.123000144958496" fy="-3.687999963760376"><stop offset="82%" stop-color="rgb(255,252,0)"></stop><stop offset="91%" stop-color="rgb(250,226,4)"></stop><stop offset="100%" stop-color="rgb(246,200,7)"></stop></radialGradient><linearGradient id="__lottie_element_34" spreadMethod="pad" gradientUnits="userSpaceOnUse" x1="-60.44599914550781" y1="-2.496000051498413" x2="62.926998138427734" y2="-5.2820000648498535"><stop offset="0%" stop-color="rgb(196,132,39)" stop-opacity="0"></stop><stop offset="18%" stop-color="rgb(192,134,49)" stop-opacity="0.5"></stop><stop offset="36%" stop-color="rgb(187,135,60)" stop-opacity="1"></stop><stop offset="48%" stop-color="rgb(183,136,67)" stop-opacity="1"></stop><stop offset="60%" stop-color="rgb(179,137,73)" stop-opacity="1"></stop><stop offset="80%" stop-color="rgb(179,137,73)" stop-opacity="0.5"></stop><stop offset="100%" stop-color="rgb(179,137,73)" stop-opacity="0"></stop></linearGradient><radialGradient id="__lottie_element_40" spreadMethod="pad" gradientUnits="userSpaceOnUse" cx="-2.990000009536743" cy="17.39900016784668" r="85.72659984323009" fx="-2.990000009536743" fy="17.39900016784668"><stop offset="0%" stop-color="rgb(247,166,38)" stop-opacity="1"></stop><stop offset="50%" stop-color="rgb(247,166,38)" stop-opacity="0.5"></stop><stop offset="100%" stop-color="rgb(247,166,38)" stop-opacity="0"></stop></radialGradient><linearGradient id="__lottie_element_41" spreadMethod="pad" gradientUnits="userSpaceOnUse" x1="24.945999145507812" y1="-1.6100000143051147" x2="-24.22100067138672" y2="2.430000066757202"><stop offset="0%" stop-color="rgb(247,166,38)" stop-opacity="0"></stop><stop offset="50%" stop-color="rgb(247,166,38)" stop-opacity="0.5"></stop><stop offset="100%" stop-color="rgb(247,166,38)" stop-opacity="1"></stop></linearGradient><linearGradient id="__lottie_element_42" spreadMethod="pad" gradientUnits="userSpaceOnUse" x1="-35.737998962402344" y1="-26.704999923706055" x2="7.11299991607666" y2="8.755000114440918"><stop offset="0%" stop-color="rgb(247,166,38)" stop-opacity="0"></stop><stop offset="50%" stop-color="rgb(247,166,38)" stop-opacity="0.5"></stop><stop offset="100%" stop-color="rgb(247,166,38)" stop-opacity="1"></stop></linearGradient><linearGradient id="__lottie_element_43" spreadMethod="pad" gradientUnits="userSpaceOnUse" x1="-20.801000595092773" y1="-4.769999980926514" x2="26.764999389648438" y2="8.506999969482422"><stop offset="0%" stop-color="rgb(247,166,38)" stop-opacity="0"></stop><stop offset="50%" stop-color="rgb(247,166,38)" stop-opacity="0.5"></stop><stop offset="100%" stop-color="rgb(247,166,38)" stop-opacity="1"></stop></linearGradient><linearGradient id="__lottie_element_44" spreadMethod="pad" gradientUnits="userSpaceOnUse" x1="-20.88599967956543" y1="36.19300079345703" x2="-50.698001861572266" y2="34.75600051879883"><stop offset="0%" stop-color="rgb(153,86,5)" stop-opacity="0"></stop><stop offset="50%" stop-color="rgb(153,86,5)" stop-opacity="0.5"></stop><stop offset="100%" stop-color="rgb(153,86,5)" stop-opacity="1"></stop></linearGradient><linearGradient id="__lottie_element_45" spreadMethod="pad" gradientUnits="userSpaceOnUse" x1="43.53799819946289" y1="289.4440002441406" x2="130.92599487304688" y2="289.5790100097656"><stop offset="0%" stop-color="rgb(255,255,165)" stop-opacity="0"></stop><stop offset="50%" stop-color="rgb(255,255,159)" stop-opacity="0.5"></stop><stop offset="100%" stop-color="rgb(255,255,152)" stop-opacity="1"></stop></linearGradient><linearGradient id="__lottie_element_46" spreadMethod="pad" gradientUnits="userSpaceOnUse" x1="80.69200134277344" y1="306.68499755859375" x2="103.88400268554688" y2="277.2239990234375"><stop offset="0%" stop-color="rgb(255,255,165)" stop-opacity="0"></stop><stop offset="50%" stop-color="rgb(255,255,159)" stop-opacity="0.5"></stop><stop offset="100%" stop-color="rgb(255,255,152)" stop-opacity="1"></stop></linearGradient><linearGradient id="__lottie_element_50" spreadMethod="pad" gradientUnits="userSpaceOnUse" x1="13.970000267028809" y1="-2.6760001182556152" x2="-4.934999942779541" y2="-0.09799999743700027"><stop offset="0%" stop-color="rgb(223,143,0)" stop-opacity="0"></stop><stop offset="50%" stop-color="rgb(223,143,0)" stop-opacity="0.5"></stop><stop offset="100%" stop-color="rgb(223,143,0)" stop-opacity="1"></stop></linearGradient><linearGradient id="__lottie_element_54" spreadMethod="pad" gradientUnits="userSpaceOnUse" x1="34.72100067138672" y1="-0.6330000162124634" x2="81.37799835205078" y2="-0.6330000162124634"><stop offset="0%" stop-color="rgb(255,252,0)"></stop><stop offset="50%" stop-color="rgb(253,237,29)"></stop><stop offset="100%" stop-color="rgb(252,223,57)"></stop></linearGradient><linearGradient id="__lottie_element_62" spreadMethod="pad" gradientUnits="userSpaceOnUse" x1="23.843000411987305" y1="-45.310001373291016" x2="30.131999969482422" y2="44.064998626708984"><stop offset="0%" stop-color="rgb(208,166,24)"></stop><stop offset="23%" stop-color="rgb(232,186,12)"></stop><stop offset="46%" stop-color="rgb(255,206,0)"></stop><stop offset="52%" stop-color="rgb(251,207,35)"></stop><stop offset="58%" stop-color="rgb(247,208,70)"></stop><stop offset="79%" stop-color="rgb(233,187,65)"></stop><stop offset="100%" stop-color="rgb(219,165,60)"></stop></linearGradient><linearGradient id="__lottie_element_63" spreadMethod="pad" gradientUnits="userSpaceOnUse" x1="37.643001556396484" y1="16.360000610351562" x2="-2.3420000076293945" y2="3.2219998836517334"><stop offset="0%" stop-color="rgb(255,253,29)" stop-opacity="1"></stop><stop offset="50%" stop-color="rgb(255,252,15)" stop-opacity="0.5"></stop><stop offset="100%" stop-color="rgb(255,252,0)" stop-opacity="0"></stop></linearGradient><linearGradient id="__lottie_element_64" spreadMethod="pad" gradientUnits="userSpaceOnUse" x1="3.1989998817443848" y1="0.8230000138282776" x2="-10.277999877929688" y2="38.35900115966797"><stop offset="0%" stop-color="rgb(194,155,24)" stop-opacity="0"></stop><stop offset="50%" stop-color="rgb(194,155,24)" stop-opacity="0.5"></stop><stop offset="100%" stop-color="rgb(194,155,24)" stop-opacity="1"></stop></linearGradient><linearGradient id="__lottie_element_67" spreadMethod="pad" gradientUnits="userSpaceOnUse" x1="0.6019999980926514" y1="-26.57200050354004" x2="-4.409999847412109" y2="16.677000045776367"><stop offset="0%" stop-color="rgb(206,117,0)" stop-opacity="1"></stop><stop offset="50%" stop-color="rgb(206,117,0)" stop-opacity="0.6100000143051147"></stop><stop offset="100%" stop-color="rgb(206,117,0)" stop-opacity="0.2199999988079071"></stop></linearGradient><linearGradient id="__lottie_element_72" spreadMethod="pad" gradientUnits="userSpaceOnUse" x1="-17.513999938964844" y1="-35.09299850463867" x2="1.6160000562667847" y2="50.987998962402344"><stop offset="0%" stop-color="rgb(208,166,24)"></stop><stop offset="23%" stop-color="rgb(232,186,12)"></stop><stop offset="46%" stop-color="rgb(255,206,0)"></stop><stop offset="52%" stop-color="rgb(251,207,35)"></stop><stop offset="58%" stop-color="rgb(247,208,70)"></stop><stop offset="79%" stop-color="rgb(233,187,65)"></stop><stop offset="100%" stop-color="rgb(219,165,60)"></stop></linearGradient><linearGradient id="__lottie_element_73" spreadMethod="pad" gradientUnits="userSpaceOnUse" x1="-48.143001556396484" y1="14.03600025177002" x2="-11.043000221252441" y2="6.160999774932861"><stop offset="0%" stop-color="rgb(255,253,29)" stop-opacity="1"></stop><stop offset="50%" stop-color="rgb(255,252,15)" stop-opacity="0.5"></stop><stop offset="100%" stop-color="rgb(255,252,0)" stop-opacity="0"></stop></linearGradient><linearGradient id="__lottie_element_74" spreadMethod="pad" gradientUnits="userSpaceOnUse" x1="8.128999710083008" y1="8.845000267028809" x2="30.750999450683594" y2="51.35499954223633"><stop offset="0%" stop-color="rgb(194,155,24)" stop-opacity="0"></stop><stop offset="50%" stop-color="rgb(194,155,24)" stop-opacity="0.5"></stop><stop offset="100%" stop-color="rgb(194,155,24)" stop-opacity="1"></stop></linearGradient><linearGradient id="__lottie_element_77" spreadMethod="pad" gradientUnits="userSpaceOnUse" x1="-23.829999923706055" y1="-41.58300018310547" x2="-30.51799964904785" y2="-19.559999465942383"><stop offset="0%" stop-color="rgb(255,254,213)" stop-opacity="0"></stop><stop offset="50%" stop-color="rgb(255,254,213)" stop-opacity="0.5"></stop><stop offset="100%" stop-color="rgb(255,254,212)" stop-opacity="1"></stop></linearGradient><linearGradient id="__lottie_element_78" spreadMethod="pad" gradientUnits="userSpaceOnUse" x1="187.52099609375" y1="344.4070129394531" x2="191.6320037841797" y2="427.5199890136719"><stop offset="0%" stop-color="rgb(255,253,60)"></stop><stop offset="50%" stop-color="rgb(255,253,81)"></stop><stop offset="100%" stop-color="rgb(255,253,101)"></stop></linearGradient><mask id="__lottie_element_80"><path fill="url(#__lottie_element_79)" d=" M184.1909942626953,337.8500061035156 C188.427001953125,355.2130126953125 194.6300048828125,391.5920104980469 185.9010009765625,436.2380065917969 C190.6739959716797,434.7900085449219 193.6009979248047,432.3089904785156 193.99600219726562,430.3630065917969 C202.0070037841797,390.8919982910156 190.75100708007812,343.406005859375 186.98399353027344,336.60198974609375 C186.05299377441406,336.718994140625 185.57899475097656,337.4800109863281 184.1909942626953,337.8500061035156z"></path></mask><linearGradient id="__lottie_element_79" spreadMethod="pad" gradientUnits="userSpaceOnUse" x1="187.52099609375" y1="344.4070129394531" x2="191.6320037841797" y2="427.5199890136719"><stop stop-color="rgb(255,255,255)" offset="0%" stop-opacity="0.33000001311302185"></stop><stop stop-color="rgb(255,255,255)" offset="15%" stop-opacity="0.6650000214576721"></stop><stop stop-color="rgb(255,255,255)" offset="31%" stop-opacity="1"></stop><stop stop-color="rgb(255,255,255)" offset="48%" stop-opacity="1"></stop><stop stop-color="rgb(255,255,255)" offset="65%" stop-opacity="1"></stop><stop stop-color="rgb(255,255,255)" offset="82%" stop-opacity="0.6650000214576721"></stop><stop stop-color="rgb(255,255,255)" offset="100%" stop-opacity="0.33000001311302185"></stop></linearGradient><clipPath id="__lottie_element_82"><path d="M0,0 L712,0 L712,512 L0,512z"></path></clipPath><radialGradient id="__lottie_element_90" spreadMethod="pad" gradientUnits="userSpaceOnUse"><stop></stop><stop></stop><stop></stop></radialGradient><mask id="__lottie_element_92"><path fill="url(#__lottie_element_91)"></path></mask><radialGradient id="__lottie_element_91" spreadMethod="pad" gradientUnits="userSpaceOnUse"><stop stop-color="rgb(255,255,255)"></stop><stop stop-color="rgb(255,255,255)"></stop><stop stop-color="rgb(255,255,255)"></stop></radialGradient><radialGradient id="__lottie_element_93" spreadMethod="pad" gradientUnits="userSpaceOnUse"><stop></stop><stop></stop><stop></stop></radialGradient><linearGradient id="__lottie_element_96" spreadMethod="pad" gradientUnits="userSpaceOnUse"><stop></stop><stop></stop><stop></stop></linearGradient><linearGradient id="__lottie_element_97" spreadMethod="pad" gradientUnits="userSpaceOnUse"><stop></stop><stop></stop><stop></stop></linearGradient><radialGradient id="__lottie_element_102" spreadMethod="pad" gradientUnits="userSpaceOnUse"><stop></stop><stop></stop><stop></stop></radialGradient><linearGradient id="__lottie_element_103" spreadMethod="pad" gradientUnits="userSpaceOnUse"><stop></stop><stop></stop><stop></stop><stop></stop><stop></stop><stop></stop><stop></stop></linearGradient><radialGradient id="__lottie_element_109" spreadMethod="pad" gradientUnits="userSpaceOnUse"><stop></stop><stop></stop><stop></stop></radialGradient><linearGradient id="__lottie_element_110" spreadMethod="pad" gradientUnits="userSpaceOnUse"><stop></stop><stop></stop><stop></stop></linearGradient><linearGradient id="__lottie_element_111" spreadMethod="pad" gradientUnits="userSpaceOnUse"><stop></stop><stop></stop><stop></stop></linearGradient><linearGradient id="__lottie_element_112" spreadMethod="pad" gradientUnits="userSpaceOnUse"><stop></stop><stop></stop><stop></stop></linearGradient><linearGradient id="__lottie_element_113" spreadMethod="pad" gradientUnits="userSpaceOnUse"><stop></stop><stop></stop><stop></stop></linearGradient><linearGradient id="__lottie_element_114" spreadMethod="pad" gradientUnits="userSpaceOnUse"><stop></stop><stop></stop><stop></stop></linearGradient><linearGradient id="__lottie_element_115" spreadMethod="pad" gradientUnits="userSpaceOnUse"><stop></stop><stop></stop><stop></stop></linearGradient><linearGradient id="__lottie_element_119" spreadMethod="pad" gradientUnits="userSpaceOnUse"><stop></stop><stop></stop><stop></stop></linearGradient><linearGradient id="__lottie_element_123" spreadMethod="pad" gradientUnits="userSpaceOnUse"><stop></stop><stop></stop><stop></stop></linearGradient><linearGradient id="__lottie_element_131" spreadMethod="pad" gradientUnits="userSpaceOnUse"><stop></stop><stop></stop><stop></stop><stop></stop><stop></stop><stop></stop><stop></stop></linearGradient><linearGradient id="__lottie_element_132" spreadMethod="pad" gradientUnits="userSpaceOnUse"><stop></stop><stop></stop><stop></stop></linearGradient><linearGradient id="__lottie_element_133" spreadMethod="pad" gradientUnits="userSpaceOnUse"><stop></stop><stop></stop><stop></stop></linearGradient><linearGradient id="__lottie_element_136" spreadMethod="pad" gradientUnits="userSpaceOnUse"><stop></stop><stop></stop><stop></stop></linearGradient><linearGradient id="__lottie_element_141" spreadMethod="pad" gradientUnits="userSpaceOnUse"><stop></stop><stop></stop><stop></stop><stop></stop><stop></stop><stop></stop><stop></stop></linearGradient><linearGradient id="__lottie_element_142" spreadMethod="pad" gradientUnits="userSpaceOnUse"><stop></stop><stop></stop><stop></stop></linearGradient><linearGradient id="__lottie_element_143" spreadMethod="pad" gradientUnits="userSpaceOnUse"><stop></stop><stop></stop><stop></stop></linearGradient><linearGradient id="__lottie_element_146" spreadMethod="pad" gradientUnits="userSpaceOnUse"><stop></stop><stop></stop><stop></stop></linearGradient><linearGradient id="__lottie_element_147" spreadMethod="pad" gradientUnits="userSpaceOnUse"><stop></stop><stop></stop><stop></stop></linearGradient><mask id="__lottie_element_149"><path fill="url(#__lottie_element_148)"></path></mask><linearGradient id="__lottie_element_148" spreadMethod="pad" gradientUnits="userSpaceOnUse"><stop stop-color="rgb(255,255,255)"></stop><stop stop-color="rgb(255,255,255)"></stop><stop stop-color="rgb(255,255,255)"></stop><stop stop-color="rgb(255,255,255)"></stop><stop stop-color="rgb(255,255,255)"></stop><stop stop-color="rgb(255,255,255)"></stop><stop stop-color="rgb(255,255,255)"></stop></linearGradient><linearGradient id="__lottie_element_154" spreadMethod="pad" gradientUnits="userSpaceOnUse" x1="117.2760009765625" y1="0.492000013589859" x2="-87.34200286865234" y2="0.289000004529953"><stop offset="0%" stop-color="rgb(255,242,62)"></stop><stop offset="20%" stop-color="rgb(254,242,81)"></stop><stop offset="39%" stop-color="rgb(253,242,99)"></stop><stop offset="52%" stop-color="rgb(253,242,99)"></stop><stop offset="65%" stop-color="rgb(253,242,99)"></stop><stop offset="83%" stop-color="rgb(252,233,78)"></stop><stop offset="100%" stop-color="rgb(252,223,57)"></stop></linearGradient><linearGradient id="__lottie_element_157" spreadMethod="pad" gradientUnits="userSpaceOnUse" x1="-12.074999809265137" y1="-6.5370001792907715" x2="17.965999603271484" y2="10.428999900817871"><stop offset="0%" stop-color="rgb(153,86,5)" stop-opacity="0"></stop><stop offset="50%" stop-color="rgb(181,103,3)" stop-opacity="0.5"></stop><stop offset="100%" stop-color="rgb(208,121,0)" stop-opacity="1"></stop></linearGradient><linearGradient id="__lottie_element_181" spreadMethod="pad" gradientUnits="userSpaceOnUse" x1="-0.11299999803304672" y1="12.35200023651123" x2="0.0820000022649765" y2="260.47698974609375"><stop offset="0%" stop-color="rgb(232,44,151)"></stop><stop offset="50%" stop-color="rgb(213,44,140)"></stop><stop offset="100%" stop-color="rgb(194,44,129)"></stop></linearGradient><linearGradient id="__lottie_element_184" spreadMethod="pad" gradientUnits="userSpaceOnUse" x1="-3.562000036239624" y1="262.01800537109375" x2="-7.968999862670898" y2="54.22800064086914"><stop offset="0%" stop-color="rgb(194,44,129)"></stop><stop offset="50%" stop-color="rgb(223,51,148)"></stop><stop offset="100%" stop-color="rgb(252,59,168)"></stop></linearGradient><radialGradient id="__lottie_element_185" spreadMethod="pad" gradientUnits="userSpaceOnUse" cx="-7.021999835968018" cy="66.18699645996094" r="115.14718410827568" fx="-6.193406121511755" fy="104.20187041963797"><stop offset="0%" stop-color="rgb(254,69,179)"></stop><stop offset="88%" stop-color="rgb(244,77,177)"></stop><stop offset="100%" stop-color="rgb(234,85,176)"></stop></radialGradient><mask id="__lottie_element_187"><path fill="url(#__lottie_element_186)" d=" M166.01400756835938,-31.996999740600586 C168.04200744628906,-74.16899871826172 138.94900512695312,-117.0999984741211 84.39199829101562,-117.30999755859375 C25.033000946044922,-117.53800201416016 -5.925000190734863,-46.314998626708984 -7.624000072479248,-41.882999420166016 C-7.681000232696533,-41.73500061035156 -7.709000110626221,-41.659000396728516 -7.709000110626221,-41.659000396728516 C-7.709000110626221,-41.659000396728516 -37.20800018310547,-116.91899871826172 -102.00599670410156,-116.73500061035156 C-156.56300354003906,-116.58000183105469 -183.11700439453125,-72.91899871826172 -182.09100341796875,-33.24700164794922 C-181.28199768066406,-1.968999981880188 -169.92799377441406,34.4379997253418 -127.23400115966797,91.49800109863281 C-112.20800018310547,111.58100128173828 -100.53700256347656,125.88200378417969 -82.99500274658203,144.8090057373047 C-26.20800018310547,206.08099365234375 6.791999816894531,209.08099365234375 65.5780029296875,145.8090057373047 C80.4729995727539,129.7779998779297 95.29100036621094,113.08100128173828 110.81700134277344,93.49800109863281 C155.0919952392578,37.65599822998047 164.51100158691406,-0.7450000047683716 166.01400756835938,-31.996999740600586z"></path></mask><radialGradient id="__lottie_element_186" spreadMethod="pad" gradientUnits="userSpaceOnUse" cx="-7.021999835968018" cy="66.18699645996094" r="115.14718410827568" fx="-6.193406121511755" fy="104.20187041963797"><stop stop-color="rgb(255,255,255)" offset="0%" stop-opacity="1"></stop><stop stop-color="rgb(255,255,255)" offset="50%" stop-opacity="0.5"></stop><stop stop-color="rgb(255,255,255)" offset="100%" stop-opacity="0"></stop></radialGradient><linearGradient id="__lottie_element_188" spreadMethod="pad" gradientUnits="userSpaceOnUse" x1="-88.1449966430664" y1="-109.84600067138672" x2="-89.31800079345703" y2="-160.66799926757812"><stop offset="0%" stop-color="rgb(255,255,255)"></stop><stop offset="50%" stop-color="rgb(255,255,253)"></stop><stop offset="100%" stop-color="rgb(255,255,251)"></stop></linearGradient><mask id="__lottie_element_190"><path fill="url(#__lottie_element_189)" d=" M-135,-156 C-206.8280029296875,-117.04299926757812 -166.24099731445312,-20.42300033569336 -138.24400329589844,16.21299934387207 C-115.24400329589844,-37.7869987487793 -23,-85 -1,-90.5 C-22.92099952697754,-141.83399963378906 -74.85199737548828,-188.6219940185547 -135,-156z"></path></mask><linearGradient id="__lottie_element_189" spreadMethod="pad" gradientUnits="userSpaceOnUse" x1="-88.1449966430664" y1="-109.84600067138672" x2="-89.31800079345703" y2="-160.66799926757812"><stop stop-color="rgb(255,255,255)" offset="0%" stop-opacity="0"></stop><stop stop-color="rgb(255,255,255)" offset="69%" stop-opacity="0.5"></stop><stop stop-color="rgb(255,255,255)" offset="100%" stop-opacity="1"></stop></linearGradient><linearGradient id="__lottie_element_191" spreadMethod="pad" gradientUnits="userSpaceOnUse" x1="-88.1449966430664" y1="-109.84600067138672" x2="-89.31800079345703" y2="-160.66799926757812"><stop offset="0%" stop-color="rgb(255,255,255)"></stop><stop offset="50%" stop-color="rgb(255,255,253)"></stop><stop offset="100%" stop-color="rgb(255,255,251)"></stop></linearGradient><mask id="__lottie_element_193"><path fill="url(#__lottie_element_192)" d=" M-135,-156 C-204.60299682617188,-122.47599792480469 -174.28799438476562,-20.11400032043457 -131.78700256347656,28.180999755859375 C-108.78700256347656,-25.819000244140625 -25,-85.42500305175781 -3,-90.92500305175781 C-18.381999969482422,-133.1060028076172 -68.63400268554688,-187.96499633789062 -135,-156z"></path></mask><linearGradient id="__lottie_element_192" spreadMethod="pad" gradientUnits="userSpaceOnUse" x1="-88.1449966430664" y1="-109.84600067138672" x2="-89.31800079345703" y2="-160.66799926757812"><stop stop-color="rgb(255,255,255)" offset="0%" stop-opacity="0"></stop><stop stop-color="rgb(255,255,255)" offset="69%" stop-opacity="0.5"></stop><stop stop-color="rgb(255,255,255)" offset="100%" stop-opacity="1"></stop></linearGradient></defs><g clip-path="url(#__lottie_element_2)"><g style="display: none;"><g><path></path><path stroke-linecap="round" stroke-linejoin="round" fill-opacity="0"></path></g></g><g style="display: none;"><g><path></path><path stroke-linecap="round" stroke-linejoin="round" fill-opacity="0"></path></g></g><g style="display: none;"><g><path></path><path stroke-linecap="round" stroke-linejoin="round" fill-opacity="0"></path></g></g><g style="display: none;"><g><path></path><path stroke-linecap="butt" stroke-linejoin="miter" fill-opacity="0" stroke-miterlimit="4"></path></g></g><g style="display: block;" transform="matrix(1,0,0,1,-3,0)" opacity="1"><g opacity="1" transform="matrix(1,0,0,1,264.7080078125,256.3269958496094)"><path fill="url(#__lottie_element_181)" fill-opacity="1" d=" M0,236.01499938964844 C-6.586999893188477,236.01499938964844 -12.800999641418457,233.46600341796875 -17.496000289916992,228.83900451660156 C-45.755001068115234,200.98399353027344 -116.83399963378906,129.22999572753906 -166.3990020751953,64.7020034790039 C-196.5659942626953,25.427000045776367 -216.7830047607422,-9.440999984741211 -228.20199584960938,-41.893001556396484 C-237.69500732421875,-68.86900329589844 -241.8459930419922,-94.52400207519531 -239.51699829101562,-122.50800323486328 C-232.70899963378906,-204.32699584960938 -165.62899780273438,-239.60299682617188 -117.80999755859375,-235.9759979248047 C-69.70899963378906,-232.32699584960938 -27.708999633789062,-207.3280029296875 -4.09499979019165,-166.3179931640625 C-4.09499979019165,-166.3179931640625 0,-160.4739990234375 0,-160.4739990234375 C0,-160.4739990234375 4.09499979019165,-166.3179931640625 4.09499979019165,-166.3179931640625 C31.79199981689453,-210.3280029296875 73.83899688720703,-232.44900512695312 117.30899810791016,-234.47500610351562 C167.79200744628906,-236.82699584960938 234.79200744628906,-203.82699584960938 239.51699829101562,-122.50800323486328 C241.14599609375,-94.47699737548828 237.69400024414062,-68.87000274658203 228.2010040283203,-41.89400100708008 C216.77999877929688,-9.437999725341797 196.56399536132812,25.430999755859375 166.3990020751953,64.7020034790039 C116.822998046875,129.2429962158203 45.750999450683594,200.98699951171875 17.4950008392334,228.83900451660156 C12.800000190734863,233.46600341796875 6.586999893188477,236.01499938964844 0,236.01499938964844z"></path><path stroke-linecap="butt" stroke-linejoin="miter" fill-opacity="0" stroke-miterlimit="10" stroke="rgb(165,34,114)" stroke-opacity="1" stroke-width="8" d=" M0,236.01499938964844 C-6.586999893188477,236.01499938964844 -12.800999641418457,233.46600341796875 -17.496000289916992,228.83900451660156 C-45.755001068115234,200.98399353027344 -116.83399963378906,129.22999572753906 -166.3990020751953,64.7020034790039 C-196.5659942626953,25.427000045776367 -216.7830047607422,-9.440999984741211 -228.20199584960938,-41.893001556396484 C-237.69500732421875,-68.86900329589844 -241.8459930419922,-94.52400207519531 -239.51699829101562,-122.50800323486328 C-232.70899963378906,-204.32699584960938 -165.62899780273438,-239.60299682617188 -117.80999755859375,-235.9759979248047 C-69.70899963378906,-232.32699584960938 -27.708999633789062,-207.3280029296875 -4.09499979019165,-166.3179931640625 C-4.09499979019165,-166.3179931640625 0,-160.4739990234375 0,-160.4739990234375 C0,-160.4739990234375 4.09499979019165,-166.3179931640625 4.09499979019165,-166.3179931640625 C31.79199981689453,-210.3280029296875 73.83899688720703,-232.44900512695312 117.30899810791016,-234.47500610351562 C167.79200744628906,-236.82699584960938 234.79200744628906,-203.82699584960938 239.51699829101562,-122.50800323486328 C241.14599609375,-94.47699737548828 237.69400024414062,-68.87000274658203 228.2010040283203,-41.89400100708008 C216.77999877929688,-9.437999725341797 196.56399536132812,25.430999755859375 166.3990020751953,64.7020034790039 C116.822998046875,129.2429962158203 45.750999450683594,200.98699951171875 17.4950008392334,228.83900451660156 C12.800000190734863,233.46600341796875 6.586999893188477,236.01499938964844 0,236.01499938964844z"></path></g></g><g style="display: block;" transform="matrix(1,0,0,1,-3,0)" opacity="1"><g opacity="1" transform="matrix(1.2699999809265137,0,0,1.2699999809265137,274.7080078125,185.7729949951172)"><path fill="url(#__lottie_element_184)" fill-opacity="1" d=" M166.01400756835938,-31.996999740600586 C168.04200744628906,-74.16899871826172 138.94900512695312,-117.0999984741211 84.39199829101562,-117.30999755859375 C25.033000946044922,-117.53800201416016 -5.925000190734863,-46.314998626708984 -7.624000072479248,-41.882999420166016 C-7.681000232696533,-41.73500061035156 -7.709000110626221,-41.659000396728516 -7.709000110626221,-41.659000396728516 C-7.709000110626221,-41.659000396728516 -37.20800018310547,-116.91899871826172 -102.00599670410156,-116.73500061035156 C-156.56300354003906,-116.58000183105469 -183.11700439453125,-72.91899871826172 -182.09100341796875,-33.24700164794922 C-181.28199768066406,-1.968999981880188 -169.92799377441406,34.4379997253418 -127.23400115966797,91.49800109863281 C-112.20800018310547,111.58100128173828 -100.53700256347656,125.88200378417969 -82.99500274658203,144.8090057373047 C-26.20800018310547,206.08099365234375 6.791999816894531,209.08099365234375 65.5780029296875,145.8090057373047 C80.4729995727539,129.7779998779297 95.29100036621094,113.08100128173828 110.81700134277344,93.49800109863281 C155.0919952392578,37.65599822998047 164.51100158691406,-0.7450000047683716 166.01400756835938,-31.996999740600586z"></path><path fill="url(#__lottie_element_185)" mask="url(#__lottie_element_187)" fill-opacity="1" d="M0 0 M166.01400756835938,-31.996999740600586 C168.04200744628906,-74.16899871826172 138.94900512695312,-117.0999984741211 84.39199829101562,-117.30999755859375 C25.033000946044922,-117.53800201416016 -5.925000190734863,-46.314998626708984 -7.624000072479248,-41.882999420166016 C-7.681000232696533,-41.73500061035156 -7.709000110626221,-41.659000396728516 -7.709000110626221,-41.659000396728516 C-7.709000110626221,-41.659000396728516 -37.20800018310547,-116.91899871826172 -102.00599670410156,-116.73500061035156 C-156.56300354003906,-116.58000183105469 -183.11700439453125,-72.91899871826172 -182.09100341796875,-33.24700164794922 C-181.28199768066406,-1.968999981880188 -169.92799377441406,34.4379997253418 -127.23400115966797,91.49800109863281 C-112.20800018310547,111.58100128173828 -100.53700256347656,125.88200378417969 -82.99500274658203,144.8090057373047 C-26.20800018310547,206.08099365234375 6.791999816894531,209.08099365234375 65.5780029296875,145.8090057373047 C80.4729995727539,129.7779998779297 95.29100036621094,113.08100128173828 110.81700134277344,93.49800109863281 C155.0919952392578,37.65599822998047 164.51100158691406,-0.7450000047683716 166.01400756835938,-31.996999740600586z"></path></g><g opacity="1" transform="matrix(1.2699999809265137,0,0,1.2699999809265137,265.77685546875,248.43728637695312)"><g opacity="1" transform="matrix(1,0,0,1,0,0)"><path fill="rgb(255,255,255)" fill-opacity="0.02" d=" M-135,-156 C-207,-117 -161.83200073242188,-16.190000534057617 -138.40899658203125,16 C-164.40899658203125,-28 -146,-69.75 -118.98799896240234,-90.21900177001953 C-83.70500183105469,-116.95600128173828 -33,-109.5 -1,-90.5 C-18.524999618530273,-138.04100036621094 -74.83399963378906,-188.58999633789062 -135,-156z"></path></g><g opacity="1" transform="matrix(1,0,0,1,0,0)"><path fill="rgb(255,255,255)" fill-opacity="0.02" d=" M-135,-156 C-207,-117 -162.9149932861328,-19.34000015258789 -145.65899658203125,4.802999973297119 C-167.40899658203125,-31.19700050354004 -150.41400146484375,-73.51000213623047 -121.73799896240234,-94.71900177001953 C-83.5,-123 -31.5,-115.5 -2.5,-94.25 C-21.674999237060547,-139.02499389648438 -74.83399963378906,-188.58999633789062 -135,-156z"></path></g><g opacity="1" transform="matrix(1,0,0,1,0,0)"><path fill="rgb(255,255,255)" fill-opacity="0.03" d=" M-135,-156 C-207,-117 -164.40899658203125,-17.795000076293945 -145.65899658203125,4.704999923706055 C-173.15899658203125,-33.54499816894531 -153.1719970703125,-76.93699645996094 -124.73799896240234,-98.46900177001953 C-84.75,-128.75 -23.5,-119.75 -2.5,-94.25 C-20.297000885009766,-137.94200134277344 -74.83399963378906,-188.58999633789062 -135,-156z"></path></g><g opacity="1" transform="matrix(1,0,0,1,0,0)"><path fill="rgb(255,255,255)" fill-opacity="0.03" d=" M-135,-156 C-207,-117 -162.06900024414062,-21.492000579833984 -152.06900024414062,-6.242000102996826 C-173.56900024414062,-42.742000579833984 -155.1719970703125,-80.93699645996094 -126.73799896240234,-102.46900177001953 C-86.75,-132.75 -26,-123 -5.5,-101 C-26.59600067138672,-141.0919952392578 -74.83399963378906,-188.58999633789062 -135,-156z"></path></g><g opacity="1" transform="matrix(1,0,0,1,0,0)"><path fill="rgb(255,255,255)" fill-opacity="0.03" d=" M-135,-156 C-203.5,-118.75 -164.7469940185547,-30.597999572753906 -156.3719940185547,-13.972999572753906 C-174.2469940185547,-48.472999572753906 -156.75,-86 -127.48799896240234,-107.46900177001953 C-89.58599853515625,-135.27699279785156 -28.875,-128.625 -8.375,-106.625 C-25.218000411987305,-139.91099548339844 -75.54399871826172,-188.33200073242188 -135,-156z"></path></g><g opacity="1" transform="matrix(1,0,0,1,0,0)"><path fill="rgb(255,255,255)" fill-opacity="0.04" d=" M-135,-156 C-199.25,-121 -168.5240020751953,-41.91999816894531 -159.8990020751953,-22.045000076293945 C-176.4980010986328,-55.362998962402344 -156.73399353027344,-92.69999694824219 -127.73799896240234,-113.46900177001953 C-90,-140.5 -30.5,-130.5 -12.125,-112.875 C-29.451000213623047,-141.58399963378906 -75.56800079345703,-188.375 -135,-156z"></path></g><g opacity="1" transform="matrix(1,0,0,1,0,0)"><path fill="rgb(255,255,255)" fill-opacity="0.08" d=" M-135,-156 C-195.5,-124.5 -171.56900024414062,-48.75 -162.81900024414062,-28 C-178.94400024414062,-61.75 -156,-100.25 -128.73800659179688,-118.46900177001953 C-89.64600372314453,-144.593994140625 -33,-134.25 -15.875,-118.5 C-32.895999908447266,-142.47000122070312 -74.97100067138672,-187.2550048828125 -135,-156z"></path></g><g opacity="1" transform="matrix(1,0,0,1,0,0)"><path fill="rgb(255,255,255)" fill-opacity="0.09" d=" M-135,-156 C-194,-124.75 -171.86399841308594,-54.875 -165.86399841308594,-35.875 C-179.48899841308594,-74.25 -152.1320037841797,-110.71800231933594 -128.86300659179688,-125.21900177001953 C-89.5,-149.75 -33.875,-137.125 -21,-125 C-36.43899917602539,-146.01300048828125 -79.6520004272461,-185.3159942626953 -135,-156z"></path></g><g opacity="1" transform="matrix(1,0,0,1,0,0)"><path fill="rgb(255,255,255)" fill-opacity="0.1" d=" M-135,-156 C-192.25,-126.25 -171.54200744628906,-58.152000427246094 -169.04200744628906,-46.402000427246094 C-176.41700744628906,-81.7770004272461 -156,-116 -129.48800659179688,-131.843994140625 C-89.13600158691406,-155.95899963378906 -37.527000427246094,-139.2689971923828 -27.402000427246094,-132.1439971923828 C-46.57699966430664,-154.8719940185547 -83.99099731445312,-182.5070037841797 -135,-156z"></path></g><g opacity="1" transform="matrix(1,0,0,1,0,0)"><path fill="rgb(255,255,255)" fill-opacity="0.11" d=" M-135,-156 C-185.64199829101562,-129.593994140625 -174.43600463867188,-74.4729995727539 -172.68600463867188,-61.472999572753906 C-173.81100463867188,-88.9729995727539 -159.5,-121.5 -130.36300659179688,-138.343994140625 C-89.66500091552734,-161.87100219726562 -40.819000244140625,-143.1439971923828 -33.694000244140625,-139.2689971923828 C-46.084999084472656,-152.31300354003906 -85.375,-181.875 -135,-156z"></path></g><g opacity="1" transform="matrix(1,0,0,1,0,0)"><path fill="rgb(255,255,255)" fill-opacity="0.12" d=" M-135,-156 C-180,-132 -175.06100463867188,-86.125 -174.18600463867188,-71.625 C-174.06100463867188,-94.625 -161.58299255371094,-127.58899688720703 -132.11300659179688,-143.843994140625 C-92.625,-165.625 -47.85599899291992,-148.6699981689453 -39.79999923706055,-144.91200256347656 C-49.82400131225586,-154.08399963378906 -88.5260009765625,-180.78599548339844 -135,-156z"></path></g><g opacity="1" transform="matrix(1,0,0,1,0,0)"><path fill="rgb(255,255,255)" fill-opacity="0.13" d=" M-135,-156 C-170.18499755859375,-138.61700439453125 -175.8560028076172,-101 -175.1060028076172,-85.5 C-172.9810028076172,-106.125 -162.95799255371094,-133.21400451660156 -133.48800659179688,-149.468994140625 C-94,-171.25 -52.53099822998047,-153.16200256347656 -49.40599822998047,-151.91200256347656 C-59.96200180053711,-160.28500366210938 -93,-176.75 -135,-156z"></path></g></g><g opacity="1" transform="matrix(-1.2699999809265137,0,0,1.2699999809265137,263.54315185546875,248.43728637695312)"><g opacity="1" transform="matrix(1,0,0,1,0,0)"><path fill="rgb(255,255,255)" fill-opacity="0.02" d=" M-135,-156 C-207,-117 -161.83200073242188,-16.190000534057617 -138.40899658203125,16 C-164.40899658203125,-28 -146,-69.75 -118.98799896240234,-90.21900177001953 C-83.70500183105469,-116.95600128173828 -33,-109.5 -1,-90.5 C-18.524999618530273,-138.04100036621094 -74.83399963378906,-188.58999633789062 -135,-156z"></path></g><g opacity="1" transform="matrix(1,0,0,1,0,0)"><path fill="rgb(255,255,255)" fill-opacity="0.02" d=" M-135,-156 C-207,-117 -162.9149932861328,-19.34000015258789 -145.65899658203125,4.802999973297119 C-167.40899658203125,-31.19700050354004 -150.41400146484375,-73.51000213623047 -121.73799896240234,-94.71900177001953 C-83.5,-123 -31.5,-115.5 -2.5,-94.25 C-21.674999237060547,-139.02499389648438 -74.83399963378906,-188.58999633789062 -135,-156z"></path></g><g opacity="1" transform="matrix(1,0,0,1,0,0)"><path fill="rgb(255,255,255)" fill-opacity="0.03" d=" M-135,-156 C-207,-117 -164.40899658203125,-17.795000076293945 -145.65899658203125,4.704999923706055 C-173.15899658203125,-33.54499816894531 -153.1719970703125,-76.93699645996094 -124.73799896240234,-98.46900177001953 C-84.75,-128.75 -23.5,-119.75 -2.5,-94.25 C-20.297000885009766,-137.94200134277344 -74.83399963378906,-188.58999633789062 -135,-156z"></path></g><g opacity="1" transform="matrix(1,0,0,1,0,0)"><path fill="rgb(255,255,255)" fill-opacity="0.03" d=" M-135,-156 C-207,-117 -162.06900024414062,-21.492000579833984 -152.06900024414062,-6.242000102996826 C-173.56900024414062,-42.742000579833984 -155.1719970703125,-80.93699645996094 -126.73799896240234,-102.46900177001953 C-86.75,-132.75 -26,-123 -5.5,-101 C-26.59600067138672,-141.0919952392578 -74.83399963378906,-188.58999633789062 -135,-156z"></path></g><g opacity="1" transform="matrix(1,0,0,1,0,0)"><path fill="rgb(255,255,255)" fill-opacity="0.03" d=" M-135,-156 C-203.5,-118.75 -164.7469940185547,-30.597999572753906 -156.3719940185547,-13.972999572753906 C-174.2469940185547,-48.472999572753906 -156.75,-86 -127.48799896240234,-107.46900177001953 C-89.58599853515625,-135.27699279785156 -28.875,-128.625 -8.375,-106.625 C-25.218000411987305,-139.91099548339844 -75.54399871826172,-188.33200073242188 -135,-156z"></path></g><g opacity="1" transform="matrix(1,0,0,1,0,0)"><path fill="rgb(255,255,255)" fill-opacity="0.04" d=" M-135,-156 C-199.25,-121 -168.5240020751953,-41.91999816894531 -159.8990020751953,-22.045000076293945 C-176.4980010986328,-55.362998962402344 -156.73399353027344,-92.69999694824219 -127.73799896240234,-113.46900177001953 C-90,-140.5 -30.5,-130.5 -12.125,-112.875 C-29.451000213623047,-141.58399963378906 -75.56800079345703,-188.375 -135,-156z"></path></g><g opacity="1" transform="matrix(1,0,0,1,0,0)"><path fill="rgb(255,255,255)" fill-opacity="0.08" d=" M-135,-156 C-195.5,-124.5 -171.56900024414062,-48.75 -162.81900024414062,-28 C-178.94400024414062,-61.75 -156,-100.25 -128.73800659179688,-118.46900177001953 C-89.64600372314453,-144.593994140625 -33,-134.25 -15.875,-118.5 C-32.895999908447266,-142.47000122070312 -74.97100067138672,-187.2550048828125 -135,-156z"></path></g><g opacity="1" transform="matrix(1,0,0,1,0,0)"><path fill="rgb(255,255,255)" fill-opacity="0.09" d=" M-135,-156 C-194,-124.75 -171.86399841308594,-54.875 -165.86399841308594,-35.875 C-179.48899841308594,-74.25 -152.1320037841797,-110.71800231933594 -128.86300659179688,-125.21900177001953 C-89.5,-149.75 -33.875,-137.125 -21,-125 C-36.43899917602539,-146.01300048828125 -79.6520004272461,-185.3159942626953 -135,-156z"></path></g><g opacity="1" transform="matrix(1,0,0,1,0,0)"><path fill="rgb(255,255,255)" fill-opacity="0.1" d=" M-135,-156 C-192.25,-126.25 -171.54200744628906,-58.152000427246094 -169.04200744628906,-46.402000427246094 C-176.41700744628906,-81.7770004272461 -156,-116 -129.48800659179688,-131.843994140625 C-89.13600158691406,-155.95899963378906 -37.527000427246094,-139.2689971923828 -27.402000427246094,-132.1439971923828 C-46.57699966430664,-154.8719940185547 -83.99099731445312,-182.5070037841797 -135,-156z"></path></g><g opacity="1" transform="matrix(1,0,0,1,0,0)"><path fill="rgb(255,255,255)" fill-opacity="0.11" d=" M-135,-156 C-185.64199829101562,-129.593994140625 -174.43600463867188,-74.4729995727539 -172.68600463867188,-61.472999572753906 C-173.81100463867188,-88.9729995727539 -159.5,-121.5 -130.36300659179688,-138.343994140625 C-89.66500091552734,-161.87100219726562 -40.819000244140625,-143.1439971923828 -33.694000244140625,-139.2689971923828 C-46.084999084472656,-152.31300354003906 -85.375,-181.875 -135,-156z"></path></g><g opacity="1" transform="matrix(1,0,0,1,0,0)"><path fill="rgb(255,255,255)" fill-opacity="0.12" d=" M-135,-156 C-180,-132 -175.06100463867188,-86.125 -174.18600463867188,-71.625 C-174.06100463867188,-94.625 -161.58299255371094,-127.58899688720703 -132.11300659179688,-143.843994140625 C-92.625,-165.625 -47.85599899291992,-148.6699981689453 -39.79999923706055,-144.91200256347656 C-49.82400131225586,-154.08399963378906 -88.5260009765625,-180.78599548339844 -135,-156z"></path></g><g opacity="1" transform="matrix(1,0,0,1,0,0)"><path fill="rgb(255,255,255)" fill-opacity="0.13" d=" M-135,-156 C-170.18499755859375,-138.61700439453125 -175.8560028076172,-101 -175.1060028076172,-85.5 C-172.9810028076172,-106.125 -162.95799255371094,-133.21400451660156 -133.48800659179688,-149.468994140625 C-94,-171.25 -52.53099822998047,-153.16200256347656 -49.40599822998047,-151.91200256347656 C-59.96200180053711,-160.28500366210938 -93,-176.75 -135,-156z"></path></g></g><g opacity="1" transform="matrix(1.2699999809265137,0,0,1.2699999809265137,266.3590087890625,248.37899780273438)"><path fill="url(#__lottie_element_188)" mask="url(#__lottie_element_190)" fill-opacity="0.85" d="M0 0 M-135,-156 C-206.8280029296875,-117.04299926757812 -166.24099731445312,-20.42300033569336 -138.24400329589844,16.21299934387207 C-115.24400329589844,-37.7869987487793 -23,-85 -1,-90.5 C-22.92099952697754,-141.83399963378906 -74.85199737548828,-188.6219940185547 -135,-156z"></path></g><g opacity="1" transform="matrix(-1.2699999809265137,0,0,1.2699999809265137,261.65399169921875,248.5449981689453)"><path fill="url(#__lottie_element_191)" mask="url(#__lottie_element_193)" fill-opacity="0.85" d="M0 0 M-135,-156 C-204.60299682617188,-122.47599792480469 -174.28799438476562,-20.11400032043457 -131.78700256347656,28.180999755859375 C-108.78700256347656,-25.819000244140625 -25,-85.42500305175781 -3,-90.92500305175781 C-18.381999969482422,-133.1060028076172 -68.63400268554688,-187.96499633789062 -135,-156z"></path></g></g><g style="display: block;" transform="matrix(1.0601170063018799,-0.38441768288612366,0.3277108073234558,0.9854585528373718,237.4828338623047,370.4902038574219)" opacity="1"><g opacity="1" transform="matrix(1,0,0,1,0,0)"><path fill="rgb(196,0,108)" fill-opacity="1" d=" M-35.62699890136719,-91.58999633789062 C4.349999904632568,-92.98600006103516 57.534000396728516,-16.069000244140625 81.00199890136719,38.15999984741211 C84.39800262451172,46.00699996948242 82.61399841308594,48.39699935913086 74.11699676513672,47.45100021362305 C57.7239990234375,45.625999450683594 31.711000442504883,41.61800003051758 22.18199920654297,45.41899871826172 C12.289999961853027,49.3650016784668 -1.8040000200271606,66.3489990234375 -21.466999053955078,86.44400024414062 C-29.974000930786133,95.13700103759766 -34.55400085449219,92.58899688720703 -31.54599952697754,80.80400085449219 C-16.488000869750977,21.809999465942383 -22.243999481201172,-12.781999588012695 -33.948001861572266,-37.24300003051758 C-35.361000061035156,-40.19599914550781 -39.680999755859375,-39.83599853515625 -40.542999267578125,-36.678001403808594 C-45.71900177001953,-17.714000701904297 -51.55099868774414,29.55900001525879 -50.452999114990234,42.71900177001953 C-59.194000244140625,25.850000381469727 -75.697998046875,-8.3100004196167 -82.62100219726562,-27.81800079345703 C-73.33399963378906,-63.68899917602539 -57.444000244140625,-90.8280029296875 -35.62699890136719,-91.58999633789062z"></path></g></g><g style="display: block;" transform="matrix(1.0601170063018799,-0.38441768288612366,0.3277108073234558,0.9854585528373718,285.0616455078125,293.0683898925781)" opacity="1"><g opacity="1" transform="matrix(1,0,0,1,0,0)"><path fill="rgb(196,0,108)" fill-opacity="1" d=" M-30.533000946044922,23.368999481201172 C0.5960000157356262,45.31700134277344 38.566001892089844,75.06700134277344 49.21699905395508,48.944000244140625 C61.604000091552734,22.315000534057617 66.39600372314453,-4.35699987411499 68.14199829101562,-31.343000411987305 C69.88800048828125,-58.32899856567383 20.67300033569336,-62.32899856567383 -21.732999801635742,-57.24599838256836 C-60.7239990234375,-52.571998596191406 -67.90499877929688,-36.12099838256836 -68.177001953125,-26.611000061035156 C-68.56999969482422,-12.859000205993652 -57.30099868774414,4.495999813079834 -30.533000946044922,23.368999481201172z"></path></g></g><g style="display: block;" transform="matrix(0.934201717376709,-0.03051730804145336,0.031995341181755066,0.9794475436210632,268.5299987792969,309.010009765625)" opacity="1"><g opacity="1" transform="matrix(1,0,0,1,0,0)"><path fill="rgb(196,0,108)" fill-opacity="1" d=" M166.5850067138672,21.69700050354004 C122.65499877929688,21.69700050354004 -115,13.038000106811523 -157.5709991455078,18.479000091552734 C-164.0570068359375,10.979999542236328 -180.3489990234375,-11.684000015258789 -184.8979949951172,-18.479000091552734 C-163.0469970703125,-18.479000091552734 168.947998046875,-18.638999938964844 196.14300537109375,-18.638999938964844 C196.14300537109375,-18.638999938964844 166.5850067138672,21.69700050354004 166.5850067138672,21.69700050354004z"></path></g></g><g style="display: none;"><g><path></path><path stroke-linecap="round" stroke-linejoin="round" fill-opacity="0"></path></g></g><g style="display: none;"><g><path stroke-linecap="round" stroke-linejoin="round" fill-opacity="0"></path></g></g><g style="display: block;" transform="matrix(1,0,0,1,260.01300048828125,267.4700012207031)" opacity="1"><g opacity="1" transform="matrix(1,0,0,1,0,0)"><path fill="url(#__lottie_element_154)" fill-opacity="1" d=" M-226.38600158691406,-45.92300033569336 C-215.2270050048828,-15.619999885559082 -191.88999938964844,20.229999542236328 -172.16400146484375,45.92300033569336 C-122.60800170898438,45.92300033569336 126.37999725341797,45.92300033569336 175.41400146484375,45.92300033569336 C195.13999938964844,20.229999542236328 217.7270050048828,-15.619999885559082 228.88600158691406,-45.92300033569336 C184.83900451660156,-45.92300033569336 -183.97000122070312,-45.92300033569336 -226.38600158691406,-45.92300033569336z"></path><path stroke-linecap="round" stroke-linejoin="round" fill-opacity="0" stroke="rgb(196,132,39)" stroke-opacity="1" stroke-width="8" d=" M-226.38600158691406,-45.92300033569336 C-215.2270050048828,-15.619999885559082 -191.88999938964844,20.229999542236328 -172.16400146484375,45.92300033569336 C-122.60800170898438,45.92300033569336 126.37999725341797,45.92300033569336 175.41400146484375,45.92300033569336 C195.13999938964844,20.229999542236328 217.7270050048828,-15.619999885559082 228.88600158691406,-45.92300033569336 C184.83900451660156,-45.92300033569336 -183.97000122070312,-45.92300033569336 -226.38600158691406,-45.92300033569336z"></path></g></g><g style="display: none;"><g><path stroke-linecap="round" stroke-linejoin="round" fill-opacity="0"></path></g></g><g style="display: block;" transform="matrix(1,0,0,1,445.07501220703125,267.5360107421875)" opacity="0.66"><g opacity="1" transform="matrix(1,0,0,1,0,0)"><path fill="url(#__lottie_element_157)" fill-opacity="1" d=" M6.11299991607666,-50.40299987792969 C-5.046000003814697,-17.42099952697754 -26.514999389648438,21.3439998626709 -46.24100112915039,49.308998107910156 C-46.24100112915039,49.308998107910156 -12.111000061035156,50.400001525878906 -12.111000061035156,50.400001525878906 C-10.050000190734863,50.465999603271484 -8.097000122070312,49.50299835205078 -6.892000198364258,47.83000183105469 C11.27400016784668,22.594999313354492 34.50699996948242,-13.73900032043457 46.01499938964844,-44.67499923706055 C46.87200164794922,-46.97800064086914 45.1879997253418,-49.435001373291016 42.73099899291992,-49.49599838256836 C42.73099899291992,-49.49599838256836 6.11299991607666,-50.40299987792969 6.11299991607666,-50.40299987792969z"></path></g></g><g clip-path="url(#__lottie_element_82)" style="display: none;"><g style="display: none;"><g><path stroke-linecap="round" stroke-linejoin="round" fill-opacity="0"></path><path fill="url(#__lottie_element_131)"></path><path fill="url(#__lottie_element_132)"></path><path fill="url(#__lottie_element_133)"></path></g></g><g style="display: none;"><g><path stroke-linecap="round" stroke-linejoin="round" fill-opacity="0"></path><path fill="url(#__lottie_element_141)"></path><path fill="url(#__lottie_element_142)"></path><path fill="url(#__lottie_element_143)"></path></g></g><g style="display: none;"><g><path></path></g><g><path></path></g><g><path></path></g><g><path fill="url(#__lottie_element_146)"></path></g><g><path></path></g><g><path stroke-linecap="round" stroke-linejoin="round" fill-opacity="0"></path></g><g><path stroke-linecap="round" stroke-linejoin="round" fill-opacity="0"></path></g><g><path fill="url(#__lottie_element_147)" mask="url(#__lottie_element_149)"></path></g></g><g style="display: none;"><g><path></path></g><g><path></path></g><g><path fill="url(#__lottie_element_136)"></path></g><g><path></path></g><g><path></path></g><g><path stroke-linecap="round" stroke-linejoin="round" fill-opacity="0"></path></g><g><path stroke-linecap="round" stroke-linejoin="round" fill-opacity="0"></path></g></g><g style="display: none;"><g><path stroke-linecap="round" stroke-linejoin="round" fill-opacity="0"></path></g></g><g style="display: none;"><g><path fill="url(#__lottie_element_123)"></path><path stroke-linecap="round" stroke-linejoin="round" fill-opacity="0"></path></g><g><path></path></g></g><g style="display: none;"><g><path fill="url(#__lottie_element_119)"></path></g></g><g style="display: none;"><g><path fill="url(#__lottie_element_102)"></path><path fill="url(#__lottie_element_103)"></path><path stroke-linecap="round" stroke-linejoin="round" fill-opacity="0"></path></g></g><g style="display: none;"><g><path stroke-linecap="round" stroke-linejoin="round" fill-opacity="0"></path></g><g><path stroke-linecap="round" stroke-linejoin="round" fill-opacity="0"></path></g><g><path fill="url(#__lottie_element_109)"></path><path fill="url(#__lottie_element_110)"></path></g><g><path fill="url(#__lottie_element_111)"></path><path fill="url(#__lottie_element_112)"></path></g><g><path fill="url(#__lottie_element_113)"></path></g><g><path stroke-linecap="round" stroke-linejoin="round" fill-opacity="0"></path></g><g><path fill="url(#__lottie_element_114)"></path></g><g><path fill="url(#__lottie_element_115)"></path></g></g><g style="display: none;"><g><path></path><path stroke-linecap="round" stroke-linejoin="round" fill-opacity="0"></path></g><g><path></path><path stroke-linecap="round" stroke-linejoin="round" fill-opacity="0"></path></g><g><path stroke-linecap="round" stroke-linejoin="round" fill-opacity="0"></path></g><g><path stroke-linecap="round" stroke-linejoin="round" fill-opacity="0"></path></g></g><g style="display: none;"><g><path fill="url(#__lottie_element_90)" mask="url(#__lottie_element_92)"></path></g><g><path fill="url(#__lottie_element_93)"></path></g><g><path stroke-linecap="round" stroke-linejoin="round" fill-opacity="0"></path></g></g><g style="display: none;"><g><path fill="url(#__lottie_element_96)"></path></g><g><g><path fill="url(#__lottie_element_97)"></path></g></g></g></g><g style="display: block;" transform="matrix(0.9721898436546326,-0.29167091846466064,0.29167091846466064,0.9721898436546326,130.598388671875,389.1206359863281)" opacity="1"><g opacity="1" transform="matrix(1,0,0,1,0,0)"><path stroke-linecap="round" stroke-linejoin="round" fill-opacity="0" stroke="rgb(196,132,39)" stroke-opacity="1" stroke-width="16" d=" M49.68299865722656,63.082000732421875 C44.80099868774414,58.8129997253418 39.57899856567383,53.92100143432617 34.465999603271484,49.130001068115234 C21.844999313354492,37.30699920654297 10.946000099182129,27.097000122070312 4.267000198364258,24.976999282836914 C-5.2220001220703125,21.96500015258789 -29.64299964904785,24.913000106811523 -49.68299865722656,29.864999771118164 C-33.82600021362305,8.097999572753906 -10.54800033569336,-30.996000289916992 -2.571000099182129,-63.082000732421875 C-2.571000099182129,-63.082000732421875 41.4900016784668,-62.409000396728516 41.4900016784668,-62.409000396728516 C35.439998626708984,-23.243999481201172 42.68199920654297,23.398000717163086 49.68299865722656,63.082000732421875z"></path><path fill="url(#__lottie_element_62)" fill-opacity="1" d=" M49.68299865722656,63.082000732421875 C44.80099868774414,58.8129997253418 39.57899856567383,53.92100143432617 34.465999603271484,49.130001068115234 C21.844999313354492,37.30699920654297 10.946000099182129,27.097000122070312 4.267000198364258,24.976999282836914 C-5.2220001220703125,21.96500015258789 -29.64299964904785,24.913000106811523 -49.68299865722656,29.864999771118164 C-33.82600021362305,8.097999572753906 -10.54800033569336,-30.996000289916992 -2.571000099182129,-63.082000732421875 C-2.571000099182129,-63.082000732421875 41.4900016784668,-62.409000396728516 41.4900016784668,-62.409000396728516 C35.439998626708984,-23.243999481201172 42.68199920654297,23.398000717163086 49.68299865722656,63.082000732421875z"></path><path fill="url(#__lottie_element_63)" fill-opacity="1" d=" M49.68299865722656,63.082000732421875 C44.80099868774414,58.8129997253418 39.57899856567383,53.92100143432617 34.465999603271484,49.130001068115234 C21.844999313354492,37.30699920654297 10.946000099182129,27.097000122070312 4.267000198364258,24.976999282836914 C-5.2220001220703125,21.96500015258789 -29.64299964904785,24.913000106811523 -49.68299865722656,29.864999771118164 C-33.82600021362305,8.097999572753906 -10.54800033569336,-30.996000289916992 -2.571000099182129,-63.082000732421875 C-2.571000099182129,-63.082000732421875 41.4900016784668,-62.409000396728516 41.4900016784668,-62.409000396728516 C35.439998626708984,-23.243999481201172 42.68199920654297,23.398000717163086 49.68299865722656,63.082000732421875z"></path><path fill="url(#__lottie_element_64)" fill-opacity="1" d=" M49.68299865722656,63.082000732421875 C44.80099868774414,58.8129997253418 39.57899856567383,53.92100143432617 34.465999603271484,49.130001068115234 C21.844999313354492,37.30699920654297 10.946000099182129,27.097000122070312 4.267000198364258,24.976999282836914 C-5.2220001220703125,21.96500015258789 -29.64299964904785,24.913000106811523 -49.68299865722656,29.864999771118164 C-33.82600021362305,8.097999572753906 -10.54800033569336,-30.996000289916992 -2.571000099182129,-63.082000732421875 C-2.571000099182129,-63.082000732421875 41.4900016784668,-62.409000396728516 41.4900016784668,-62.409000396728516 C35.439998626708984,-23.243999481201172 42.68199920654297,23.398000717163086 49.68299865722656,63.082000732421875z"></path></g></g><g style="display: block;" transform="matrix(0.9721898436546326,-0.29167091846466064,0.29167091846466064,0.9721898436546326,251.45895385742188,346.09503173828125)" opacity="1"><g opacity="1" transform="matrix(0.9999992251396179,-0.0012566366931423545,0.0012566366931423545,0.9999992251396179,0,0)"><path stroke-linecap="round" stroke-linejoin="round" fill-opacity="0" stroke="rgb(196,132,39)" stroke-opacity="1" stroke-width="16" d=" M-46.76300048828125,69.875 C-34.36600112915039,14.331000328063965 -49.141998291015625,-33.91999816894531 -56.54100036621094,-56.75 C-56.54100036621094,-56.75 -41.069000244140625,-69.875 -41.069000244140625,-69.875 C-12.361000061035156,-53.64699935913086 33.946998596191406,-5.538000106811523 56.54100036621094,37.64400100708008 C52.5620002746582,37.178001403808594 47.67300033569336,36.44900131225586 42.61600112915039,35.694000244140625 C22.667999267578125,32.715999603271484 7.959000110626221,30.783000946044922 0.34700000286102295,33.03900146484375 C-6.5879998207092285,35.09299850463867 -13.793999671936035,41.55699920654297 -23.768999099731445,50.500999450683594 C-30.18000030517578,56.250999450683594 -37.7859992980957,63.071998596191406 -46.76300048828125,69.875z"></path><path fill="url(#__lottie_element_72)" fill-opacity="1" d=" M-46.76300048828125,69.875 C-34.36600112915039,14.331000328063965 -49.141998291015625,-33.91999816894531 -56.54100036621094,-56.75 C-56.54100036621094,-56.75 -41.069000244140625,-69.875 -41.069000244140625,-69.875 C-12.361000061035156,-53.64699935913086 33.946998596191406,-5.538000106811523 56.54100036621094,37.64400100708008 C52.5620002746582,37.178001403808594 47.67300033569336,36.44900131225586 42.61600112915039,35.694000244140625 C22.667999267578125,32.715999603271484 7.959000110626221,30.783000946044922 0.34700000286102295,33.03900146484375 C-6.5879998207092285,35.09299850463867 -13.793999671936035,41.55699920654297 -23.768999099731445,50.500999450683594 C-30.18000030517578,56.250999450683594 -37.7859992980957,63.071998596191406 -46.76300048828125,69.875z"></path><path fill="url(#__lottie_element_73)" fill-opacity="1" d=" M-46.76300048828125,69.875 C-34.36600112915039,14.331000328063965 -49.141998291015625,-33.91999816894531 -56.54100036621094,-56.75 C-56.54100036621094,-56.75 -41.069000244140625,-69.875 -41.069000244140625,-69.875 C-12.361000061035156,-53.64699935913086 33.946998596191406,-5.538000106811523 56.54100036621094,37.64400100708008 C52.5620002746582,37.178001403808594 47.67300033569336,36.44900131225586 42.61600112915039,35.694000244140625 C22.667999267578125,32.715999603271484 7.959000110626221,30.783000946044922 0.34700000286102295,33.03900146484375 C-6.5879998207092285,35.09299850463867 -13.793999671936035,41.55699920654297 -23.768999099731445,50.500999450683594 C-30.18000030517578,56.250999450683594 -37.7859992980957,63.071998596191406 -46.76300048828125,69.875z"></path><path fill="url(#__lottie_element_74)" fill-opacity="1" d=" M-46.76300048828125,69.875 C-34.36600112915039,14.331000328063965 -49.141998291015625,-33.91999816894531 -56.54100036621094,-56.75 C-56.54100036621094,-56.75 -41.069000244140625,-69.875 -41.069000244140625,-69.875 C-12.361000061035156,-53.64699935913086 33.946998596191406,-5.538000106811523 56.54100036621094,37.64400100708008 C52.5620002746582,37.178001403808594 47.67300033569336,36.44900131225586 42.61600112915039,35.694000244140625 C22.667999267578125,32.715999603271484 7.959000110626221,30.783000946044922 0.34700000286102295,33.03900146484375 C-6.5879998207092285,35.09299850463867 -13.793999671936035,41.55699920654297 -23.768999099731445,50.500999450683594 C-30.18000030517578,56.250999450683594 -37.7859992980957,63.071998596191406 -46.76300048828125,69.875z"></path></g></g><g style="display: block;" transform="matrix(0.9721898436546326,-0.29167091846466064,0.29167091846466064,0.9721898436546326,-81.64155578613281,57.030677795410156)" opacity="1"><g opacity="0.8" transform="matrix(1,0,0,1,179.1699981689453,349.1090087890625)"><path fill="rgb(153,86,5)" fill-opacity="1" d=" M81.71600341796875,-0.052000001072883606 C45.33399963378906,-44.518001556396484 15.157999992370605,-59.875 10.121000289916992,-60.715999603271484 C6.427000045776367,-57.86199951171875 -7.927000045776367,-42.66400146484375 -11.53600025177002,-41.68000030517578 C-9.234999656677246,-33.67300033569336 -3.7909998893737793,-16.780000686645508 -1.8910000324249268,-6.111999988555908 C0.6420000195503235,-12.543000221252441 16.628999710083008,-16.579999923706055 21.72800064086914,-16.85700035095215 C36.715999603271484,-17.670000076293945 60.612998962402344,7.533999919891357 105.1969985961914,32.39899826049805 C97.06800079345703,20.81100082397461 91.21399688720703,10.472000122070312 81.71600341796875,-0.052000001072883606z"></path></g><g opacity="0.15" transform="matrix(1,0,0,1,203.3300018310547,373.3550109863281)"><path fill="rgb(206,117,0)" fill-opacity="1" d=" M-24.003999710083008,-48.060001373291016 C-6.019999980926514,-37.34199905395508 -3.374000072479248,-16.878000259399414 -0.28600001335144043,13.697999954223633 C0.9980000257492065,26.4060001373291 10.720000267028809,25.209999084472656 15.663000106811523,10.180000305175781 C21.687999725341797,-8.138999938964844 16.40999984741211,-22.194000244140625 15.92199993133545,-24.48900032043457 C12.63599967956543,-39.95600128173828 -6.013999938964844,-55.20000076293945 -9.847000122070312,-53.65999984741211 C-18.26300048828125,-50.277000427246094 -24.003999710083008,-48.060001373291016 -24.003999710083008,-48.060001373291016z"></path></g><g opacity="0.15" transform="matrix(1,0,0,1,130.08599853515625,373.3529968261719)"><path fill="rgb(206,117,0)" fill-opacity="1" d="M0 0"></path></g><g opacity="0.28" transform="matrix(1,0,0,1,254.50900268554688,380.0050048828125)"><path fill="url(#__lottie_element_77)" fill-opacity="1" d=" M-31.25,-1.1100000143051147 C-31.604999542236328,-26.160999298095703 -41.79800033569336,-47.191001892089844 -37.00600051879883,-48.8650016784668 C-32.2140007019043,-50.53900146484375 -1.7259999513626099,-32.5620002746582 -4.440000057220459,-15.548999786376953 C-8.312999725341797,8.722000122070312 -31.149999618530273,5.980999946594238 -31.25,-1.1100000143051147z"></path></g><g opacity="0.33" transform="matrix(1,0,0,1,92.03299713134766,373.81500244140625)"><path fill="rgb(255,255,255)" fill-opacity="1" d="M0 0"></path></g><g opacity="1" transform="matrix(1,0,0,1,146.43699645996094,386.2040100097656)"><path stroke-linecap="round" stroke-linejoin="round" fill-opacity="0" stroke="rgb(255,252,0)" stroke-opacity="1" stroke-width="6" d="M0 0"></path></g><g opacity="1" transform="matrix(1,0,0,1,0,0)"><path fill="url(#__lottie_element_78)" mask="url(#__lottie_element_80)" fill-opacity="1" d="M0 0 M184.1909942626953,337.8500061035156 C188.427001953125,355.2130126953125 194.6300048828125,391.5920104980469 185.9010009765625,436.2380065917969 C190.6739959716797,434.7900085449219 193.6009979248047,432.3089904785156 193.99600219726562,430.3630065917969 C202.0070037841797,390.8919982910156 190.75100708007812,343.406005859375 186.98399353027344,336.60198974609375 C186.05299377441406,336.718994140625 185.57899475097656,337.4800109863281 184.1909942626953,337.8500061035156z"></path></g></g><g style="display: block;" transform="matrix(0.9721898436546326,-0.29167091846466064,0.29167091846466064,0.9721898436546326,-81.64199829101562,57.030338287353516)" opacity="1"><g opacity="0.8" transform="matrix(1,0,0,1,179.1699981689453,349.1090087890625)"><path fill="rgb(153,86,5)" fill-opacity="1" d=" M-25.99799919128418,-10.029999732971191 C-26.10300064086914,-19.926000595092773 -24.79800033569336,-34.64699935913086 -23.695999145507812,-43.9900016784668 C-28.60300064086914,-45.14899826049805 -40.805999755859375,-46.277000427246094 -40.805999755859375,-46.277000427246094 C-62.81700134277344,-47.290000915527344 -73.30699920654297,-48.797000885009766 -81.42400360107422,-44.04499816894531 C-84.7239990234375,-36.2760009765625 -101.19999694824219,4.214000225067139 -105.1969985961914,11.753999710083008 C-69.98600006103516,-11.543000221252441 -40.446998596191406,-35.858001708984375 -25.99799919128418,-10.029999732971191z"></path></g><g opacity="0.15" transform="matrix(1,0,0,1,203.3300018310547,373.3550109863281)"><path fill="rgb(206,117,0)" fill-opacity="1" d="M0 0"></path></g><g opacity="0.15" transform="matrix(1,0,0,1,130.08599853515625,373.3529968261719)"><path fill="url(#__lottie_element_67)" fill-opacity="1" d=" M4.368000030517578,-55.11000061035156 C-6.205999851226807,-44.119998931884766 -18.055999755859375,-16.26099967956543 -16.79599952697754,3.878999948501587 C-16.183000564575195,13.67199993133545 2.38100004196167,15.810999870300293 4.794000148773193,8.53499984741211 C10.623000144958496,-9.043999671936035 7.553999900817871,-37.604000091552734 13.54699993133545,-52.77199935913086 C9.776000022888184,-57.11600112915039 4.368000030517578,-55.11000061035156 4.368000030517578,-55.11000061035156z"></path></g><g opacity="0.33" transform="matrix(1,0,0,1,254.50900268554688,380.0050048828125)"><path fill="rgb(255,255,255)" fill-opacity="1" d="M0 0"></path></g><g opacity="0.33" transform="matrix(1,0,0,1,92.03299713134766,373.81500244140625)"><path fill="rgb(255,254,226)" fill-opacity="1" d=" M0.2919999957084656,-15.178000450134277 C4.51200008392334,-25.7810001373291 22.160999298095703,-41.6510009765625 28.33300018310547,-40.96099853515625 C34.505001068115234,-40.270999908447266 23.4689998626709,-30.589000701904297 17.774999618530273,5.89900016784668 C3.2790000438690186,8.456999778747559 -6.013000011444092,0.6610000133514404 0.2919999957084656,-15.178000450134277z"></path></g><g opacity="1" transform="matrix(1,0,0,1,146.43699645996094,386.2040100097656)"><path stroke-linecap="round" stroke-linejoin="round" fill-opacity="0" stroke="rgb(255,252,0)" stroke-opacity="1" stroke-width="6" d=" M-3.677000045776367,-28.915000915527344 C-4.150000095367432,-6.697000026702881 0.5950000286102295,24.768999099731445 6.591000080108643,45.632999420166016"></path></g><g opacity="1" transform="matrix(1,0,0,1,192.68600463867188,394.70001220703125)"></g></g><g style="display: block;" transform="matrix(1,0,0,1,259.0379943847656,228.42999267578125)" opacity="1"><g opacity="1" transform="matrix(1,0,0,1,0,0)"><path stroke-linecap="round" stroke-linejoin="round" fill-opacity="0" stroke="rgb(255,252,146)" stroke-opacity="1" stroke-width="6" d=" M-186.03799438476562,0.296999990940094 C-186.03799438476562,0.296999990940094 186.03799438476562,-0.296999990940094 186.03799438476562,-0.296999990940094"></path></g></g><g style="display: block;" transform="matrix(0.934201717376709,-0.03051730804145336,0.031995341181755066,0.9794475436210632,10.5506591796875,8.790573120117188)" opacity="1"><g opacity="0.66" transform="matrix(1,0,0,1,140.2790069580078,225.63299560546875)"><path fill="url(#__lottie_element_54)" fill-opacity="1" d=" M-83.09400177001953,0 C-83.09400177001953,0 83.09400177001953,0 83.09400177001953,0"></path><path stroke-linecap="round" stroke-linejoin="round" fill-opacity="0" stroke="rgb(255,252,0)" stroke-opacity="1" stroke-width="8" d=" M-83.09400177001953,0 C-83.09400177001953,0 83.09400177001953,0 83.09400177001953,0"></path></g><g opacity="0.44" transform="matrix(1,0,0,1,132.3699951171875,259.8890075683594)"><path fill="rgb(153,86,5)" fill-opacity="1" d=" M89.38700103759766,-33.8849983215332 C73.58399963378906,-34.28300094604492 -89.38700103759766,-34.68000030517578 -89.38700103759766,-34.68000030517578 C-37.07400131225586,77.86699676513672 66.18699645996094,35.10599899291992 89.38700103759766,-33.8849983215332z"></path></g></g><g style="display: block;" transform="matrix(0.9482147097587585,-0.030975058674812317,0.03247527405619621,0.9941392540931702,320.3531799316406,267.60308837890625)" opacity="1"><g opacity="1" transform="matrix(1,0,0,1,0,0)"><path fill="url(#__lottie_element_50)" fill-opacity="1" d=" M15.888999938964844,49.67399978637695 C17.481000900268555,22.343000411987305 15.093999862670898,-27.114999771118164 5.145999908447266,-49.67399978637695 C-7.985000133514404,-50.108001708984375 -16.341999053955078,-50.54199981689453 -16.341999053955078,-50.54199981689453 C-11.168999671936035,-24.945999145507812 0.3709999918937683,31.886999130249023 -4.802000045776367,50.54199981689453 C3.9519999027252197,50.54199981689453 15.888999938964844,49.67399978637695 15.888999938964844,49.67399978637695z"></path></g></g><g style="display: block;" transform="matrix(0.9721898436546326,-0.29167091846466064,0.29167091846466064,0.9721898436546326,162.58700561523438,272.0790100097656)" opacity="1"><g opacity="1" transform="matrix(1,0,0,1,0,0)"><path fill="url(#__lottie_element_33)" fill-opacity="1" d=" M4.953999996185303,-37.527000427246094 C40.13999938964844,-36.88100051879883 58.16299819946289,-56.11800003051758 72.9469985961914,-72.15899658203125 C92.8010025024414,-93.70099639892578 122.46800231933594,-97.0250015258789 132.3040008544922,-82.66400146484375 C141.8719940185547,-68.69300079345703 155.13099670410156,-37.457000732421875 152.7449951171875,13.6850004196167 C150.51199340820312,61.551998138427734 139.94500732421875,102.0270004272461 120.5510025024414,96.8280029296875 C101.15699768066406,91.62899780273438 70.70500183105469,49.18000030517578 6.2779998779296875,39.83300018310547 C-63.047000885009766,29.775999069213867 -117.21499633789062,96.3280029296875 -133.468994140625,84.75800323486328 C-151.43800354003906,71.96800231933594 -154.5989990234375,0.18299999833106995 -146.43299865722656,-38.22800064086914 C-138.68099975585938,-74.69000244140625 -123.59100341796875,-98.26000213623047 -110.9530029296875,-97.27200317382812 C-67.10299682617188,-93.84500122070312 -51.55099868774414,-38.56399917602539 4.953999996185303,-37.527000427246094z"></path><path stroke-linecap="round" stroke-linejoin="round" fill-opacity="0" stroke="rgb(196,132,39)" stroke-opacity="1" stroke-width="8" d=" M4.953999996185303,-37.527000427246094 C40.13999938964844,-36.88100051879883 58.16299819946289,-56.11800003051758 72.9469985961914,-72.15899658203125 C92.8010025024414,-93.70099639892578 122.46800231933594,-97.0250015258789 132.3040008544922,-82.66400146484375 C141.8719940185547,-68.69300079345703 155.13099670410156,-37.457000732421875 152.7449951171875,13.6850004196167 C150.51199340820312,61.551998138427734 139.94500732421875,102.0270004272461 120.5510025024414,96.8280029296875 C101.15699768066406,91.62899780273438 70.70500183105469,49.18000030517578 6.2779998779296875,39.83300018310547 C-63.047000885009766,29.775999069213867 -117.21499633789062,96.3280029296875 -133.468994140625,84.75800323486328 C-151.43800354003906,71.96800231933594 -154.5989990234375,0.18299999833106995 -146.43299865722656,-38.22800064086914 C-138.68099975585938,-74.69000244140625 -123.59100341796875,-98.26000213623047 -110.9530029296875,-97.27200317382812 C-67.10299682617188,-93.84500122070312 -51.55099868774414,-38.56399917602539 4.953999996185303,-37.527000427246094z"></path><path fill="url(#__lottie_element_34)" fill-opacity="1" d=" M4.953999996185303,-37.527000427246094 C40.13999938964844,-36.88100051879883 58.16299819946289,-56.11800003051758 72.9469985961914,-72.15899658203125 C92.8010025024414,-93.70099639892578 122.46800231933594,-97.0250015258789 132.3040008544922,-82.66400146484375 C141.8719940185547,-68.69300079345703 155.13099670410156,-37.457000732421875 152.7449951171875,13.6850004196167 C150.51199340820312,61.551998138427734 139.94500732421875,102.0270004272461 120.5510025024414,96.8280029296875 C101.15699768066406,91.62899780273438 70.70500183105469,49.18000030517578 6.2779998779296875,39.83300018310547 C-63.047000885009766,29.775999069213867 -117.21499633789062,96.3280029296875 -133.468994140625,84.75800323486328 C-151.43800354003906,71.96800231933594 -154.5989990234375,0.18299999833106995 -146.43299865722656,-38.22800064086914 C-138.68099975585938,-74.69000244140625 -123.59100341796875,-98.26000213623047 -110.9530029296875,-97.27200317382812 C-67.10299682617188,-93.84500122070312 -51.55099868774414,-38.56399917602539 4.953999996185303,-37.527000427246094z"></path></g></g><g style="display: block;" transform="matrix(0.9721898436546326,-0.29167091846466064,0.29167091846466064,0.9721898436546326,-81.64127349853516,57.03019714355469)" opacity="1"><g opacity="0.2" transform="matrix(1,0,0,1,231.91299438476562,335.5989990234375)"><path stroke-linecap="round" stroke-linejoin="round" fill-opacity="0" stroke="rgb(255,251,0)" stroke-opacity="1" stroke-width="8" d=" M26.94499969482422,13.206999778747559 C10.161999702453613,0.49000000953674316 -5.5269999504089355,-10.645999908447266 -31.569000244140625,-19.222999572753906"></path></g><g opacity="0.2" transform="matrix(1,0,0,1,105.29000091552734,330.06500244140625)"><path stroke-linecap="round" stroke-linejoin="round" fill-opacity="0" stroke="rgb(255,251,0)" stroke-opacity="1" stroke-width="8" d=" M31.309999465942383,-16.108999252319336 C12.527000427246094,-10.940999984741211 -7.1020002365112305,-5.514999866485596 -33.03200149536133,13.277000427246094"></path></g><g opacity="0.33" transform="matrix(1,0,0,1,238.33399963378906,256.9280090332031)"><path fill="url(#__lottie_element_40)" fill-opacity="1" d=" M30.525999069213867,40.891998291015625 C36.45600128173828,22.208999633789062 41.979000091552734,1.9639999866485596 29.71500015258789,-37.28099822998047 C21.03499984741211,-65.05599975585938 -7.605000019073486,-17.59000015258789 -33.189998626708984,-15.927000045776367 C-39.643001556396484,-5.086999893188477 -44.2140007019043,30.959999084472656 -25.090999603271484,19.548999786376953 C-4.209000110626221,7.0879998207092285 14.52400016784668,8.079000473022461 17.658000946044922,39.61800003051758 C18.798999786376953,51.10200119018555 25.570999145507812,56.50299835205078 30.525999069213867,40.891998291015625z"></path><path fill="url(#__lottie_element_41)" fill-opacity="1" d=" M30.525999069213867,40.891998291015625 C36.45600128173828,22.208999633789062 41.979000091552734,1.9639999866485596 29.71500015258789,-37.28099822998047 C21.03499984741211,-65.05599975585938 -7.605000019073486,-17.59000015258789 -33.189998626708984,-15.927000045776367 C-39.643001556396484,-5.086999893188477 -44.2140007019043,30.959999084472656 -25.090999603271484,19.548999786376953 C-4.209000110626221,7.0879998207092285 14.52400016784668,8.079000473022461 17.658000946044922,39.61800003051758 C18.798999786376953,51.10200119018555 25.570999145507812,56.50299835205078 30.525999069213867,40.891998291015625z"></path></g><g opacity="0.33" transform="matrix(1,0,0,1,110.00800323486328,250.0260009765625)"><path fill="url(#__lottie_element_42)" fill-opacity="1" d=" M33.624000549316406,-6.085000038146973 C-0.28200000524520874,-20.503000259399414 -24.226999282836914,-54.6879997253418 -31.809999465942383,-38.382999420166016 C-40.53499984741211,-19.621000289916992 -48.119998931884766,16.44300079345703 -37.638999938964844,21.025999069213867 C-27.158000946044922,25.608999252319336 -14.630999565124512,19.155000686645508 -5.230000019073486,16.709999084472656 C9.225000381469727,12.951000213623047 18.33099937438965,22.882999420166016 25.77899932861328,25.395999908447266 C50.268001556396484,33.659000396728516 33.624000549316406,-6.085000038146973 33.624000549316406,-6.085000038146973z"></path><path fill="url(#__lottie_element_43)" fill-opacity="1" d=" M33.624000549316406,-6.085000038146973 C-0.28200000524520874,-20.503000259399414 -24.226999282836914,-54.6879997253418 -31.809999465942383,-38.382999420166016 C-40.53499984741211,-19.621000289916992 -48.119998931884766,16.44300079345703 -37.638999938964844,21.025999069213867 C-27.158000946044922,25.608999252319336 -14.630999565124512,19.155000686645508 -5.230000019073486,16.709999084472656 C9.225000381469727,12.951000213623047 18.33099937438965,22.882999420166016 25.77899932861328,25.395999908447266 C50.268001556396484,33.659000396728516 33.624000549316406,-6.085000038146973 33.624000549316406,-6.085000038146973z"></path></g><g opacity="0.66" transform="matrix(1,0,0,1,41.95800018310547,267.1839904785156)"><path fill="url(#__lottie_element_44)" fill-opacity="1" d=" M-1.8480000495910645,-75.65599822998047 C-8.008999824523926,-61.4630012512207 -15.720999717712402,-35.26100158691406 -19.083999633789062,-12.315999984741211 C-24.725000381469727,26.173999786376953 -24.80299949645996,71.89199829101562 -10.892999649047852,88.7229995727539 C-13.425999641418457,77.88400268554688 -4.619999885559082,68.30000305175781 1.375,66.20500183105469 C-16.041000366210938,-15.72599983215332 10.279000282287598,-80.32099914550781 22.645999908447266,-87.71299743652344 C3.240000009536743,-92.43900299072266 -0.2939999997615814,-79.23600006103516 -1.8480000495910645,-75.65599822998047z"></path></g><g opacity="0.67" transform="matrix(1,0,0,1,300.21600341796875,262.4809875488281)"><path stroke-linecap="round" stroke-linejoin="round" fill-opacity="0" stroke="rgb(255,253,199)" stroke-opacity="1" stroke-width="10.582" d=" M-26.8700008392334,-68.7969970703125 C-18.20199966430664,-56.10300064086914 1.003999948501587,-0.9649999737739563 -24.711000442504883,60.7760009765625"></path></g><g opacity="1" transform="matrix(1,0,0,1,0,0)"><path fill="url(#__lottie_element_45)" fill-opacity="1" d=" M95.13400268554688,270.01800537109375 C85.01499938964844,273.8349914550781 66.31700134277344,274.5780029296875 68.55799865722656,287.88800048828125 C71.97899627685547,308.20098876953125 92.50299835205078,314.3590087890625 124.02200317382812,300.1570129394531 C155.54100036621094,285.9549865722656 136.50999450683594,277.7340087890625 134.11900329589844,275.9280090332031 C119.44499969482422,264.8399963378906 111.08200073242188,264.00201416015625 95.13400268554688,270.01800537109375z"></path></g><g opacity="1" transform="matrix(1,0,0,1,133.99000549316406,2.009999990463257)"><path fill="url(#__lottie_element_46)" fill-opacity="1" d=" M93.69499969482422,268.81500244140625 C83.57599639892578,272.6319885253906 66.2770004272461,274.5840148925781 68.55799865722656,287.88800048828125 C70.9520034790039,301.85198974609375 72.05999755859375,292.156005859375 104.79399871826172,308.5320129394531 C118.43900299072266,315.3580017089844 122.947998046875,305.1090087890625 121.8280029296875,294.6130065917969 C119.79000091552734,275.52301025390625 109.64299774169922,262.79901123046875 93.69499969482422,268.81500244140625z"></path></g></g><g style="display: block;" transform="matrix(0.9721898436546326,-0.29167091846466064,0.29167091846466064,0.9721898436546326,-81.64158630371094,57.02919387817383)" opacity="1"><g opacity="1" transform="matrix(1,0,0,1,243.9499969482422,334.94500732421875)"><path fill="rgb(252,223,57)" fill-opacity="1" d=" M-50.8489990234375,-27.374000549316406 C-32.39699935913086,-24.246000289916992 54.513999938964844,19.54199981689453 52.74300003051758,25.121000289916992 C48.50899887084961,38.46200180053711 13.267000198364258,-10.6850004196167 -51.11800003051758,-27.15999984741211 C-51.11800003051758,-27.15999984741211 -50.8489990234375,-27.374000549316406 -50.8489990234375,-27.374000549316406z"></path><path stroke-linecap="round" stroke-linejoin="round" fill-opacity="0" stroke="rgb(153,86,5)" stroke-opacity="1" stroke-width="8" d=" M-50.8489990234375,-27.374000549316406 C-32.39699935913086,-24.246000289916992 54.513999938964844,19.54199981689453 52.74300003051758,25.121000289916992 C48.50899887084961,38.46200180053711 13.267000198364258,-10.6850004196167 -51.11800003051758,-27.15999984741211 C-51.11800003051758,-27.15999984741211 -50.8489990234375,-27.374000549316406 -50.8489990234375,-27.374000549316406z"></path></g><g opacity="1" transform="matrix(1,0,0,1,89.65699768066406,330.5119934082031)"><path fill="rgb(252,223,57)" fill-opacity="1" d=" M52.24399948120117,-24.183000564575195 C25.700000762939453,-17.93899917602539 -53.13100051879883,14.07800006866455 -49.94300079345703,21.229999542236328 C-46.755001068115234,28.381999969482422 -16.409000396728516,-5.900000095367432 53.2869987487793,-24.336000442504883 C53.2869987487793,-24.336000442504883 52.24399948120117,-24.183000564575195 52.24399948120117,-24.183000564575195z"></path><path stroke-linecap="round" stroke-linejoin="round" fill-opacity="0" stroke="rgb(153,86,5)" stroke-opacity="1" stroke-width="8" d=" M52.24399948120117,-24.183000564575195 C25.700000762939453,-17.93899917602539 -53.13100051879883,14.07800006866455 -49.94300079345703,21.229999542236328 C-46.755001068115234,28.381999969482422 -16.409000396728516,-5.900000095367432 53.2869987487793,-24.336000442504883 C53.2869987487793,-24.336000442504883 52.24399948120117,-24.183000564575195 52.24399948120117,-24.183000564575195z"></path></g><g opacity="1" transform="matrix(1,0,0,1,77.5009994506836,325.0840148925781)"><path stroke-linecap="round" stroke-linejoin="round" fill-opacity="0" stroke="rgb(255,252,0)" stroke-opacity="1" stroke-width="6" d=" M-42.137001037597656,20.083999633789062 C-39.30699920654297,12.781999588012695 -6.815999984741211,-3.9570000171661377 47.84700012207031,-21.97100067138672"></path></g><g opacity="1" transform="matrix(1,0,0,1,258.1510009765625,329.86700439453125)"><path stroke-linecap="round" stroke-linejoin="round" fill-opacity="0" stroke="rgb(255,252,0)" stroke-opacity="1" stroke-width="6" d=" M-42.803001403808594,-23.086999893188477 C-17.128000259399414,-14.460000038146973 37.50600051879883,15.348999977111816 42.803001403808594,23.086999893188477"></path></g></g><g style="display: block;" transform="matrix(0.9721898436546326,-0.29167091846466064,0.29167091846466064,0.9721898436546326,164.41807556152344,272.9214782714844)" opacity="1"><g opacity="1" transform="matrix(1.2200000286102295,0,0,1.2200000286102295,0,0)"><path fill="url(#__lottie_element_21)" mask="url(#__lottie_element_23)" fill-opacity="0.7000000000000001" d="M0 0 M-45.084999084472656,-3.5480000972747803 C-45.62799835205078,16.659000396728516 -40.75400161743164,23.60099983215332 -34.020999908447266,26.975000381469727 C-16.33099937438965,20.17799949645996 16.79400062561035,23.582000732421875 36.9370002746582,31.77400016784668 C40.83100128173828,30.58300018310547 44.71200180053711,24.062000274658203 45.25199890136719,-3.0799999237060547 C45.62699890136719,-21.937999725341797 41.314998626708984,-31.45199966430664 36.46699905395508,-35.72100067138672 C16.350000381469727,-31.14299964904785 -22.246999740600586,-35.97800064086914 -32.946998596191406,-38.95600128173828 C-38.31700134277344,-37.215999603271484 -44.527000427246094,-24.319000244140625 -45.084999084472656,-3.5480000972747803z"></path></g><g opacity="1" transform="matrix(0.6899999976158142,0,0,1,0,0)"><path fill="url(#__lottie_element_24)" fill-opacity="1" d=" M-56.69200134277344,-2.7679998874664307 C-56.729000091552734,23.520999908447266 -48.608001708984375,43.505001068115234 -22.81599998474121,48.0629997253418 C-1.2380000352859497,51.875999450683594 16.832000732421875,50.47100067138672 26.476999282836914,46.9370002746582 C36.03300094604492,43.435001373291016 58.262001037597656,28.634000778198242 57.20899963378906,1.5069999694824219 C56.14699935913086,-25.857999801635742 47.928001403808594,-47.930999755859375 29.01300048828125,-49.17399978637695 C9.753999710083008,-50.439998626708984 -16.71500015258789,-50.266998291015625 -29.920000076293945,-47.07400131225586 C-43.29199981689453,-43.840999603271484 -56.65399932861328,-29.913999557495117 -56.69200134277344,-2.7679998874664307z"></path></g><g opacity="1" transform="matrix(1,0,0,1,0,0)"><path stroke-linecap="round" stroke-linejoin="round" fill-opacity="0" stroke="rgb(203,147,67)" stroke-opacity="1" stroke-width="8" d=" M-38.742000579833984,-2.9100000858306885 C-38.77899932861328,23.378999710083008 -36.000999450683594,46.34400177001953 -13.755999565124512,48.65299987792969 C8.038999557495117,50.915000915527344 8.592000007629395,50.564998626708984 18.23699951171875,47.03099822998047 C27.792999267578125,43.52899932861328 39.72999954223633,28.398000717163086 38.676998138427734,1.2710000276565552 C37.6150016784668,-26.0939998626709 36.06399917602539,-48.071998596191406 17.14900016784668,-49.314998626708984 C-2.109999895095825,-50.58100128173828 -5.432000160217285,-50.50199890136719 -18.636999130249023,-47.308998107910156 C-32.00899887084961,-44.07600021362305 -38.70399856567383,-30.055999755859375 -38.742000579833984,-2.9100000858306885z"></path></g></g><g style="display: block;" transform="matrix(0.9721898436546326,-0.29167091846466064,0.29167091846466064,0.9721898436546326,-81.64105987548828,57.029457092285156)" opacity="1"><g opacity="0.66" transform="matrix(1,0,0,1,170.92599487304688,295.10198974609375)"><path fill="url(#__lottie_element_27)" fill-opacity="1" d=" M-42.42900085449219,-33.03499984741211 C-38.678001403808594,-13.835000038146973 -26.145000457763672,0.7059999704360962 -0.4779999852180481,2.0929999351501465 C24.586999893188477,3.447999954223633 39.9119987487793,-15.642999649047852 42.41999816894531,-25.395000457763672 C43.435001373291016,0.9179999828338623 38.334999084472656,13.779000282287598 28.900999069213867,22.8439998626709 C21.930999755859375,29.541000366210938 12.541999816894531,33.529998779296875 -3.0169999599456787,32.986000061035156 C-43.36000061035156,31.575000762939453 -42.965999603271484,5.5370001792907715 -42.42900085449219,-33.03499984741211z"></path></g><g opacity="1" transform="matrix(1,0,0,1,0,0)"><g opacity="1" transform="matrix(1,0,0,1,171.322998046875,256.04901123046875)"><path fill="url(#__lottie_element_28)" fill-opacity="1" d=" M-26.135000228881836,-0.9760000109672546 C-27.976999282836914,10.718000411987305 -27.295000076293945,20.2810001373291 -13.468000411987305,21.788999557495117 C2.7660000324249268,23.559999465942383 10.388999938964844,23.090999603271484 17.5939998626709,21.639999389648438 C24.75,20.198999404907227 25.85700035095215,12.826000213623047 25.125999450683594,-0.0820000022649765 C24.33799934387207,-13.993000030517578 22.625999450683594,-21.829999923706055 11.493000030517578,-22.464000701904297 C-2.937000036239624,-23.285999298095703 -2.8489999771118164,-23.231000900268555 -12.675999641418457,-21.91900062561035 C-22.5939998626709,-20.594999313354492 -24.51099967956543,-11.28600025177002 -26.135000228881836,-0.9760000109672546z"></path></g></g></g><g style="display: none;"><g><path stroke-linecap="round" stroke-linejoin="round" fill-opacity="0"></path></g></g><g style="display: none;"><g><path stroke-linecap="round" stroke-linejoin="round" fill-opacity="0"></path></g></g><g style="display: none;"><g><path stroke-linecap="round" stroke-linejoin="round" fill-opacity="0"></path></g></g><g style="display: none;"><g><path stroke-linecap="round" stroke-linejoin="round" fill-opacity="0"></path></g></g></g></svg>