<svg xmlns="http://www.w3.org/2000/svg" xmlns:xlink="http://www.w3.org/1999/xlink" viewBox="0 0 512 512" width="512" height="512" style="width: 100%; height: 100%; transform: translate3d(0,0,0); content-visibility: visible;" preserveAspectRatio="xMidYMid meet"><defs><clipPath id="__lottie_element_2"><rect width="512" height="512" x="0" y="0"></rect></clipPath><linearGradient id="__lottie_element_8" spreadMethod="pad" gradientUnits="userSpaceOnUse" x1="95.30899810791016" y1="152.9409942626953" x2="67.36699676513672" y2="124.9990005493164"><stop offset="0%" stop-color="rgb(203,243,96)"></stop><stop offset="62%" stop-color="rgb(135,197,71)"></stop><stop offset="99%" stop-color="rgb(68,150,45)"></stop></linearGradient><linearGradient id="__lottie_element_12" spreadMethod="pad" gradientUnits="userSpaceOnUse" x1="-60.691001892089844" y1="28.94099998474121" x2="-62.180999755859375" y2="130.99000549316406"><stop offset="0%" stop-color="rgb(173,211,74)"></stop><stop offset="62%" stop-color="rgb(120,181,59)"></stop><stop offset="99%" stop-color="rgb(68,150,45)"></stop></linearGradient><radialGradient id="__lottie_element_16" spreadMethod="pad" gradientUnits="userSpaceOnUse" cx="23.30900001525879" cy="37.941001892089844" r="180.10861502491295" fx="23.30900001525879" fy="37.941001892089844"><stop offset="0%" stop-color="rgb(240,52,70)"></stop><stop offset="25%" stop-color="rgb(236,42,53)"></stop><stop offset="48%" stop-color="rgb(232,32,36)"></stop><stop offset="76%" stop-color="rgb(206,28,26)"></stop><stop offset="100%" stop-color="rgb(179,23,16)"></stop></radialGradient><linearGradient id="__lottie_element_17" spreadMethod="pad" gradientUnits="userSpaceOnUse" x1="0.7480000257492065" y1="119.39700317382812" x2="18.173999786376953" y2="164.11099243164062"><stop offset="0%" stop-color="rgb(183,24,24)"></stop><stop offset="50%" stop-color="rgb(147,12,23)"></stop><stop offset="100%" stop-color="rgb(112,0,22)"></stop></linearGradient><radialGradient id="__lottie_element_22" spreadMethod="pad" gradientUnits="userSpaceOnUse" cx="105.30899810791016" cy="-129.0590057373047" r="191.74804236978355" fx="105.30899810791016" fy="-129.0590057373047"><stop offset="0%" stop-color="rgb(255,0,25)"></stop><stop offset="50%" stop-color="rgb(218,0,19)"></stop><stop offset="100%" stop-color="rgb(180,0,12)"></stop></radialGradient><linearGradient id="__lottie_element_23" spreadMethod="pad" gradientUnits="userSpaceOnUse" x1="35" y1="-44" x2="59" y2="-24"><stop offset="0%" stop-color="rgb(179,0,8)"></stop><stop offset="50%" stop-color="rgb(149,0,16)"></stop><stop offset="100%" stop-color="rgb(119,0,23)"></stop></linearGradient><linearGradient id="__lottie_element_24" spreadMethod="pad" gradientUnits="userSpaceOnUse" x1="117" y1="-137" x2="71" y2="-91"><stop offset="0%" stop-color="rgb(255,255,255)" stop-opacity="1"></stop><stop offset="50%" stop-color="rgb(255,255,255)" stop-opacity="0.5"></stop><stop offset="100%" stop-color="rgb(255,255,255)" stop-opacity="0"></stop></linearGradient><radialGradient id="__lottie_element_31" spreadMethod="pad" gradientUnits="userSpaceOnUse"><stop></stop><stop></stop><stop></stop></radialGradient><radialGradient id="__lottie_element_37" spreadMethod="pad" gradientUnits="userSpaceOnUse"><stop></stop><stop></stop><stop></stop></radialGradient><linearGradient id="__lottie_element_41" spreadMethod="pad" gradientUnits="userSpaceOnUse" x1="108" y1="-7" x2="47" y2="116"><stop offset="0%" stop-color="rgb(255,73,82)"></stop><stop offset="37%" stop-color="rgb(249,49,61)"></stop><stop offset="75%" stop-color="rgb(243,26,42)"></stop></linearGradient><linearGradient id="__lottie_element_42" spreadMethod="pad" gradientUnits="userSpaceOnUse" x1="146" y1="-137" x2="126.83799743652344" y2="98.80000305175781"><stop offset="0%" stop-color="rgb(255,255,255)"></stop><stop offset="50%" stop-color="rgb(255,255,255)"></stop><stop offset="100%" stop-color="rgb(255,255,255)"></stop></linearGradient><mask id="__lottie_element_44"><path fill="url(#__lottie_element_43)" d=" M102.77200317382812,-42.66299819946289 C105.81300354003906,-4.183000087738037 130.58700561523438,35.64799880981445 120.26200103759766,80.7979965209961 C112.37999725341797,115.24600219726562 87.05500030517578,139.5800018310547 55.354000091552734,153.35000610351562 C141.24099731445312,79.89099884033203 100.39800262451172,27.437999725341797 92.75,-21.69099998474121 C90.44200134277344,-36.516998291015625 91.7249984741211,-46.08700180053711 87.44000244140625,-46.185001373291016 C79.49700164794922,-46.36600112915039 47.237998962402344,9.345999717712402 46.332000732421875,15.17300033569336 C66.2490005493164,-73.23500061035156 137.9550018310547,-99.91100311279297 156.35499572753906,-104.97200012207031 C150.8800048828125,-103.31900024414062 99.30899810791016,-86.58200073242188 102.77200317382812,-42.66299819946289z"></path></mask><linearGradient id="__lottie_element_43" spreadMethod="pad" gradientUnits="userSpaceOnUse" x1="146" y1="-137" x2="126.83799743652344" y2="98.80000305175781"><stop stop-color="rgb(255,255,255)" offset="25%" stop-opacity="1"></stop><stop stop-color="rgb(255,255,255)" offset="63%" stop-opacity="0.5"></stop><stop stop-color="rgb(255,255,255)" offset="100%" stop-opacity="0"></stop></linearGradient><radialGradient id="__lottie_element_45" spreadMethod="pad" gradientUnits="userSpaceOnUse" cx="83.39700317382812" cy="81.0260009765625" r="60.514477554139624" fx="83.39700317382812" fy="81.0260009765625"><stop offset="31%" stop-color="rgb(187,2,23)"></stop><stop offset="50%" stop-color="rgb(155,1,24)"></stop><stop offset="69%" stop-color="rgb(123,0,24)"></stop></radialGradient><radialGradient id="__lottie_element_49" spreadMethod="pad" gradientUnits="userSpaceOnUse"><stop></stop><stop></stop><stop></stop></radialGradient><radialGradient id="__lottie_element_68" spreadMethod="pad" gradientUnits="userSpaceOnUse"><stop></stop><stop></stop><stop></stop></radialGradient><radialGradient id="__lottie_element_75" spreadMethod="pad" gradientUnits="userSpaceOnUse"><stop></stop><stop></stop><stop></stop></radialGradient><linearGradient id="__lottie_element_82" spreadMethod="pad" gradientUnits="userSpaceOnUse" x1="1.309000015258789" y1="221.9409942626953" x2="1.309000015258789" y2="178.33299255371094"><stop offset="0%" stop-color="rgb(175,255,21)"></stop><stop offset="58%" stop-color="rgb(117,198,24)"></stop><stop offset="99%" stop-color="rgb(59,141,28)"></stop></linearGradient></defs><g clip-path="url(#__lottie_element_2)"><g style="display: block;" transform="matrix(1.0299999713897705,0,0,1.0299999713897705,255.48500061035156,209.09249877929688)" opacity="1"><g opacity="1" transform="matrix(1,0,0,1,0,0)"><path fill="rgb(96,170,58)" fill-opacity="1" d=" M-13.29800033569336,241.875 C-10.71500015258789,242.40899658203125 -8.185999870300293,236.0330047607422 -11.37399959564209,235.50399780273438 C-14.989999771118164,234.9040069580078 -22.923999786376953,233.9149932861328 -23.395000457763672,235.13299560546875 C-23.83799934387207,236.2790069580078 -15.881999969482422,241.34100341796875 -13.29800033569336,241.875z"></path></g><g opacity="1" transform="matrix(1,0,0,1,0,0)"><path fill="url(#__lottie_element_82)" fill-opacity="1" d=" M19.340999603271484,172.95199584960938 C20.125,159.625 -19.875,156.125 -17.32900047302246,174.24899291992188 C-17.32900047302246,174.24899291992188 -11.836999893188477,181.76499938964844 -11.836999893188477,204.9409942626953 C-11.836999893188477,221.00799560546875 -11.836999893188477,248.5800018310547 -11.836999893188477,248.5800018310547 C-11.836999893188477,248.5800018310547 1.399999976158142,253.10299682617188 13.274999618530273,248.5800018310547 C13.274999618530273,248.5800018310547 13.206999778747559,221.00599670410156 13.274999618530273,206.33799743652344 C13.375,184.875 17.125,178.625 19.340999603271484,172.95199584960938z"></path></g><g opacity="0.4" transform="matrix(1,0,0,1,0,0)"><path fill="rgb(41,122,0)" fill-opacity="1" d=" M2.9649999141693115,187.86000061035156 C1.5299999713897705,211.9199981689453 1.9459999799728394,249.02200317382812 2.0380001068115234,250.53799438476562 C-4.328000068664551,250.20700073242188 -11.833000183105469,248.58200073242188 -11.833000183105469,248.58200073242188 C-11.833000183105469,248.58200073242188 -11.833000183105469,221.0050048828125 -11.833000183105469,204.93899536132812 C-11.833000183105469,181.76300048828125 -15.625,178.125 -17.32699966430664,174.2480010986328 C-16.125,148.875 31.875,169.875 11.720000267028809,176.1179962158203 C8.543999671936035,175.94200134277344 3.6019999980926514,177.17599487304688 2.9649999141693115,187.86000061035156z"></path></g><g opacity="1" transform="matrix(1,0,0,1,0,0)"><path stroke-linecap="round" stroke-linejoin="round" fill-opacity="0" stroke="rgb(63,122,33)" stroke-opacity="1" stroke-width="8" d=" M19.340999603271484,172.95199584960938 C20.125,159.625 -19.875,156.125 -17.32900047302246,174.24899291992188 C-17.32900047302246,174.24899291992188 -11.836999893188477,181.76499938964844 -11.836999893188477,204.9409942626953 C-11.836999893188477,221.00799560546875 -11.836999893188477,248.5800018310547 -11.836999893188477,248.5800018310547 C-11.836999893188477,248.5800018310547 1.399999976158142,253.10299682617188 13.274999618530273,248.5800018310547 C13.274999618530273,248.5800018310547 13.206999778747559,221.00599670410156 13.274999618530273,206.33799743652344 C13.375,184.875 17.125,178.625 19.340999603271484,172.95199584960938z"></path></g><g opacity="1" transform="matrix(1,0,0,1,0,0)"><path stroke-linecap="round" stroke-linejoin="round" fill-opacity="0" stroke="rgb(120,204,0)" stroke-opacity="1" stroke-width="8" d=" M-11.836999893188477,248.5800018310547 C-11.836999893188477,248.5800018310547 1.399999976158142,253.10299682617188 13.274999618530273,248.5800018310547 C13.274999618530273,248.5800018310547 13.206999778747559,221.00599670410156 13.274999618530273,206.33799743652344 C13.375,184.875 17.125,178.625 19.340999603271484,172.95199584960938"></path></g><g opacity="1" transform="matrix(1,0,0,1,0,0)"><path fill="rgb(198,255,72)" fill-opacity="1" d=" M3.315000057220459,240.75799560546875 C1.7519999742507935,238.63299560546875 -2.6559998989105225,240.21299743652344 -1.8109999895095825,243.33299255371094 C-1.1269999742507935,245.85699462890625 1.8049999475479126,248.77999877929688 2.640000104904175,248.2899932861328 C3.4749999046325684,247.8000030517578 4.686999797821045,242.6230010986328 3.315000057220459,240.75799560546875z"></path></g><g opacity="1" transform="matrix(1,0,0,1,0,0)"><path fill="rgb(156,224,10)" fill-opacity="1" d=" M14.234000205993652,207.58299255371094 C11.604999542236328,207.36599731445312 10.083000183105469,211.97000122070312 12.574999809265137,214.0279998779297 C15.067000389099121,216.08599853515625 27.194000244140625,214.42300415039062 27.371999740600586,213.4720001220703 C27.549999237060547,212.52099609375 16.541000366210938,207.7729949951172 14.234000205993652,207.58299255371094z"></path></g><g opacity="1" transform="matrix(1,0,0,1,0,0)"><path fill="rgb(198,255,72)" fill-opacity="1" d=" M-0.7059999704360962,210.08200073242188 C1.715999960899353,208.40199279785156 -0.8610000014305115,203.63699340820312 -4.021999835968018,204.31199645996094 C-6.239999771118164,204.78599548339844 -10.48900032043457,211.53599548339844 -9.95199966430664,212.34100341796875 C-9.414999961853027,213.14599609375 -2.6089999675750732,211.4010009765625 -0.7059999704360962,210.08200073242188z"></path></g><g opacity="1" transform="matrix(1,0,0,1,0,0)"><path fill="rgb(96,170,58)" fill-opacity="1" d=" M-9.821999549865723,198.21600341796875 C-6.941999912261963,198.17100524902344 -6.340000152587891,192.9530029296875 -9.656999588012695,191.30099487304688 C-12.508000373840332,189.88099670410156 -23.496000289916992,192.51199340820312 -23.413000106811523,193.74600219726562 C-23.333999633789062,194.92599487304688 -12.348999977111816,198.25599670410156 -9.821999549865723,198.21600341796875z"></path></g></g><g style="display: block;" transform="matrix(1.0299999713897705,0,0,1.0299999713897705,255.2274932861328,209.09300231933594)" opacity="1"><g opacity="1" transform="matrix(1,0,0,1,0,0)"><path fill="rgb(83,141,27)" fill-opacity="1" d=" M-179.2030029296875,93.77200317382812 C-179.2030029296875,93.77200317382812 -139.47900390625,87.38500213623047 -99.46700286865234,124.51799774169922 C-83.19300079345703,139.62100219726562 -81.625,144.875 -82.4540023803711,147.4499969482422 C-86.37799835205078,149.51300048828125 -103.3239974975586,140.93299865722656 -112.4209976196289,133.1529998779297 C-134.29800415039062,114.44300079345703 -142.93299865722656,93.35299682617188 -179.2030029296875,93.77200317382812z"></path><path stroke-linecap="round" stroke-linejoin="round" fill-opacity="0" stroke="rgb(41,122,0)" stroke-opacity="1" stroke-width="8" d=" M-179.2030029296875,93.77200317382812 C-179.2030029296875,93.77200317382812 -139.47900390625,87.38500213623047 -99.46700286865234,124.51799774169922 C-83.19300079345703,139.62100219726562 -81.625,144.875 -82.4540023803711,147.4499969482422 C-86.37799835205078,149.51300048828125 -103.3239974975586,140.93299865722656 -112.4209976196289,133.1529998779297 C-134.29800415039062,114.44300079345703 -142.93299865722656,93.35299682617188 -179.2030029296875,93.77200317382812z"></path></g><g opacity="1" transform="matrix(1,0,0,1,0,0)"><path stroke-linecap="round" stroke-linejoin="round" fill-opacity="0" stroke="rgb(35,96,0)" stroke-opacity="1" stroke-width="8" d=" M-82.80899810791016,147.5970001220703 C-87.30799865722656,149.0399932861328 -103.57499694824219,140.71800231933594 -112.4209976196289,133.1529998779297 C-134.29800415039062,114.44300079345703 -142.93299865722656,93.35299682617188 -179.2030029296875,93.77200317382812"></path></g></g><g style="display: none;"><g><path fill="url(#__lottie_element_75)"></path><path stroke-linecap="butt" stroke-linejoin="miter" fill-opacity="0" stroke-miterlimit="4"></path></g></g><g style="display: block;" transform="matrix(1.0299999713897705,0,0,1.0299999713897705,255.22801208496094,209.09249877929688)" opacity="1"><g opacity="1" transform="matrix(1,0,0,1,0,0)"><path fill="rgb(172,1,11)" fill-opacity="1" d=" M-4.640999794006348,-91.61399841308594 C-9.86299991607666,-127.84100341796875 -43.1150016784668,-157.302001953125 -65.1050033569336,-157.302001953125 C-85.4280014038086,-157.302001953125 -85.05899810791016,-142.94000244140625 -77.20099639892578,-130.7899932861328 C-68.68800354003906,-117.62699890136719 -55.60900115966797,-103.1510009765625 -61.229000091552734,-68.85600280761719 C-67.125,-32.875 1.375,-49.875 -4.640999794006348,-91.61399841308594z"></path></g><g opacity="0.4" transform="matrix(1,0,0,1,0,0)"><path fill="rgb(123,0,24)" fill-opacity="1" d=" M-60.23099899291992,-84.86000061035156 C-58.125,-95.875 -66.625,-118.875 -77.20099639892578,-130.7899932861328 C-50.625,-104.375 -45.625,-148.875 -25.024999618530273,-136.1490020751953 C-10.625,-119.875 -5.125,-96.375 -60.23099899291992,-84.86000061035156z"></path></g><g opacity="0.55" transform="matrix(1,0,0,1,0,0)"><path fill="rgb(255,38,56)" fill-opacity="1" d=" M-14.1850004196167,-115.89399719238281 C-17.573999404907227,-121.05899810791016 -38.702999114990234,-146.52000427246094 -61.869998931884766,-146.2449951171875 C-75.125,-146.0800018310547 -78.61599731445312,-139.75999450683594 -78.74500274658203,-133.3939971923828 C-85.01000213623047,-144.89500427246094 -83.9990005493164,-157.30499267578125 -65.10299682617188,-157.30499267578125 C-43.11199951171875,-157.30499267578125 -18.632999420166016,-135.17599487304688 -14.1850004196167,-115.89399719238281z"></path></g><g opacity="1" transform="matrix(1,0,0,1,0,0)"><path stroke-linecap="round" stroke-linejoin="round" fill-opacity="0" stroke="rgb(104,0,30)" stroke-opacity="1" stroke-width="8" d=" M-4.640999794006348,-91.61399841308594 C-9.86299991607666,-127.84100341796875 -43.1150016784668,-157.302001953125 -65.1050033569336,-157.302001953125 C-85.4280014038086,-157.302001953125 -85.05899810791016,-142.94000244140625 -77.20099639892578,-130.7899932861328 C-68.68800354003906,-117.62699890136719 -55.60900115966797,-103.1510009765625 -61.229000091552734,-68.85600280761719 C-67.125,-32.875 1.375,-49.875 -4.640999794006348,-91.61399841308594z"></path></g></g><g style="display: none;"><g><path fill="url(#__lottie_element_68)"></path><path stroke-linecap="butt" stroke-linejoin="miter" fill-opacity="0" stroke-miterlimit="4"></path></g><g><path></path></g></g><g style="display: block;" transform="matrix(1.0299999713897705,0,0,1.0299999713897705,255.22698974609375,209.09249877929688)" opacity="1"><g opacity="1" transform="matrix(1,0,0,1,0,0)"><path fill="rgb(172,1,11)" fill-opacity="1" d=" M76.96700286865234,-132.8350067138672 C81.09300231933594,-146.1439971923828 77.31600189208984,-160.50900268554688 51.446998596191406,-159.90699768066406 C25.577999114990234,-159.30499267578125 2.2179999351501465,-148.77699279785156 -10.918000221252441,-130.72900390625 C-24.054000854492188,-112.68099975585938 -17.729000091552734,-59.654998779296875 35.40700149536133,-74.43000030517578 C69.375,-83.875 74.34200286865234,-124.36699676513672 76.96700286865234,-132.8350067138672z"></path></g><g opacity="0.54" transform="matrix(1,0,0,1,0,0)"><path fill="rgb(255,38,56)" fill-opacity="1" d=" M72.13800048828125,-117.4469985961914 C75.23300170898438,-130.61099243164062 73.70899963378906,-149.1750030517578 49.0890007019043,-149.00999450683594 C6.184999942779541,-148.72300720214844 -16.148000717163086,-116.82599639892578 -16.302000045776367,-114.86900329589844 C-16.125,-142.375 25.582000732421875,-159.30799865722656 51.45000076293945,-159.90499877929688 C77.31800079345703,-160.51100158691406 85.875,-145.375 72.13800048828125,-117.4469985961914z"></path></g><g opacity="1" transform="matrix(1,0,0,1,0,0)"><path stroke-linecap="round" stroke-linejoin="round" fill-opacity="0" stroke="rgb(127,0,30)" stroke-opacity="1" stroke-width="8" d=" M76.96700286865234,-132.8350067138672 C81.09300231933594,-146.1439971923828 77.31600189208984,-160.50900268554688 51.446998596191406,-159.90699768066406 C25.577999114990234,-159.30499267578125 2.2179999351501465,-148.77699279785156 -10.918000221252441,-130.72900390625 C-24.054000854492188,-112.68099975585938 -17.729000091552734,-59.654998779296875 35.40700149536133,-74.43000030517578 C69.375,-83.875 74.34200286865234,-124.36699676513672 76.96700286865234,-132.8350067138672z"></path></g></g><g style="display: block;" transform="matrix(1.0299999713897705,0,0,1.0299999713897705,255.22698974609375,209.09249877929688)" opacity="1"><g opacity="1" transform="matrix(1,0,0,1,0,0)"><path fill="rgb(255,122,132)" fill-opacity="1" d=" M37.11399841308594,-158.21099853515625 C45.375,-158.25 51.92599868774414,-160.7779998779297 63.71699905395508,-156.64199829101562 C71.25,-154 73.875,-149.125 76.50499725341797,-144.5570068359375 C75.77100372314453,-147.73300170898438 72.0719985961914,-156.3070068359375 65.04499816894531,-158.2169952392578 C56.349998474121094,-160.5800018310547 47.5,-160.125 37.11399841308594,-158.21099853515625z"></path></g><g opacity="1" transform="matrix(1,0,0,1,0,0)"><path stroke-linecap="round" stroke-linejoin="round" fill-opacity="0" stroke="rgb(127,0,30)" stroke-opacity="1" stroke-width="8" d=" M25.531999588012695,-155.62100219726562 C33.625,-158.375 51.875,-162 65.59200286865234,-158.14199829101562 C74.76699829101562,-155.56199645996094 77.125,-148.75 78.0250015258789,-145.22999572753906"></path></g></g><g style="display: block;" transform="matrix(1.0299999713897705,0,0,1.0299999713897705,255.22801208496094,209.09197998046875)" opacity="1"><g opacity="1" transform="matrix(1,0,0,1,0,0)"><path fill="rgb(243,0,23)" fill-opacity="1" d=" M44.17399978637695,70.03500366210938 C-19.125,31.125 33.1619987487793,-66.51200103759766 88.0999984741211,-98.19999694824219 C130.1439971923828,-122.45099639892578 161.08999633789062,-110.22599792480469 156.8260040283203,-105.10900115966797 C93.375,-89.375 54.57699966430664,15.383000373840332 44.17399978637695,70.03500366210938z"></path><path stroke-linecap="round" stroke-linejoin="round" fill-opacity="0" stroke="rgb(127,0,30)" stroke-opacity="1" stroke-width="8" d=" M44.17399978637695,70.03500366210938 C-19.125,31.125 33.1619987487793,-66.51200103759766 88.0999984741211,-98.19999694824219 C130.1439971923828,-122.45099639892578 161.08999633789062,-110.22599792480469 156.8260040283203,-105.10900115966797 C93.375,-89.375 54.57699966430664,15.383000373840332 44.17399978637695,70.03500366210938z"></path></g></g><g style="display: block;" transform="matrix(1.0299999713897705,0,0,1.0299999713897705,255.22698974609375,209.09249877929688)" opacity="1"><g opacity="1" transform="matrix(1,0,0,1,0,0)"><path fill="rgb(205,2,14)" fill-opacity="1" d=" M42.6349983215332,-112.69400024414062 C31.13800048828125,-131.97500610351562 9.685999870300293,-140.54600524902344 -10.918000221252441,-138.1020050048828 C-28.85700035095215,-135.9739990234375 -46.27799987792969,-117.5199966430664 -51.37200164794922,-92.59600067138672 C-56.59400177001953,-67.04499816894531 -55.625,9.125 5.552999973297119,6.684000015258789 C80.2509994506836,3.703000068664551 52.48500061035156,-96.1760025024414 42.6349983215332,-112.69400024414062z"></path></g><g opacity="0.4" transform="matrix(1,0,0,1,0,0)"><path fill="rgb(123,0,24)" fill-opacity="1" d=" M4.554999828338623,-36.81999969482422 C-42.220001220703125,-32.944000244140625 -61.1619987487793,-70.88200378417969 -48.724998474121094,-97.28299713134766 C-17.868000030517578,-70.1760025024414 -10.878999710083008,-115.56400299072266 33.314998626708984,-123.2249984741211 C57.89699935913086,-104.29399871826172 51.32099914550781,-40.6870002746582 4.554999828338623,-36.81999969482422z"></path></g><g opacity="0.56" transform="matrix(1,0,0,1,0,0)"><path fill="rgb(255,69,85)" fill-opacity="1" d=" M45.85499954223633,-100.15799713134766 C38.13199996948242,-107.35299682617188 17.65399932861328,-133.6230010986328 -10.914999961853027,-126.22799682617188 C-39.042999267578125,-118.96199798583984 -51.986000061035156,-82.97200012207031 -52.38100051879883,-81.85099792480469 C-53.39799880981445,-109.47100067138672 -33.632999420166016,-135.58799743652344 -10.914999961853027,-138.1060028076172 C9.706999778747559,-140.39199829101562 40.95500183105469,-130.17599487304688 45.85499954223633,-100.15799713134766z"></path></g><g opacity="1" transform="matrix(0.999998927116394,-0.0014835293404757977,0.0014835293404757977,0.999998927116394,0,0)"><path stroke-linecap="round" stroke-linejoin="round" fill-opacity="0" stroke="rgb(127,0,30)" stroke-opacity="1" stroke-width="8" d=" M42.6349983215332,-112.69400024414062 C31.13800048828125,-131.97500610351562 9.685999870300293,-140.54600524902344 -10.918000221252441,-138.1020050048828 C-28.85700035095215,-135.9739990234375 -46.27799987792969,-117.5199966430664 -51.37200164794922,-92.59600067138672 C-56.59400177001953,-67.04499816894531 -55.625,9.125 5.552999973297119,6.684000015258789 C80.2509994506836,3.703000068664551 52.48500061035156,-96.1760025024414 42.6349983215332,-112.69400024414062z"></path></g></g><g style="display: none;"><g><path fill="url(#__lottie_element_31)"></path><path stroke-linecap="butt" stroke-linejoin="miter" fill-opacity="0" stroke-miterlimit="4"></path></g><g><path></path></g></g><g style="display: block;" transform="matrix(0.9667346477508545,0.35542091727256775,-0.35542091727256775,0.9667346477508545,257.3019714355469,204.34104919433594)" opacity="1"><g opacity="1" transform="matrix(1,0,0,1,0,0)"><path fill="rgb(255,122,132)" fill-opacity="1" d=" M-66.08399963378906,-114.375 C-63.39500045776367,-115.87999725341797 -58.09199905395508,-121.01300048828125 -46.8849983215332,-123.44599914550781 C-28.982999801635742,-127.33300018310547 -20.601999282836914,-124.81999969482422 -13.072999954223633,-122.00599670410156 C-25.729999542236328,-128.26199340820312 -38.20800018310547,-126.33899688720703 -47.03499984741211,-124.1989974975586 C-54.9010009765625,-122.29199981689453 -62.07899856567383,-118.09500122070312 -66.08399963378906,-114.375z"></path></g><g opacity="1" transform="matrix(1,0,0,1,0,0)"><path stroke-linecap="round" stroke-linejoin="round" fill-opacity="0" stroke="rgb(127,0,30)" stroke-opacity="1" stroke-width="8" d=" M-68.55699920654297,-112.53199768066406 C-62.78300094604492,-117.83599853515625 -58.27799987792969,-122.0989990234375 -47.05099868774414,-124.98300170898438 C-34.74300003051758,-128.14500427246094 -21.660999298095703,-128.42599487304688 -10.001999855041504,-121.927001953125"></path></g></g><g style="display: none;"><g><path fill="url(#__lottie_element_49)"></path><path stroke-linecap="butt" stroke-linejoin="miter" fill-opacity="0" stroke-miterlimit="4"></path></g><g><path></path></g></g><g style="display: block;" transform="matrix(1.0299999713897705,0,0,1.0299999713897705,255.2274932861328,209.09249877929688)" opacity="1"><g opacity="1" transform="matrix(1,0,0,1,1,0)"><path fill="url(#__lottie_element_22)" fill-opacity="1" d=" M94.99199676513672,-72.18800354003906 C96.98300170898438,-95.10299682617188 109.84200286865234,-112.07599639892578 123.46700286865234,-126.80400085449219 C134.781005859375,-139.03399658203125 130.96299743652344,-146.48899841308594 105.63099670410156,-143.6529998779297 C85.21099853515625,-141.36700439453125 13.954000473022461,-126.62000274658203 -22.985000610351562,-55.21099853515625 C-61.2400016784668,18.740999221801758 -31.625,149.125 33.090999603271484,133.42100524902344 C93.06700134277344,118.86799621582031 91.48200225830078,-31.788999557495117 94.99199676513672,-72.18800354003906z"></path></g><g opacity="0.4" transform="matrix(1,0,0,1,0,0)"><path fill="url(#__lottie_element_23)" fill-opacity="1" d=" M107.04399871826172,-104.54000091552734 C101.26599884033203,-95.09700012207031 96.64199829101562,-84.5260009765625 95.99299621582031,-72.18699645996094 C92.375,-3.375 79.38999938964844,67.28299713134766 44.96099853515625,77.05699920654297 C-20.072999954223633,77.94100189208984 -35.39799880981445,4.4120001792907715 -33.986000061035156,-1.5880000591278076 C0.24899999797344208,4.764999866485596 27.073999404907227,-9.352999687194824 40.7239990234375,-34.87200164794922 C68.11599731445312,-86.08200073242188 100.3759994506836,-94.927001953125 107.04399871826172,-104.54000091552734z"></path></g><g opacity="0.4" transform="matrix(1,0,0,1,0,0)"><path fill="url(#__lottie_element_24)" fill-opacity="1" d=" M124.47000122070312,-126.80699920654297 C110.83799743652344,-112.072998046875 96.95500183105469,-89.94100189208984 93.15399932861328,-56.41400146484375 C87.25299835205078,-101.55400085449219 114.68099975585938,-131.09300231933594 108.07599639892578,-131.697998046875 C65.21299743652344,-135.6219940185547 14.95300006866455,-102.59300231933594 14.95300006866455,-102.59300231933594 C50.650001525878906,-133.86199951171875 91.88600158691406,-142 106.62999725341797,-143.6540069580078 C131.96499633789062,-146.4929962158203 135.7779998779297,-139.03399658203125 124.47000122070312,-126.80699920654297z"></path></g><g opacity="1" transform="matrix(1,0,0,1,0,0)"><path stroke-linecap="round" stroke-linejoin="round" fill-opacity="0" stroke="rgb(178,0,34)" stroke-opacity="1" stroke-width="8" d=" M95.99199676513672,-72.18800354003906 C97.98300170898438,-95.10299682617188 110.84200286865234,-112.07599639892578 124.46700286865234,-126.80400085449219 C135.781005859375,-139.03399658203125 131.96299743652344,-146.48899841308594 106.63099670410156,-143.6529998779297 C86.21099853515625,-141.36700439453125 14.954000473022461,-126.62000274658203 -21.985000610351562,-55.21099853515625 C-60.2400016784668,18.740999221801758 -30.625,149.125 34.090999603271484,133.42100524902344 C94.06700134277344,118.86799621582031 92.48200225830078,-31.788999557495117 95.99199676513672,-72.18800354003906z"></path></g><g opacity="1" transform="matrix(1,0,0,1,0,0)"><path stroke-linecap="round" stroke-linejoin="round" fill-opacity="0" stroke="rgb(127,0,30)" stroke-opacity="1" stroke-width="8" d=" M129.05299377441406,-141.12899780273438 C126.1729965209961,-143.97900390625 118.94300079345703,-145.031005859375 106.63099670410156,-143.6529998779297 C86.21099853515625,-141.36700439453125 14.954000473022461,-126.62000274658203 -21.985000610351562,-55.21099853515625 C-60.2400016784668,18.740999221801758 -30.625,149.125 34.090999603271484,133.42100524902344 C94.06700134277344,118.86799621582031 92.48200225830078,-31.788999557495117 95.99199676513672,-72.18800354003906"></path></g></g><g style="display: block;" transform="matrix(1.0299999713897705,0,0,1.0299999713897705,255.22801208496094,209.09197998046875)" opacity="1"><g opacity="1" transform="matrix(1,0,0,1,0,0)"><path fill="url(#__lottie_element_41)" fill-opacity="1" d=" M43.808998107910156,45.67399978637695 C45.3120002746582,14.031999588012695 46.89899826049805,-11.741999626159668 74.5199966430664,-49.027000427246094 C97.4739990234375,-80.01300048828125 130.65699768066406,-98.01100158691406 156.8260040283203,-105.10900115966797 C156.8260040283203,-105.10900115966797 99.11399841308594,-89.04000091552734 102.7750015258789,-42.6619987487793 C105.81199645996094,-4.182000160217285 130.58799743652344,35.64500045776367 120.25800323486328,80.802001953125 C109.9280014038086,125.95899963378906 69.60900115966797,153.74400329589844 24.270000457763672,163.1269989013672 C-21.069000244140625,172.50999450683594 41.74100112915039,89.22799682617188 43.808998107910156,45.67399978637695z"></path></g><g opacity="0.4" transform="matrix(1,0,0,1,0,0)"><path fill="url(#__lottie_element_42)" mask="url(#__lottie_element_44)" fill-opacity="1" d="M0 0 M102.77200317382812,-42.66299819946289 C105.81300354003906,-4.183000087738037 130.58700561523438,35.64799880981445 120.26200103759766,80.7979965209961 C112.37999725341797,115.24600219726562 87.05500030517578,139.5800018310547 55.354000091552734,153.35000610351562 C141.24099731445312,79.89099884033203 100.39800262451172,27.437999725341797 92.75,-21.69099998474121 C90.44200134277344,-36.516998291015625 91.7249984741211,-46.08700180053711 87.44000244140625,-46.185001373291016 C79.49700164794922,-46.36600112915039 47.237998962402344,9.345999717712402 46.332000732421875,15.17300033569336 C66.2490005493164,-73.23500061035156 137.9550018310547,-99.91100311279297 156.35499572753906,-104.97200012207031 C150.8800048828125,-103.31900024414062 99.30899810791016,-86.58200073242188 102.77200317382812,-42.66299819946289z"></path></g><g opacity="0.4" transform="matrix(1,0,0,1,0,0)"><path fill="url(#__lottie_element_45)" fill-opacity="1" d=" M123.072998046875,59.47100067138672 C117.4260025024414,129.70599365234375 69.61000061035156,153.7449951171875 24.26799964904785,163.12399291992188 C-16.63800048828125,171.593994140625 36.34700012207031,92.7750015258789 41.611000061035156,59.45000076293945 C56.375,72.625 100.375,144.125 123.072998046875,59.47100067138672z"></path></g><g opacity="1" transform="matrix(1,0,0,1,0,0)"><path stroke-linecap="round" stroke-linejoin="round" fill-opacity="0" stroke="rgb(178,0,34)" stroke-opacity="1" stroke-width="8" d=" M43.808998107910156,45.67399978637695 C45.3120002746582,14.031999588012695 46.89899826049805,-11.741999626159668 74.5199966430664,-49.027000427246094 C97.4739990234375,-80.01300048828125 130.65699768066406,-98.01100158691406 156.8260040283203,-105.10900115966797 C156.8260040283203,-105.10900115966797 99.11399841308594,-89.04000091552734 102.7750015258789,-42.6619987487793 C105.81199645996094,-4.182000160217285 130.58799743652344,35.64500045776367 120.25800323486328,80.802001953125 C109.9280014038086,125.95899963378906 69.60900115966797,153.74400329589844 24.270000457763672,163.1269989013672 C-21.069000244140625,172.50999450683594 41.74100112915039,89.22799682617188 43.808998107910156,45.67399978637695z"></path></g><g opacity="1" transform="matrix(1,0,0,1,0,0)"><path stroke-linecap="round" stroke-linejoin="round" fill-opacity="0" stroke="rgb(127,0,30)" stroke-opacity="1" stroke-width="8" d=" M25.086999893188477,103.70999908447266 C33.93899917602539,83.4000015258789 43.042999267578125,61.810001373291016 43.808998107910156,45.67399978637695 C43.808998107910156,45.67399978637695 43.808998107910156,45.67399978637695 43.808998107910156,45.67399978637695 C45.3120002746582,14.031999588012695 46.89899826049805,-11.741999626159668 74.5199966430664,-49.027000427246094 C97.4739990234375,-80.01300048828125 130.65699768066406,-98.01100158691406 156.8260040283203,-105.10900115966797 C156.8260040283203,-105.10900115966797 155.1649932861328,-104.64700317382812 152.4250030517578,-103.6520004272461"></path></g></g><g style="display: none;"><g><path fill="url(#__lottie_element_37)"></path><path stroke-linecap="butt" stroke-linejoin="miter" fill-opacity="0" stroke-miterlimit="4"></path></g><g><path></path></g></g><g style="display: none;"><g><path></path><path stroke-linecap="round" stroke-linejoin="round" fill-opacity="0"></path></g></g><g style="display: block;" transform="matrix(1.0278923511505127,0.06585832685232162,-0.06585832685232162,1.0278923511505127,234.11231994628906,218.70216369628906)" opacity="1"><g opacity="1" transform="matrix(1,0,0,1,0,0)"><path fill="rgb(255,122,132)" fill-opacity="1" d=" M31.922000885009766,-116.73799896240234 C37.90999984741211,-121.87699890136719 61.1349983215332,-138.64599609375 78.70899963378906,-146.13699340820312 C93.95099639892578,-152.63299560546875 115.08899688720703,-160.64199829101562 133.58299255371094,-159.76699829101562 C121.1500015258789,-163.78599548339844 94.66899871826172,-154.82400512695312 78.24299621582031,-147.10400390625 C60.15399932861328,-138.6020050048828 37.96799850463867,-124.88700103759766 31.922000885009766,-116.73799896240234z"></path></g><g opacity="1" transform="matrix(1,0,0,1,0,0)"><path stroke-linecap="round" stroke-linejoin="round" fill-opacity="0" stroke="rgb(127,0,30)" stroke-opacity="1" stroke-width="8" d=" M24.909000396728516,-110.4209976196289 C37.75,-124.37200164794922 56.176998138427734,-137.8280029296875 77.8270034790039,-147.83299255371094 C107.63300323486328,-161.60800170898438 125.50399780273438,-162.31100463867188 134.8209991455078,-161.3489990234375"></path></g></g><g style="display: block;" transform="matrix(1.0299999713897705,0,0,1.0299999713897705,255.2274932861328,209.09197998046875)" opacity="1"><g opacity="1" transform="matrix(1,0,0,1,0,0)"><path fill="url(#__lottie_element_16)" fill-opacity="1" d=" M-110.04399871826172,-68.71600341796875 C-109.21099853515625,-62.24300003051758 -108.15899658203125,-43.95500183105469 -117.8270034790039,0.9020000100135803 C-128.0540008544922,48.35599899291992 -136.76300048828125,89.6729965209961 -108.8030014038086,128.3209991455078 C-80.84300231933594,166.968994140625 -4.23799991607666,194.01600646972656 33.858001708984375,154.5679931640625 C45.875,142.125 68.625,67.375 2.940000057220459,-4.302000045776367 C-5.9770002365112305,-14.032999992370605 -28.871999740600586,-19.020000457763672 -37.96799850463867,-34.49700164794922 C-46.125,-48.375 -41.625,-91.375 -71.41600036621094,-116.5780029296875 C-101.76499938964844,-142.25399780273438 -131.69900512695312,-146.6020050048828 -148.1580047607422,-137.8979949951172 C-154.57000732421875,-134.5070037841797 -162.6219940185547,-123.15299987792969 -148.64199829101562,-111.16000366210938 C-133.87399291992188,-98.49099731445312 -111.88099670410156,-82.98699951171875 -110.04399871826172,-68.71600341796875z"></path></g><g opacity="0.4" transform="matrix(1,0,0,1,0,0)"><path fill="rgb(123,0,24)" fill-opacity="1" d=" M45.85100173950195,107.98500061035156 C48.875,66.625 18.35099983215332,23.290000915527344 -2.118000030517578,6.883999824523926 C-31.559999465942383,-16.714000701904297 -49.54499816894531,-5.223999977111816 -61.81100082397461,-47.33399963378906 C-75.28299713134766,-93.58599853515625 -118.1709976196289,-125.29100036621094 -112.18800354003906,-75.2969970703125 C-118.40699768066406,-87.63400268554688 -136.1179962158203,-100.4209976196289 -148.63900756835938,-111.15899658203125 C-162.6199951171875,-123.15599822998047 -154.572998046875,-134.50999450683594 -148.16099548339844,-137.89999389648438 C-131.6999969482422,-146.5989990234375 -102.5979995727539,-141.23399353027344 -71.41100311279297,-116.5790023803711 C-40.233001708984375,-91.92400360107422 39.85900115966797,4.335000038146973 48.18899917602539,54.444000244140625 C52.375,79.625 49.875,94.125 45.85100173950195,107.98500061035156z"></path></g><g opacity="0.4" transform="matrix(1,0,0,1,0,0)"><path fill="rgb(123,0,24)" fill-opacity="1" d=" M22.856000900268555,164.06500244140625 C-37.125,206.625 -112.125,113.625 -62.3120002746582,109.0459976196289 C-23.125,154.625 18.878000259399414,131.21600341796875 26.35099983215332,124.98500061035156 C39.375,114.125 46.970001220703125,89.70800018310547 45.63199996948242,78.65399932861328 C51.875,93.125 55.03499984741211,141.23199462890625 22.856000900268555,164.06500244140625z"></path><path fill="url(#__lottie_element_17)" fill-opacity="1" d=" M22.856000900268555,164.06500244140625 C-37.125,206.625 -112.125,113.625 -62.3120002746582,109.0459976196289 C-23.125,154.625 18.878000259399414,131.21600341796875 26.35099983215332,124.98500061035156 C39.375,114.125 46.970001220703125,89.70800018310547 45.63199996948242,78.65399932861328 C51.875,93.125 55.03499984741211,141.23199462890625 22.856000900268555,164.06500244140625z"></path></g><g opacity="1" transform="matrix(1,0,0,1,0,0)"><path fill="rgb(228,41,41)" fill-opacity="1" d=" M-68.02200317382812,160.55599975585938 C-84.51100158691406,152.63800048828125 -99.22699737548828,141.5590057373047 -108.79900360107422,128.32200622558594 C-136.76100158691406,89.6760025024414 -128.052001953125,48.356998443603516 -117.8280029296875,0.9020000100135803 C-108.15499877929688,-43.95399856567383 -109.39700317382812,-79.8239974975586 -110.36799621582031,-96.33999633789062 C-104.97000122070312,-88.97899627685547 -102.47899627685547,-69.80000305175781 -101.64600372314453,-58.2859992980957 C-96.76300048828125,9.218000411987305 -152.52999877929688,87.72200012207031 -68.02200317382812,160.55599975585938z"></path></g><g opacity="0.63" transform="matrix(1,0,0,1,0,0)"><path fill="rgb(255,25,44)" fill-opacity="1" d=" M-131.04400634765625,-95.8239974975586 C-167.75,-120.29499816894531 -155.04400634765625,-133.4709930419922 -148.16099548339844,-137.89999389648438 C-138.9239959716797,-143.84300231933594 -114.73600006103516,-148.0019989013672 -81.00900268554688,-123.6050033569336 C-81.00900268554688,-123.6050033569336 -135.625,-140.875 -146.16000366210938,-124.18900299072266 C-151.3470001220703,-115.9739990234375 -140.45599365234375,-109 -131.04400634765625,-95.8239974975586z"></path></g><g opacity="1" transform="matrix(1,0,0,1,0,0)"><path fill="rgb(237,17,33)" fill-opacity="1" d=" M2.9779999256134033,-3.5409998893737793 C-8.61400032043457,-14.645000457763672 -30.56599998474121,-24.260000228881836 -37.810001373291016,-34.172000885009766 C-48.986000061035156,-49.4630012512207 -40.380001068115234,-91.03299713134766 -71.41600036621094,-116.5780029296875 C-71.41600036621094,-116.5780029296875 -18.57200050354004,-64.26599884033203 13.543000221252441,-15.987000465393066 C44.95600128173828,31.236000061035156 57.191001892089844,61.82400131225586 49.6619987487793,109.35299682617188 C48.25,76.41200256347656 38.125,30.125 2.9779999256134033,-3.5409998893737793z"></path></g><g opacity="1" transform="matrix(1,0,0,1,0,0)"><path fill="rgb(255,60,60)" fill-opacity="1" d=" M41.40299987792969,33.57699966430664 C10.78600025177002,-22.531999588012695 -46.112998962402344,-72.87100219726562 -47.04100036621094,-73.68900299072266 C-49.861000061035156,-86.11799621582031 -54.582000732421875,-99.18099975585938 -64.77899932861328,-110.2959976196289 C-36.808998107910156,-87 26.719999313354492,-3 41.40299987792969,33.57699966430664z"></path></g><g opacity="1" transform="matrix(1,0,0,1,0,0)"><path stroke-linecap="round" stroke-linejoin="round" fill-opacity="0" stroke="rgb(178,0,34)" stroke-opacity="1" stroke-width="8" d=" M34.36600112915039,154.3260040283203 C70.375,105.625 52.875,40.625 17.025999069213867,-10.652000427246094 C2.2660000324249268,-31.764999389648438 -12.263999938964844,-51.12699890136719 -25.614999771118164,-67.63600158691406 C-43.89899826049805,-90.24500274658203 -59.974998474121094,-107.50299835205078 -71.41100311279297,-116.5790023803711"></path></g><g opacity="1" transform="matrix(1,0,0,1,0,0)"><path stroke-linecap="round" stroke-linejoin="round" fill-opacity="0" stroke="rgb(127,0,30)" stroke-opacity="1" stroke-width="8" d=" M-110.04399871826172,-68.71600341796875 C-109.21099853515625,-62.24300003051758 -108.15899658203125,-43.95500183105469 -117.8270034790039,0.9020000100135803 C-128.0540008544922,48.35599899291992 -136.76300048828125,89.6729965209961 -108.8030014038086,128.3209991455078 C-80.84300231933594,166.968994140625 -4.23799991607666,194.01600646972656 33.858001708984375,154.5679931640625 C45.875,142.125 70.33799743652344,65.76699829101562 2.940000057220459,-4.302000045776367 C-9.875,-17.625 -31.625,-23.625 -37.96900177001953,-34.49700164794922 C-46.08100128173828,-48.4010009765625 -41.625999450683594,-91.375 -71.41600036621094,-116.5780029296875 C-101.76499938964844,-142.25399780273438 -131.69900512695312,-146.6020050048828 -148.1580047607422,-137.8979949951172 C-154.57000732421875,-134.5070037841797 -162.6219940185547,-123.15299987792969 -148.64199829101562,-111.16000366210938 C-133.87399291992188,-98.49099731445312 -111.88099670410156,-82.98699951171875 -110.04399871826172,-68.71600341796875z"></path></g><g opacity="1" transform="matrix(1,0,0,1,0,0)"><path stroke-linecap="round" stroke-linejoin="round" fill-opacity="0" stroke="rgb(104,0,30)" stroke-opacity="1" stroke-width="8" d=" M-150.56500244140625,-136.29100036621094 C-156.22300720214844,-131.69200134277344 -160.89500427246094,-121.6719970703125 -148.64199829101562,-111.16000366210938 C-133.87399291992188,-98.49099731445312 -111.88099670410156,-82.98699951171875 -110.04399871826172,-68.71600341796875 C-110.04399871826172,-68.71600341796875 -110.04399871826172,-68.71600341796875 -110.04399871826172,-68.71600341796875 C-109.21099853515625,-62.24300003051758 -108.15899658203125,-43.95500183105469 -117.8270034790039,0.9020000100135803 C-128.0540008544922,48.35599899291992 -136.76300048828125,89.6729965209961 -108.8030014038086,128.3209991455078 C-82.18499755859375,165.11500549316406 -11.477999687194824,191.3939971923828 28.118000030517578,159.79299926757812"></path></g><g opacity="1" transform="matrix(1,0,0,1,0,0)"><path stroke-linecap="round" stroke-linejoin="round" fill-opacity="0" stroke="rgb(104,0,30)" stroke-opacity="1" stroke-width="8" d=" M-9.383999824523926,173.5760040283203 C46.875,168.375 49.125,124.125 47.45000076293945,89.41999816894531"></path></g><g opacity="1" transform="matrix(1,0,0,1,0,0)"><path stroke-linecap="round" stroke-linejoin="round" fill-opacity="0" stroke="rgb(104,0,30)" stroke-opacity="1" stroke-width="8" d=" M-110.04399871826172,-68.71600341796875 C-110.04399871826172,-68.71600341796875 -110.83599853515625,-85.72799682617188 -112.80000305175781,-96.33999633789062"></path></g></g><g style="display: block;" transform="matrix(1.0299999713897705,0,0,1.0299999713897705,255.22698974609375,209.09249877929688)" opacity="1"><g opacity="0.4" transform="matrix(1,0,0,1,0,0)"><path fill="rgb(123,0,24)" fill-opacity="1" d=" M-109.72599792480469,127.00800323486328 C-111.16799926757812,106.84400177001953 -105.55799865722656,84.61199951171875 -106.5199966430664,60.39099884033203 C-107.09400177001953,45.93000030517578 -103.56700134277344,20.027999877929688 -97.77100372314453,23.158000946044922 C-95.6780014038086,24.288000106811523 -94.53299713134766,73.20999908447266 -61.8120002746582,106.0459976196289 C-39.3849983215332,128.552001953125 -25.233999252319336,160.97900390625 -37.19200134277344,166.3679962158203 C-50.867000579833984,172.531005859375 -90.625,158.125 -109.72599792480469,127.00800323486328z"></path></g><g opacity="1" transform="matrix(1,0,0,1,0,0)"><path fill="url(#__lottie_element_12)" fill-opacity="1" d=" M-119.58599853515625,14.270999908447266 C-119.58599853515625,14.270999908447266 -112.21199798583984,26.875999450683594 -120.50499725341797,72.63200378417969 C-125.01899719238281,97.53500366210938 -120.71099853515625,127.38400268554688 -97.0989990234375,148.42100524902344 C-76.04900360107422,167.17599487304688 -40.452999114990234,179.63400268554688 -2.7060000896453857,173.84100341796875 C-2.7060000896453857,173.84100341796875 -16.768999099731445,170.5229949951172 -29.11199951171875,148.302001953125 C-47.4640007019043,115.26399993896484 -70.12200164794922,100.88999938964844 -83.86699676513672,88.97799682617188 C-106.69200134277344,69.1969985961914 -97.83100128173828,34.959999084472656 -119.58599853515625,14.270999908447266z"></path></g><g opacity="0.2" transform="matrix(1,0,0,1,0,0)"><path stroke-linecap="round" stroke-linejoin="round" fill-opacity="0" stroke="rgb(35,96,0)" stroke-opacity="1" stroke-width="8" d=" M-2.7060000896453857,173.84100341796875 C-80.84600067138672,159.48199462890625 -104.23400115966797,113.8479995727539 -108.99199676513672,79.15899658203125 C-113.75,44.470001220703125 -110.45700073242188,42.5880012512207 -117.98600006103516,17.41200065612793"></path></g><g opacity="0.4" transform="matrix(1,0,0,1,0,0)"><path fill="rgb(202,255,85)" fill-opacity="1" d=" M-15.899999618530273,166.29200744628906 C-39.2599983215332,152.77000427246094 -35.36000061035156,132.61399841308594 -82.01399993896484,102.4540023803711 C-95.11399841308594,93.98500061035156 -103.16799926757812,86.1709976196289 -108.42900085449219,63.047000885009766 C-114.4209976196289,36.709999084472656 -118.7249984741211,18.55900001525879 -118.927001953125,18.118000030517578 C-97.27999877929688,31.05900001525879 -106.69499969482422,69.19499969482422 -83.86799621582031,88.98200225830078 C-70.1259994506836,100.88700103759766 -49.34700012207031,111.22100067138672 -29.110000610351562,148.30499267578125 C-24.250999450683594,157.19700622558594 -20.10300064086914,162.35299682617188 -15.899999618530273,166.29200744628906z"></path></g><g opacity="1" transform="matrix(1,0,0,1,0,0)"><path stroke-linecap="round" stroke-linejoin="round" fill-opacity="0" stroke="rgb(83,144,53)" stroke-opacity="1" stroke-width="8" d=" M-119.58599853515625,14.270999908447266 C-119.58599853515625,14.270999908447266 -112.21199798583984,26.875999450683594 -120.50499725341797,72.63200378417969 C-125.01899719238281,97.53500366210938 -120.71099853515625,127.38400268554688 -97.0989990234375,148.42100524902344 C-76.04900360107422,167.17599487304688 -40.452999114990234,179.63400268554688 -2.7060000896453857,173.84100341796875 C-2.7060000896453857,173.84100341796875 -16.768999099731445,170.5229949951172 -29.11199951171875,148.302001953125 C-47.4640007019043,115.26399993896484 -70.12200164794922,100.88999938964844 -83.86699676513672,88.97799682617188 C-106.69200134277344,69.1969985961914 -97.83100128173828,34.959999084472656 -119.58599853515625,14.270999908447266z"></path></g><g opacity="1" transform="matrix(1,0,0,1,0,0)"><path stroke-linecap="round" stroke-linejoin="round" fill-opacity="0" stroke="rgb(53,106,23)" stroke-opacity="1" stroke-width="8" d=" M-119.58599853515625,14.270999908447266 C-119.58599853515625,14.270999908447266 -112.21199798583984,26.875999450683594 -120.50499725341797,72.63200378417969 C-125.01899719238281,97.53500366210938 -120.71099853515625,127.38400268554688 -97.0989990234375,148.42100524902344 C-76.41799926757812,166.8470001220703 -41.698001861572266,179.19500732421875 -4.690999984741211,174.12899780273438"></path></g></g><g style="display: block;" transform="matrix(1.0299999713897705,0,0,1.0299999713897705,255.22698974609375,209.09197998046875)" opacity="1"><g opacity="1" transform="matrix(1,0,0,1,0,0)"><path fill="url(#__lottie_element_8)" fill-opacity="1" d=" M-0.7059999704360962,172.84100341796875 C-0.7059999704360962,172.84100341796875 17.45599937438965,171.9929962158203 41.44499969482422,150.4029998779297 C65.43399810791016,128.81300354003906 108.5270004272461,98.01000213623047 185.2899932861328,129.34800720214844 C185.2899932861328,129.34800720214844 156.41700744628906,115.74600219726562 118.02300262451172,126.4990005493164 C79.62899780273438,137.2519989013672 69.18199920654297,187.6269989013672 -0.7059999704360962,172.84100341796875z"></path></g><g opacity="0.4" transform="matrix(1,0,0,1,0,0)"><path fill="rgb(202,255,85)" fill-opacity="1" d=" M118.02100372314453,126.4990005493164 C81.45099639892578,136.75100708007812 70.23500061035156,182.93800354003906 8.835000038146973,174.51400756835938 C8.835000038146973,174.51400756835938 36.63199996948242,176.92100524902344 65.29299926757812,152.38499450683594 C93.9540023803711,127.8489990234375 114.70800018310547,105.10800170898438 177.39100646972656,126.40699768066406 C162.7790069580078,123.1760025024414 145.64300537109375,118.76399993896484 118.02100372314453,126.4990005493164z"></path></g><g opacity="1" transform="matrix(1,0,0,1,0,0)"><path stroke-linecap="round" stroke-linejoin="round" fill-opacity="0" stroke="rgb(68,137,33)" stroke-opacity="1" stroke-width="8" d=" M-0.7059999704360962,172.84100341796875 C-0.7059999704360962,172.84100341796875 17.45599937438965,171.9929962158203 41.44499969482422,150.4029998779297 C65.43399810791016,128.81300354003906 108.5270004272461,98.01000213623047 185.2899932861328,129.34800720214844 C185.2899932861328,129.34800720214844 156.41700744628906,115.74600219726562 118.02300262451172,126.4990005493164 C79.62899780273438,137.2519989013672 69.18199920654297,187.6269989013672 -0.7059999704360962,172.84100341796875z"></path></g><g opacity="1" transform="matrix(1,0,0,1,0,0)"><path stroke-linecap="round" stroke-linejoin="round" fill-opacity="0" stroke="rgb(120,204,0)" stroke-opacity="1" stroke-width="8" d=" M184.61399841308594,129.072998046875 C184.83900451660156,129.16400146484375 185.06399536132812,129.25599670410156 185.2899932861328,129.34800720214844 C185.2899932861328,129.34800720214844 156.41700744628906,115.74600219726562 118.02300262451172,126.4990005493164 C79.62899780273438,137.2519989013672 69.18199920654297,187.6269989013672 -0.7059999704360962,172.84100341796875"></path></g><g opacity="1" transform="matrix(1,0,0,1,0,0)"><path stroke-linecap="round" stroke-linejoin="round" fill-opacity="0" stroke="rgb(54,106,24)" stroke-opacity="1" stroke-width="8" d=" M18.124000549316406,175.40499877929688 C12.357999801635742,175.10499572753906 6.109000205993652,174.2830047607422 -0.7059999704360962,172.84100341796875"></path></g></g></g></svg>